<svg xmlns="http://www.w3.org/2000/svg" viewBox="0 0 500 500"><g id="freepik--background-complete--inject-5"><rect y="382.4" width="500" height="0.25" style="fill:#ebebeb"></rect><rect x="416.78" y="398.49" width="33.12" height="0.25" style="fill:#ebebeb"></rect><rect x="322.53" y="401.21" width="8.69" height="0.25" style="fill:#ebebeb"></rect><rect x="396.59" y="389.21" width="19.19" height="0.25" style="fill:#ebebeb"></rect><rect x="52.46" y="390.89" width="43.19" height="0.25" style="fill:#ebebeb"></rect><rect x="104.56" y="390.89" width="6.33" height="0.25" style="fill:#ebebeb"></rect><rect x="131.47" y="395.11" width="93.68" height="0.25" style="fill:#ebebeb"></rect><path d="M237,337.8H43.91a5.71,5.71,0,0,1-5.7-5.71V60.66A5.71,5.71,0,0,1,43.91,55H237a5.71,5.71,0,0,1,5.71,5.71V332.09A5.71,5.71,0,0,1,237,337.8ZM43.91,55.2a5.46,5.46,0,0,0-5.45,5.46V332.09a5.46,5.46,0,0,0,5.45,5.46H237a5.47,5.47,0,0,0,5.46-5.46V60.66A5.47,5.47,0,0,0,237,55.2Z" style="fill:#ebebeb"></path><path d="M453.31,337.8H260.21a5.72,5.72,0,0,1-5.71-5.71V60.66A5.72,5.72,0,0,1,260.21,55h193.1A5.71,5.71,0,0,1,459,60.66V332.09A5.71,5.71,0,0,1,453.31,337.8ZM260.21,55.2a5.47,5.47,0,0,0-5.46,5.46V332.09a5.47,5.47,0,0,0,5.46,5.46h193.1a5.47,5.47,0,0,0,5.46-5.46V60.66a5.47,5.47,0,0,0-5.46-5.46Z" style="fill:#ebebeb"></path><rect x="80.27" y="69.22" width="251.65" height="207.79" style="fill:#f5f5f5"></rect><rect x="84.31" y="73.62" width="247.62" height="199.16" style="fill:#fafafa"></rect><polygon points="86.13 216.12 86.13 145.76 93.44 145.76 93.44 136.47 109.89 128.77 109.89 119.26 112.64 119.26 112.64 145.76 115.38 145.76 115.38 216.12 119.03 216.12 119.03 179.57 127.26 179.57 127.26 160.38 130 160.38 130 216.12 136.4 216.12 136.4 195.11 140.96 195.11 140.96 189.62 151.01 189.62 151.01 170.43 156.5 170.43 156.5 157.64 162.9 157.64 162.9 138.45 165.64 138.45 165.64 157.64 172.03 157.64 172.03 170.43 177.52 170.43 177.52 189.62 187.57 189.62 187.57 195.11 192.14 195.11 192.14 216.12 197.62 216.12 197.62 189.62 207.67 189.62 207.67 131.14 210.41 131.14 210.41 124.74 232.35 124.74 232.35 131.14 236.91 131.14 236.91 173.17 255.19 173.17 255.19 177.74 261.59 177.74 261.59 180.49 255.19 180.49 255.19 196.93 274.38 196.93 274.38 142.1 278.04 142.1 278.04 131.14 287.18 131.14 287.18 89.1 289.92 89.1 289.92 131.14 296.31 131.14 296.31 142.1 331.92 142.1 331.92 272.78 84.31 272.78 84.31 216.12 86.13 216.12" style="fill:#f0f0f0"></polygon><rect x="310.31" y="144.97" width="2.59" height="2.59" style="fill:#f5f5f5"></rect><rect x="310.31" y="149.31" width="2.59" height="2.59" style="fill:#f5f5f5"></rect><rect x="310.31" y="166.67" width="2.59" height="2.59" style="fill:#f5f5f5"></rect><rect x="310.31" y="171.01" width="2.59" height="2.59" style="fill:#f5f5f5"></rect><rect x="310.31" y="175.35" width="2.59" height="2.59" style="fill:#f5f5f5"></rect><rect x="310.31" y="188.38" width="2.59" height="2.59" style="fill:#f5f5f5"></rect><rect x="310.31" y="192.72" width="2.59" height="2.59" style="fill:#f5f5f5"></rect><rect x="306.19" y="162.33" width="2.59" height="2.59" style="fill:#f5f5f5"></rect><rect x="306.19" y="166.67" width="2.59" height="2.59" style="fill:#f5f5f5"></rect><rect x="306.19" y="171.01" width="2.59" height="2.59" style="fill:#f5f5f5"></rect><rect x="306.19" y="175.35" width="2.59" height="2.59" style="fill:#f5f5f5"></rect><rect x="306.19" y="179.69" width="2.59" height="2.59" style="fill:#f5f5f5"></rect><rect x="306.19" y="188.38" width="2.59" height="2.59" style="fill:#f5f5f5"></rect><rect x="306.19" y="192.72" width="2.59" height="2.59" style="fill:#f5f5f5"></rect><rect x="302.08" y="144.97" width="2.59" height="2.59" style="fill:#f5f5f5"></rect><rect x="302.08" y="149.31" width="2.59" height="2.59" style="fill:#f5f5f5"></rect><rect x="302.08" y="153.65" width="2.59" height="2.59" style="fill:#f5f5f5"></rect><rect x="302.08" y="157.99" width="2.59" height="2.59" style="fill:#f5f5f5"></rect><rect x="302.08" y="162.33" width="2.59" height="2.59" style="fill:#f5f5f5"></rect><rect x="302.08" y="166.67" width="2.59" height="2.59" style="fill:#f5f5f5"></rect><rect x="302.08" y="171.01" width="2.59" height="2.59" style="fill:#f5f5f5"></rect><rect x="302.08" y="175.35" width="2.59" height="2.59" style="fill:#f5f5f5"></rect><rect x="302.08" y="179.69" width="2.59" height="2.59" style="fill:#f5f5f5"></rect><rect x="302.08" y="184.03" width="2.59" height="2.59" style="fill:#f5f5f5"></rect><rect x="302.08" y="192.72" width="2.59" height="2.59" style="fill:#f5f5f5"></rect><rect x="297.97" y="144.97" width="2.59" height="2.59" style="fill:#f5f5f5"></rect><rect x="297.97" y="149.31" width="2.59" height="2.59" style="fill:#f5f5f5"></rect><rect x="297.97" y="153.65" width="2.59" height="2.59" style="fill:#f5f5f5"></rect><rect x="297.97" y="157.99" width="2.59" height="2.59" style="fill:#f5f5f5"></rect><rect x="297.97" y="162.33" width="2.59" height="2.59" style="fill:#f5f5f5"></rect><rect x="297.97" y="166.67" width="2.59" height="2.59" style="fill:#f5f5f5"></rect><rect x="297.97" y="171.01" width="2.59" height="2.59" style="fill:#f5f5f5"></rect><rect x="297.97" y="210.08" width="2.59" height="2.59" style="fill:#f5f5f5"></rect><rect x="293.86" y="144.97" width="2.59" height="2.59" style="fill:#f5f5f5"></rect><rect x="293.86" y="149.31" width="2.59" height="2.59" style="fill:#f5f5f5"></rect><rect x="293.86" y="153.65" width="2.59" height="2.59" style="fill:#f5f5f5"></rect><rect x="293.86" y="157.99" width="2.59" height="2.59" style="fill:#f5f5f5"></rect><rect x="293.86" y="162.33" width="2.59" height="2.59" style="fill:#f5f5f5"></rect><rect x="293.86" y="166.67" width="2.59" height="2.59" style="fill:#f5f5f5"></rect><rect x="293.86" y="171.01" width="2.59" height="2.59" style="fill:#f5f5f5"></rect><rect x="293.86" y="175.35" width="2.59" height="2.59" style="fill:#f5f5f5"></rect><rect x="293.86" y="201.4" width="2.59" height="2.59" style="fill:#f5f5f5"></rect><rect x="293.86" y="205.74" width="2.59" height="2.59" style="fill:#f5f5f5"></rect><rect x="293.86" y="210.08" width="2.59" height="2.59" style="fill:#f5f5f5"></rect><rect x="293.86" y="214.42" width="2.59" height="2.59" style="fill:#f5f5f5"></rect><rect x="293.86" y="231.78" width="2.59" height="2.59" style="fill:#f5f5f5"></rect><rect x="289.74" y="144.97" width="2.59" height="2.59" style="fill:#f5f5f5"></rect><rect x="289.74" y="149.31" width="2.59" height="2.59" style="fill:#f5f5f5"></rect><rect x="289.74" y="153.65" width="2.59" height="2.59" style="fill:#f5f5f5"></rect><rect x="289.74" y="157.99" width="2.59" height="2.59" style="fill:#f5f5f5"></rect><rect x="289.74" y="162.33" width="2.59" height="2.59" style="fill:#f5f5f5"></rect><rect x="289.74" y="166.67" width="2.59" height="2.59" style="fill:#f5f5f5"></rect><rect x="289.74" y="171.01" width="2.59" height="2.59" style="fill:#f5f5f5"></rect><rect x="289.74" y="175.35" width="2.59" height="2.59" style="fill:#f5f5f5"></rect><rect x="289.74" y="179.69" width="2.59" height="2.59" style="fill:#f5f5f5"></rect><rect x="289.74" y="184.03" width="2.59" height="2.59" style="fill:#f5f5f5"></rect><rect x="289.74" y="197.06" width="2.59" height="2.59" style="fill:#f5f5f5"></rect><rect x="289.74" y="201.4" width="2.59" height="2.59" style="fill:#f5f5f5"></rect><rect x="289.74" y="205.74" width="2.59" height="2.59" style="fill:#f5f5f5"></rect><rect x="289.74" y="210.08" width="2.59" height="2.59" style="fill:#f5f5f5"></rect><rect x="289.74" y="214.42" width="2.59" height="2.59" style="fill:#f5f5f5"></rect><rect x="289.74" y="231.78" width="2.59" height="2.59" style="fill:#f5f5f5"></rect><rect x="285.63" y="144.97" width="2.59" height="2.59" style="fill:#f5f5f5"></rect><rect x="285.63" y="149.31" width="2.59" height="2.59" style="fill:#f5f5f5"></rect><rect x="285.63" y="153.65" width="2.59" height="2.59" style="fill:#f5f5f5"></rect><rect x="285.63" y="157.99" width="2.59" height="2.59" style="fill:#f5f5f5"></rect><rect x="285.63" y="162.33" width="2.59" height="2.59" style="fill:#f5f5f5"></rect><rect x="285.63" y="166.67" width="2.59" height="2.59" style="fill:#f5f5f5"></rect><rect x="285.63" y="171.01" width="2.59" height="2.59" style="fill:#f5f5f5"></rect><rect x="285.63" y="175.35" width="2.59" height="2.59" style="fill:#f5f5f5"></rect><rect x="285.63" y="179.69" width="2.59" height="2.59" style="fill:#f5f5f5"></rect><rect x="285.63" y="184.03" width="2.59" height="2.59" style="fill:#f5f5f5"></rect><rect x="285.63" y="188.38" width="2.59" height="2.59" style="fill:#f5f5f5"></rect><rect x="285.63" y="192.72" width="2.59" height="2.59" style="fill:#f5f5f5"></rect><rect x="285.63" y="197.06" width="2.59" height="2.59" style="fill:#f5f5f5"></rect><rect x="285.63" y="201.4" width="2.59" height="2.59" style="fill:#f5f5f5"></rect><rect x="285.63" y="205.74" width="2.59" height="2.59" style="fill:#f5f5f5"></rect><rect x="285.63" y="210.08" width="2.59" height="2.59" style="fill:#f5f5f5"></rect><rect x="285.63" y="214.42" width="2.59" height="2.59" style="fill:#f5f5f5"></rect><rect x="285.63" y="218.76" width="2.59" height="2.59" style="fill:#f5f5f5"></rect><rect x="281.52" y="144.97" width="2.59" height="2.59" style="fill:#f5f5f5"></rect><rect x="281.52" y="149.31" width="2.59" height="2.59" style="fill:#f5f5f5"></rect><rect x="281.52" y="153.65" width="2.59" height="2.59" style="fill:#f5f5f5"></rect><rect x="281.52" y="157.99" width="2.59" height="2.59" style="fill:#f5f5f5"></rect><rect x="281.52" y="162.33" width="2.59" height="2.59" style="fill:#f5f5f5"></rect><rect x="281.52" y="166.67" width="2.59" height="2.59" style="fill:#f5f5f5"></rect><rect x="281.52" y="171.01" width="2.59" height="2.59" style="fill:#f5f5f5"></rect><rect x="281.52" y="175.35" width="2.59" height="2.59" style="fill:#f5f5f5"></rect><rect x="281.52" y="179.69" width="2.59" height="2.59" style="fill:#f5f5f5"></rect><rect x="281.52" y="184.03" width="2.59" height="2.59" style="fill:#f5f5f5"></rect><rect x="281.52" y="197.06" width="2.59" height="2.59" style="fill:#f5f5f5"></rect><rect x="281.52" y="201.4" width="2.59" height="2.59" style="fill:#f5f5f5"></rect><rect x="281.52" y="205.74" width="2.59" height="2.59" style="fill:#f5f5f5"></rect><rect x="281.52" y="210.08" width="2.59" height="2.59" style="fill:#f5f5f5"></rect><rect x="277.41" y="144.97" width="2.59" height="2.59" style="fill:#f5f5f5"></rect><rect x="277.41" y="149.31" width="2.59" height="2.59" style="fill:#f5f5f5"></rect><rect x="277.41" y="153.65" width="2.59" height="2.59" style="fill:#f5f5f5"></rect><rect x="277.41" y="157.99" width="2.59" height="2.59" style="fill:#f5f5f5"></rect><rect x="277.41" y="162.33" width="2.59" height="2.59" style="fill:#f5f5f5"></rect><rect x="277.41" y="166.67" width="2.59" height="2.59" style="fill:#f5f5f5"></rect><rect x="277.41" y="171.01" width="2.59" height="2.59" style="fill:#f5f5f5"></rect><rect x="277.41" y="175.35" width="2.59" height="2.59" style="fill:#f5f5f5"></rect><rect x="277.41" y="179.69" width="2.59" height="2.59" style="fill:#f5f5f5"></rect><rect x="277.41" y="184.03" width="2.59" height="2.59" style="fill:#f5f5f5"></rect><rect x="277.41" y="197.06" width="2.59" height="2.59" style="fill:#f5f5f5"></rect><rect x="277.41" y="201.4" width="2.59" height="2.59" style="fill:#f5f5f5"></rect><rect x="277.41" y="205.74" width="2.59" height="2.59" style="fill:#f5f5f5"></rect><rect x="231.11" y="133.7" width="2.59" height="2.59" style="fill:#f5f5f5"></rect><rect x="231.11" y="138.04" width="2.59" height="2.59" style="fill:#f5f5f5"></rect><rect x="231.11" y="142.38" width="2.59" height="2.59" style="fill:#f5f5f5"></rect><rect x="231.11" y="146.72" width="2.59" height="2.59" style="fill:#f5f5f5"></rect><rect x="231.11" y="151.06" width="2.59" height="2.59" style="fill:#f5f5f5"></rect><rect x="231.11" y="155.4" width="2.59" height="2.59" style="fill:#f5f5f5"></rect><rect x="231.11" y="159.74" width="2.59" height="2.59" style="fill:#f5f5f5"></rect><rect x="231.11" y="164.08" width="2.59" height="2.59" style="fill:#f5f5f5"></rect><rect x="231.11" y="177.11" width="2.59" height="2.59" style="fill:#f5f5f5"></rect><rect x="231.11" y="181.45" width="2.59" height="2.59" style="fill:#f5f5f5"></rect><rect x="227" y="133.7" width="2.59" height="2.59" style="fill:#f5f5f5"></rect><rect x="227" y="138.04" width="2.59" height="2.59" style="fill:#f5f5f5"></rect><rect x="227" y="142.38" width="2.59" height="2.59" style="fill:#f5f5f5"></rect><rect x="227" y="146.72" width="2.59" height="2.59" style="fill:#f5f5f5"></rect><rect x="227" y="151.06" width="2.59" height="2.59" style="fill:#f5f5f5"></rect><rect x="227" y="155.4" width="2.59" height="2.59" style="fill:#f5f5f5"></rect><rect x="227" y="159.74" width="2.59" height="2.59" style="fill:#f5f5f5"></rect><rect x="227" y="164.08" width="2.59" height="2.59" style="fill:#f5f5f5"></rect><rect x="227" y="181.45" width="2.59" height="2.59" style="fill:#f5f5f5"></rect><rect x="222.88" y="133.7" width="2.59" height="2.59" style="fill:#f5f5f5"></rect><rect x="222.88" y="138.04" width="2.59" height="2.59" style="fill:#f5f5f5"></rect><rect x="222.88" y="142.38" width="2.59" height="2.59" style="fill:#f5f5f5"></rect><rect x="222.88" y="146.72" width="2.59" height="2.59" style="fill:#f5f5f5"></rect><rect x="222.88" y="151.06" width="2.59" height="2.59" style="fill:#f5f5f5"></rect><rect x="222.88" y="155.4" width="2.59" height="2.59" style="fill:#f5f5f5"></rect><rect x="222.88" y="159.74" width="2.59" height="2.59" style="fill:#f5f5f5"></rect><rect x="222.88" y="164.08" width="2.59" height="2.59" style="fill:#f5f5f5"></rect><rect x="218.77" y="133.7" width="2.59" height="2.59" style="fill:#f5f5f5"></rect><rect x="218.77" y="138.04" width="2.59" height="2.59" style="fill:#f5f5f5"></rect><rect x="218.77" y="142.38" width="2.59" height="2.59" style="fill:#f5f5f5"></rect><rect x="218.77" y="146.72" width="2.59" height="2.59" style="fill:#f5f5f5"></rect><rect x="218.77" y="151.06" width="2.59" height="2.59" style="fill:#f5f5f5"></rect><rect x="218.77" y="155.4" width="2.59" height="2.59" style="fill:#f5f5f5"></rect><rect x="218.77" y="164.08" width="2.59" height="2.59" style="fill:#f5f5f5"></rect><rect x="218.77" y="168.42" width="2.59" height="2.59" style="fill:#f5f5f5"></rect><rect x="218.77" y="181.45" width="2.59" height="2.59" style="fill:#f5f5f5"></rect><rect x="218.77" y="185.79" width="2.59" height="2.59" style="fill:#f5f5f5"></rect><rect x="218.77" y="190.13" width="2.59" height="2.59" style="fill:#f5f5f5"></rect><rect x="218.77" y="194.47" width="2.59" height="2.59" style="fill:#f5f5f5"></rect><rect x="218.77" y="198.81" width="2.59" height="2.59" style="fill:#f5f5f5"></rect><rect x="218.77" y="203.15" width="2.59" height="2.59" style="fill:#f5f5f5"></rect><rect x="218.77" y="207.49" width="2.59" height="2.59" style="fill:#f5f5f5"></rect><rect x="214.66" y="133.7" width="2.59" height="2.59" style="fill:#f5f5f5"></rect><rect x="214.66" y="138.04" width="2.59" height="2.59" style="fill:#f5f5f5"></rect><rect x="214.66" y="142.38" width="2.59" height="2.59" style="fill:#f5f5f5"></rect><rect x="214.66" y="146.72" width="2.59" height="2.59" style="fill:#f5f5f5"></rect><rect x="214.66" y="151.06" width="2.59" height="2.59" style="fill:#f5f5f5"></rect><rect x="214.66" y="155.4" width="2.59" height="2.59" style="fill:#f5f5f5"></rect><rect x="214.66" y="168.42" width="2.59" height="2.59" style="fill:#f5f5f5"></rect><rect x="214.66" y="172.76" width="2.59" height="2.59" style="fill:#f5f5f5"></rect><rect x="214.66" y="177.11" width="2.59" height="2.59" style="fill:#f5f5f5"></rect><rect x="214.66" y="181.45" width="2.59" height="2.59" style="fill:#f5f5f5"></rect><rect x="214.66" y="185.79" width="2.59" height="2.59" style="fill:#f5f5f5"></rect><rect x="214.66" y="190.13" width="2.59" height="2.59" style="fill:#f5f5f5"></rect><rect x="214.66" y="194.47" width="2.59" height="2.59" style="fill:#f5f5f5"></rect><rect x="214.66" y="198.81" width="2.59" height="2.59" style="fill:#f5f5f5"></rect><rect x="214.66" y="203.15" width="2.59" height="2.59" style="fill:#f5f5f5"></rect><rect x="214.66" y="207.49" width="2.59" height="2.59" style="fill:#f5f5f5"></rect><rect x="214.66" y="211.83" width="2.59" height="2.59" style="fill:#f5f5f5"></rect><rect x="214.66" y="220.51" width="2.59" height="2.59" style="fill:#f5f5f5"></rect><rect x="210.55" y="133.7" width="2.59" height="2.59" style="fill:#f5f5f5"></rect><rect x="210.55" y="138.04" width="2.59" height="2.59" style="fill:#f5f5f5"></rect><rect x="210.55" y="142.38" width="2.59" height="2.59" style="fill:#f5f5f5"></rect><rect x="210.55" y="146.72" width="2.59" height="2.59" style="fill:#f5f5f5"></rect><rect x="210.55" y="151.06" width="2.59" height="2.59" style="fill:#f5f5f5"></rect><rect x="210.55" y="155.4" width="2.59" height="2.59" style="fill:#f5f5f5"></rect><rect x="210.55" y="168.42" width="2.59" height="2.59" style="fill:#f5f5f5"></rect><rect x="210.55" y="172.76" width="2.59" height="2.59" style="fill:#f5f5f5"></rect><rect x="210.55" y="177.11" width="2.59" height="2.59" style="fill:#f5f5f5"></rect><rect x="210.55" y="181.45" width="2.59" height="2.59" style="fill:#f5f5f5"></rect><rect x="210.55" y="194.47" width="2.59" height="2.59" style="fill:#f5f5f5"></rect><rect x="210.55" y="198.81" width="2.59" height="2.59" style="fill:#f5f5f5"></rect><rect x="210.55" y="203.15" width="2.59" height="2.59" style="fill:#f5f5f5"></rect><rect x="210.55" y="207.49" width="2.59" height="2.59" style="fill:#f5f5f5"></rect><rect x="210.55" y="211.83" width="2.59" height="2.59" style="fill:#f5f5f5"></rect><rect x="210.55" y="220.51" width="2.59" height="2.59" style="fill:#f5f5f5"></rect><rect x="210.55" y="224.85" width="2.59" height="2.59" style="fill:#f5f5f5"></rect><rect x="173.23" y="174.06" width="2.59" height="2.59" style="fill:#f5f5f5"></rect><rect x="173.23" y="178.4" width="2.59" height="2.59" style="fill:#f5f5f5"></rect><rect x="173.23" y="182.74" width="2.59" height="2.59" style="fill:#f5f5f5"></rect><rect x="173.23" y="187.08" width="2.59" height="2.59" style="fill:#f5f5f5"></rect><rect x="173.23" y="191.42" width="2.59" height="2.59" style="fill:#f5f5f5"></rect><rect x="173.23" y="195.76" width="2.59" height="2.59" style="fill:#f5f5f5"></rect><rect x="173.23" y="200.1" width="2.59" height="2.59" style="fill:#f5f5f5"></rect><rect x="173.23" y="213.12" width="2.59" height="2.59" style="fill:#f5f5f5"></rect><rect x="173.23" y="217.47" width="2.59" height="2.59" style="fill:#f5f5f5"></rect><rect x="173.23" y="221.81" width="2.59" height="2.59" style="fill:#f5f5f5"></rect><rect x="169.12" y="174.06" width="2.59" height="2.59" style="fill:#f5f5f5"></rect><rect x="169.12" y="178.4" width="2.59" height="2.59" style="fill:#f5f5f5"></rect><rect x="169.12" y="182.74" width="2.59" height="2.59" style="fill:#f5f5f5"></rect><rect x="169.12" y="187.08" width="2.59" height="2.59" style="fill:#f5f5f5"></rect><rect x="169.12" y="191.42" width="2.59" height="2.59" style="fill:#f5f5f5"></rect><rect x="169.12" y="195.76" width="2.59" height="2.59" style="fill:#f5f5f5"></rect><rect x="169.12" y="200.1" width="2.59" height="2.59" style="fill:#f5f5f5"></rect><rect x="165.01" y="174.06" width="2.59" height="2.59" style="fill:#f5f5f5"></rect><rect x="165.01" y="178.4" width="2.59" height="2.59" style="fill:#f5f5f5"></rect><rect x="165.01" y="182.74" width="2.59" height="2.59" style="fill:#f5f5f5"></rect><rect x="165.01" y="187.08" width="2.59" height="2.59" style="fill:#f5f5f5"></rect><rect x="165.01" y="191.42" width="2.59" height="2.59" style="fill:#f5f5f5"></rect><rect x="165.01" y="195.76" width="2.59" height="2.59" style="fill:#f5f5f5"></rect><rect x="165.01" y="200.1" width="2.59" height="2.59" style="fill:#f5f5f5"></rect><rect x="160.9" y="174.06" width="2.59" height="2.59" style="fill:#f5f5f5"></rect><rect x="160.9" y="178.4" width="2.59" height="2.59" style="fill:#f5f5f5"></rect><rect x="160.9" y="182.74" width="2.59" height="2.59" style="fill:#f5f5f5"></rect><rect x="160.9" y="187.08" width="2.59" height="2.59" style="fill:#f5f5f5"></rect><rect x="160.9" y="191.42" width="2.59" height="2.59" style="fill:#f5f5f5"></rect><rect x="160.9" y="195.76" width="2.59" height="2.59" style="fill:#f5f5f5"></rect><rect x="160.9" y="200.1" width="2.59" height="2.59" style="fill:#f5f5f5"></rect><rect x="160.9" y="204.44" width="2.59" height="2.59" style="fill:#f5f5f5"></rect><rect x="160.9" y="208.78" width="2.59" height="2.59" style="fill:#f5f5f5"></rect><rect x="160.9" y="213.12" width="2.59" height="2.59" style="fill:#f5f5f5"></rect><rect x="160.9" y="217.47" width="2.59" height="2.59" style="fill:#f5f5f5"></rect><rect x="156.78" y="174.06" width="2.59" height="2.59" style="fill:#f5f5f5"></rect><rect x="156.78" y="178.4" width="2.59" height="2.59" style="fill:#f5f5f5"></rect><rect x="156.78" y="182.74" width="2.59" height="2.59" style="fill:#f5f5f5"></rect><rect x="156.78" y="187.08" width="2.59" height="2.59" style="fill:#f5f5f5"></rect><rect x="156.78" y="191.42" width="2.59" height="2.59" style="fill:#f5f5f5"></rect><rect x="156.78" y="195.76" width="2.59" height="2.59" style="fill:#f5f5f5"></rect><rect x="156.78" y="200.1" width="2.59" height="2.59" style="fill:#f5f5f5"></rect><rect x="156.78" y="204.44" width="2.59" height="2.59" style="fill:#f5f5f5"></rect><rect x="156.78" y="208.78" width="2.59" height="2.59" style="fill:#f5f5f5"></rect><rect x="156.78" y="213.12" width="2.59" height="2.59" style="fill:#f5f5f5"></rect><rect x="156.78" y="217.47" width="2.59" height="2.59" style="fill:#f5f5f5"></rect><rect x="156.78" y="221.81" width="2.59" height="2.59" style="fill:#f5f5f5"></rect><rect x="156.78" y="234.83" width="2.59" height="2.59" style="fill:#f5f5f5"></rect><rect x="156.78" y="239.17" width="2.59" height="2.59" style="fill:#f5f5f5"></rect><rect x="152.67" y="174.06" width="2.59" height="2.59" style="fill:#f5f5f5"></rect><rect x="152.67" y="178.4" width="2.59" height="2.59" style="fill:#f5f5f5"></rect><rect x="152.67" y="182.74" width="2.59" height="2.59" style="fill:#f5f5f5"></rect><rect x="152.67" y="195.76" width="2.59" height="2.59" style="fill:#f5f5f5"></rect><rect x="152.67" y="200.1" width="2.59" height="2.59" style="fill:#f5f5f5"></rect><rect x="152.67" y="204.44" width="2.59" height="2.59" style="fill:#f5f5f5"></rect><rect x="152.67" y="208.78" width="2.59" height="2.59" style="fill:#f5f5f5"></rect><rect x="152.67" y="213.12" width="2.59" height="2.59" style="fill:#f5f5f5"></rect><rect x="152.67" y="217.47" width="2.59" height="2.59" style="fill:#f5f5f5"></rect><rect x="152.67" y="221.81" width="2.59" height="2.59" style="fill:#f5f5f5"></rect><rect x="152.67" y="234.83" width="2.59" height="2.59" style="fill:#f5f5f5"></rect><rect x="152.67" y="239.17" width="2.59" height="2.59" style="fill:#f5f5f5"></rect><rect x="152.67" y="243.51" width="2.59" height="2.59" style="fill:#f5f5f5"></rect><rect x="109.57" y="148.02" width="2.59" height="2.59" style="fill:#f5f5f5"></rect><rect x="109.57" y="152.36" width="2.59" height="2.59" style="fill:#f5f5f5"></rect><rect x="109.57" y="156.7" width="2.59" height="2.59" style="fill:#f5f5f5"></rect><rect x="109.57" y="161.04" width="2.59" height="2.59" style="fill:#f5f5f5"></rect><rect x="109.57" y="165.38" width="2.59" height="2.59" style="fill:#f5f5f5"></rect><rect x="109.57" y="169.72" width="2.59" height="2.59" style="fill:#f5f5f5"></rect><rect x="109.57" y="174.06" width="2.59" height="2.59" style="fill:#f5f5f5"></rect><rect x="109.57" y="178.4" width="2.59" height="2.59" style="fill:#f5f5f5"></rect><rect x="109.57" y="182.74" width="2.59" height="2.59" style="fill:#f5f5f5"></rect><rect x="109.57" y="187.08" width="2.59" height="2.59" style="fill:#f5f5f5"></rect><rect x="109.57" y="191.42" width="2.59" height="2.59" style="fill:#f5f5f5"></rect><rect x="109.57" y="195.76" width="2.59" height="2.59" style="fill:#f5f5f5"></rect><rect x="109.57" y="200.1" width="2.59" height="2.59" style="fill:#f5f5f5"></rect><rect x="109.57" y="204.44" width="2.59" height="2.59" style="fill:#f5f5f5"></rect><rect x="109.57" y="208.78" width="2.59" height="2.59" style="fill:#f5f5f5"></rect><rect x="109.57" y="213.12" width="2.59" height="2.59" style="fill:#f5f5f5"></rect><rect x="109.57" y="217.47" width="2.59" height="2.59" style="fill:#f5f5f5"></rect><rect x="109.57" y="221.81" width="2.59" height="2.59" style="fill:#f5f5f5"></rect><rect x="109.57" y="226.15" width="2.59" height="2.59" style="fill:#f5f5f5"></rect><rect x="109.57" y="230.49" width="2.59" height="2.59" style="fill:#f5f5f5"></rect><rect x="109.57" y="234.83" width="2.59" height="2.59" style="fill:#f5f5f5"></rect><rect x="109.57" y="239.17" width="2.59" height="2.59" style="fill:#f5f5f5"></rect><rect x="109.57" y="243.51" width="2.59" height="2.59" style="fill:#f5f5f5"></rect><rect x="105.46" y="148.02" width="2.59" height="2.59" style="fill:#f5f5f5"></rect><rect x="105.46" y="152.36" width="2.59" height="2.59" style="fill:#f5f5f5"></rect><rect x="105.46" y="156.7" width="2.59" height="2.59" style="fill:#f5f5f5"></rect><rect x="105.46" y="161.04" width="2.59" height="2.59" style="fill:#f5f5f5"></rect><rect x="105.46" y="165.38" width="2.59" height="2.59" style="fill:#f5f5f5"></rect><rect x="105.46" y="169.72" width="2.59" height="2.59" style="fill:#f5f5f5"></rect><rect x="105.46" y="174.06" width="2.59" height="2.59" style="fill:#f5f5f5"></rect><rect x="105.46" y="178.4" width="2.59" height="2.59" style="fill:#f5f5f5"></rect><rect x="105.46" y="182.74" width="2.59" height="2.59" style="fill:#f5f5f5"></rect><rect x="105.46" y="187.08" width="2.59" height="2.59" style="fill:#f5f5f5"></rect><rect x="105.46" y="191.42" width="2.59" height="2.59" style="fill:#f5f5f5"></rect><rect x="105.46" y="195.76" width="2.59" height="2.59" style="fill:#f5f5f5"></rect><rect x="105.46" y="200.1" width="2.59" height="2.59" style="fill:#f5f5f5"></rect><rect x="105.46" y="204.44" width="2.59" height="2.59" style="fill:#f5f5f5"></rect><rect x="105.46" y="208.78" width="2.59" height="2.59" style="fill:#f5f5f5"></rect><rect x="105.46" y="213.12" width="2.59" height="2.59" style="fill:#f5f5f5"></rect><rect x="105.46" y="217.47" width="2.59" height="2.59" style="fill:#f5f5f5"></rect><rect x="105.46" y="221.81" width="2.59" height="2.59" style="fill:#f5f5f5"></rect><rect x="105.46" y="226.15" width="2.59" height="2.59" style="fill:#f5f5f5"></rect><rect x="101.34" y="148.02" width="2.59" height="2.59" style="fill:#f5f5f5"></rect><rect x="101.34" y="152.36" width="2.59" height="2.59" style="fill:#f5f5f5"></rect><rect x="101.34" y="156.7" width="2.59" height="2.59" style="fill:#f5f5f5"></rect><rect x="101.34" y="161.04" width="2.59" height="2.59" style="fill:#f5f5f5"></rect><rect x="101.34" y="165.38" width="2.59" height="2.59" style="fill:#f5f5f5"></rect><rect x="101.34" y="169.72" width="2.59" height="2.59" style="fill:#f5f5f5"></rect><rect x="101.34" y="174.06" width="2.59" height="2.59" style="fill:#f5f5f5"></rect><rect x="101.34" y="178.4" width="2.59" height="2.59" style="fill:#f5f5f5"></rect><rect x="101.34" y="182.74" width="2.59" height="2.59" style="fill:#f5f5f5"></rect><rect x="101.34" y="187.08" width="2.59" height="2.59" style="fill:#f5f5f5"></rect><rect x="101.34" y="191.42" width="2.59" height="2.59" style="fill:#f5f5f5"></rect><rect x="101.34" y="195.76" width="2.59" height="2.59" style="fill:#f5f5f5"></rect><rect x="101.34" y="200.1" width="2.59" height="2.59" style="fill:#f5f5f5"></rect><rect x="101.34" y="204.44" width="2.59" height="2.59" style="fill:#f5f5f5"></rect><rect x="101.34" y="208.78" width="2.59" height="2.59" style="fill:#f5f5f5"></rect><rect x="101.34" y="213.12" width="2.59" height="2.59" style="fill:#f5f5f5"></rect><rect x="101.34" y="217.47" width="2.59" height="2.59" style="fill:#f5f5f5"></rect><rect x="101.34" y="221.81" width="2.59" height="2.59" style="fill:#f5f5f5"></rect><rect x="101.34" y="226.15" width="2.59" height="2.59" style="fill:#f5f5f5"></rect><rect x="97.23" y="148.02" width="2.59" height="2.59" style="fill:#f5f5f5"></rect><rect x="97.23" y="152.36" width="2.59" height="2.59" style="fill:#f5f5f5"></rect><rect x="97.23" y="156.7" width="2.59" height="2.59" style="fill:#f5f5f5"></rect><rect x="97.23" y="161.04" width="2.59" height="2.59" style="fill:#f5f5f5"></rect><rect x="97.23" y="165.38" width="2.59" height="2.59" style="fill:#f5f5f5"></rect><rect x="97.23" y="169.72" width="2.59" height="2.59" style="fill:#f5f5f5"></rect><rect x="97.23" y="174.06" width="2.59" height="2.59" style="fill:#f5f5f5"></rect><rect x="97.23" y="178.4" width="2.59" height="2.59" style="fill:#f5f5f5"></rect><rect x="97.23" y="182.74" width="2.59" height="2.59" style="fill:#f5f5f5"></rect><rect x="97.23" y="187.08" width="2.59" height="2.59" style="fill:#f5f5f5"></rect><rect x="97.23" y="191.42" width="2.59" height="2.59" style="fill:#f5f5f5"></rect><rect x="97.23" y="195.76" width="2.59" height="2.59" style="fill:#f5f5f5"></rect><rect x="97.23" y="200.1" width="2.59" height="2.59" style="fill:#f5f5f5"></rect><rect x="97.23" y="204.44" width="2.59" height="2.59" style="fill:#f5f5f5"></rect><rect x="97.23" y="208.78" width="2.59" height="2.59" style="fill:#f5f5f5"></rect><rect x="93.12" y="148.02" width="2.59" height="2.59" style="fill:#f5f5f5"></rect><rect x="93.12" y="152.36" width="2.59" height="2.59" style="fill:#f5f5f5"></rect><rect x="93.12" y="156.7" width="2.59" height="2.59" style="fill:#f5f5f5"></rect><rect x="93.12" y="161.04" width="2.59" height="2.59" style="fill:#f5f5f5"></rect><rect x="93.12" y="165.38" width="2.59" height="2.59" style="fill:#f5f5f5"></rect><rect x="93.12" y="169.72" width="2.59" height="2.59" style="fill:#f5f5f5"></rect><rect x="93.12" y="174.06" width="2.59" height="2.59" style="fill:#f5f5f5"></rect><rect x="93.12" y="178.4" width="2.59" height="2.59" style="fill:#f5f5f5"></rect><rect x="93.12" y="182.74" width="2.59" height="2.59" style="fill:#f5f5f5"></rect><rect x="93.12" y="187.08" width="2.59" height="2.59" style="fill:#f5f5f5"></rect><rect x="93.12" y="191.42" width="2.59" height="2.59" style="fill:#f5f5f5"></rect><rect x="93.12" y="195.76" width="2.59" height="2.59" style="fill:#f5f5f5"></rect><rect x="93.12" y="200.1" width="2.59" height="2.59" style="fill:#f5f5f5"></rect><rect x="89.01" y="148.02" width="2.59" height="2.59" style="fill:#f5f5f5"></rect><rect x="89.01" y="152.36" width="2.59" height="2.59" style="fill:#f5f5f5"></rect><rect x="89.01" y="156.7" width="2.59" height="2.59" style="fill:#f5f5f5"></rect><rect x="89.01" y="161.04" width="2.59" height="2.59" style="fill:#f5f5f5"></rect><rect x="89.01" y="165.38" width="2.59" height="2.59" style="fill:#f5f5f5"></rect><rect x="89.01" y="169.72" width="2.59" height="2.59" style="fill:#f5f5f5"></rect><rect x="89.01" y="174.06" width="2.59" height="2.59" style="fill:#f5f5f5"></rect><rect x="89.01" y="178.4" width="2.59" height="2.59" style="fill:#f5f5f5"></rect><rect x="89.01" y="182.74" width="2.59" height="2.59" style="fill:#f5f5f5"></rect><rect x="89.01" y="187.08" width="2.59" height="2.59" style="fill:#f5f5f5"></rect><rect x="89.01" y="191.42" width="2.59" height="2.59" style="fill:#f5f5f5"></rect><rect x="89.01" y="195.76" width="2.59" height="2.59" style="fill:#f5f5f5"></rect><rect x="329.04" y="146.72" width="2.59" height="2.59" style="fill:#f5f5f5"></rect><rect x="329.04" y="151.06" width="2.59" height="2.59" style="fill:#f5f5f5"></rect><rect x="329.04" y="155.4" width="2.59" height="2.59" style="fill:#f5f5f5"></rect><rect x="329.04" y="159.74" width="2.59" height="2.59" style="fill:#f5f5f5"></rect><rect x="329.04" y="164.08" width="2.59" height="2.59" style="fill:#f5f5f5"></rect><rect x="329.04" y="168.42" width="2.59" height="2.59" style="fill:#f5f5f5"></rect><rect x="329.04" y="172.76" width="2.59" height="2.59" style="fill:#f5f5f5"></rect><rect x="329.04" y="177.11" width="2.59" height="2.59" style="fill:#f5f5f5"></rect><rect x="329.04" y="181.45" width="2.59" height="2.59" style="fill:#f5f5f5"></rect><rect x="329.04" y="185.79" width="2.59" height="2.59" style="fill:#f5f5f5"></rect><rect x="329.04" y="190.13" width="2.59" height="2.59" style="fill:#f5f5f5"></rect><rect x="329.04" y="194.47" width="2.59" height="2.59" style="fill:#f5f5f5"></rect><rect x="329.04" y="198.81" width="2.59" height="2.59" style="fill:#f5f5f5"></rect><rect x="329.04" y="203.15" width="2.59" height="2.59" style="fill:#f5f5f5"></rect><rect x="329.04" y="207.49" width="2.59" height="2.59" style="fill:#f5f5f5"></rect><rect x="329.04" y="211.83" width="2.59" height="2.59" style="fill:#f5f5f5"></rect><rect x="329.04" y="216.17" width="2.59" height="2.59" style="fill:#f5f5f5"></rect><rect x="329.04" y="224.85" width="2.59" height="2.59" style="fill:#f5f5f5"></rect><rect x="329.04" y="229.19" width="2.59" height="2.59" style="fill:#f5f5f5"></rect><rect x="329.04" y="233.53" width="2.59" height="2.59" style="fill:#f5f5f5"></rect><rect x="329.04" y="237.87" width="2.59" height="2.59" style="fill:#f5f5f5"></rect><rect x="329.04" y="242.21" width="2.59" height="2.59" style="fill:#f5f5f5"></rect><rect x="324.93" y="146.72" width="2.59" height="2.59" style="fill:#f5f5f5"></rect><rect x="324.93" y="151.06" width="2.59" height="2.59" style="fill:#f5f5f5"></rect><rect x="324.93" y="155.4" width="2.59" height="2.59" style="fill:#f5f5f5"></rect><rect x="324.93" y="159.74" width="2.59" height="2.59" style="fill:#f5f5f5"></rect><rect x="324.93" y="164.08" width="2.59" height="2.59" style="fill:#f5f5f5"></rect><rect x="324.93" y="168.42" width="2.59" height="2.59" style="fill:#f5f5f5"></rect><rect x="324.93" y="172.76" width="2.59" height="2.59" style="fill:#f5f5f5"></rect><rect x="324.93" y="177.11" width="2.59" height="2.59" style="fill:#f5f5f5"></rect><rect x="324.93" y="181.45" width="2.59" height="2.59" style="fill:#f5f5f5"></rect><rect x="324.93" y="185.79" width="2.59" height="2.59" style="fill:#f5f5f5"></rect><rect x="324.93" y="190.13" width="2.59" height="2.59" style="fill:#f5f5f5"></rect><rect x="324.93" y="194.47" width="2.59" height="2.59" style="fill:#f5f5f5"></rect><rect x="324.93" y="198.81" width="2.59" height="2.59" style="fill:#f5f5f5"></rect><rect x="324.93" y="203.15" width="2.59" height="2.59" style="fill:#f5f5f5"></rect><rect x="324.93" y="207.49" width="2.59" height="2.59" style="fill:#f5f5f5"></rect><rect x="324.93" y="211.83" width="2.59" height="2.59" style="fill:#f5f5f5"></rect><rect x="324.93" y="237.87" width="2.59" height="2.59" style="fill:#f5f5f5"></rect><rect x="324.93" y="242.21" width="2.59" height="2.59" style="fill:#f5f5f5"></rect><rect x="320.81" y="146.72" width="2.59" height="2.59" style="fill:#f5f5f5"></rect><rect x="320.81" y="151.06" width="2.59" height="2.59" style="fill:#f5f5f5"></rect><rect x="320.81" y="155.4" width="2.59" height="2.59" style="fill:#f5f5f5"></rect><rect x="320.81" y="159.74" width="2.59" height="2.59" style="fill:#f5f5f5"></rect><rect x="320.81" y="164.08" width="2.59" height="2.59" style="fill:#f5f5f5"></rect><rect x="320.81" y="168.42" width="2.59" height="2.59" style="fill:#f5f5f5"></rect><rect x="320.81" y="172.76" width="2.59" height="2.59" style="fill:#f5f5f5"></rect><rect x="320.81" y="177.11" width="2.59" height="2.59" style="fill:#f5f5f5"></rect><rect x="320.81" y="181.45" width="2.59" height="2.59" style="fill:#f5f5f5"></rect><rect x="320.81" y="185.79" width="2.59" height="2.59" style="fill:#f5f5f5"></rect><rect x="320.81" y="190.13" width="2.59" height="2.59" style="fill:#f5f5f5"></rect><rect x="320.81" y="194.47" width="2.59" height="2.59" style="fill:#f5f5f5"></rect><rect x="320.81" y="198.81" width="2.59" height="2.59" style="fill:#f5f5f5"></rect><rect x="320.81" y="203.15" width="2.59" height="2.59" style="fill:#f5f5f5"></rect><rect x="320.81" y="207.49" width="2.59" height="2.59" style="fill:#f5f5f5"></rect><rect x="320.81" y="211.83" width="2.59" height="2.59" style="fill:#f5f5f5"></rect><rect x="320.81" y="220.51" width="2.59" height="2.59" style="fill:#f5f5f5"></rect><rect x="320.81" y="224.85" width="2.59" height="2.59" style="fill:#f5f5f5"></rect><rect x="320.81" y="229.19" width="2.59" height="2.59" style="fill:#f5f5f5"></rect><rect x="320.81" y="233.53" width="2.59" height="2.59" style="fill:#f5f5f5"></rect><rect x="320.81" y="242.21" width="2.59" height="2.59" style="fill:#f5f5f5"></rect><rect x="249.08" y="177.11" width="2.59" height="2.59" style="fill:#f5f5f5"></rect><rect x="249.08" y="181.45" width="2.59" height="2.59" style="fill:#f5f5f5"></rect><rect x="249.08" y="185.79" width="2.59" height="2.59" style="fill:#f5f5f5"></rect><rect x="249.08" y="190.13" width="2.59" height="2.59" style="fill:#f5f5f5"></rect><rect x="249.08" y="194.47" width="2.59" height="2.59" style="fill:#f5f5f5"></rect><rect x="249.08" y="198.81" width="2.59" height="2.59" style="fill:#f5f5f5"></rect><rect x="249.08" y="203.15" width="2.59" height="2.59" style="fill:#f5f5f5"></rect><rect x="249.08" y="207.49" width="2.59" height="2.59" style="fill:#f5f5f5"></rect><rect x="249.08" y="211.83" width="2.59" height="2.59" style="fill:#f5f5f5"></rect><rect x="249.08" y="216.17" width="2.59" height="2.59" style="fill:#f5f5f5"></rect><rect x="249.08" y="220.51" width="2.59" height="2.59" style="fill:#f5f5f5"></rect><rect x="249.08" y="224.85" width="2.59" height="2.59" style="fill:#f5f5f5"></rect><rect x="249.08" y="229.19" width="2.59" height="2.59" style="fill:#f5f5f5"></rect><rect x="249.08" y="237.87" width="2.59" height="2.59" style="fill:#f5f5f5"></rect><rect x="249.08" y="242.21" width="2.59" height="2.59" style="fill:#f5f5f5"></rect><rect x="249.08" y="246.56" width="2.59" height="2.59" style="fill:#f5f5f5"></rect><rect x="249.08" y="250.9" width="2.59" height="2.59" style="fill:#f5f5f5"></rect><rect x="249.08" y="259.58" width="2.59" height="2.59" style="fill:#f5f5f5"></rect><rect x="249.08" y="263.92" width="2.59" height="2.59" style="fill:#f5f5f5"></rect><rect x="249.08" y="268.26" width="2.59" height="2.59" style="fill:#f5f5f5"></rect><rect x="244.97" y="177.11" width="2.59" height="2.59" style="fill:#f5f5f5"></rect><rect x="244.97" y="181.45" width="2.59" height="2.59" style="fill:#f5f5f5"></rect><rect x="244.97" y="185.79" width="2.59" height="2.59" style="fill:#f5f5f5"></rect><rect x="244.97" y="190.13" width="2.59" height="2.59" style="fill:#f5f5f5"></rect><rect x="244.97" y="194.47" width="2.59" height="2.59" style="fill:#f5f5f5"></rect><rect x="244.97" y="198.81" width="2.59" height="2.59" style="fill:#f5f5f5"></rect><rect x="244.97" y="203.15" width="2.59" height="2.59" style="fill:#f5f5f5"></rect><rect x="244.97" y="207.49" width="2.59" height="2.59" style="fill:#f5f5f5"></rect><rect x="244.97" y="211.83" width="2.59" height="2.59" style="fill:#f5f5f5"></rect><rect x="244.97" y="216.17" width="2.59" height="2.59" style="fill:#f5f5f5"></rect><rect x="244.97" y="220.51" width="2.59" height="2.59" style="fill:#f5f5f5"></rect><rect x="244.97" y="224.85" width="2.59" height="2.59" style="fill:#f5f5f5"></rect><rect x="244.97" y="229.19" width="2.59" height="2.59" style="fill:#f5f5f5"></rect><rect x="244.97" y="242.21" width="2.59" height="2.59" style="fill:#f5f5f5"></rect><rect x="244.97" y="246.56" width="2.59" height="2.59" style="fill:#f5f5f5"></rect><rect x="244.97" y="255.24" width="2.59" height="2.59" style="fill:#f5f5f5"></rect><rect x="244.97" y="259.58" width="2.59" height="2.59" style="fill:#f5f5f5"></rect><rect x="244.97" y="263.92" width="2.59" height="2.59" style="fill:#f5f5f5"></rect><rect x="244.97" y="268.26" width="2.59" height="2.59" style="fill:#f5f5f5"></rect><rect x="240.85" y="177.11" width="2.59" height="2.59" style="fill:#f5f5f5"></rect><rect x="240.85" y="181.45" width="2.59" height="2.59" style="fill:#f5f5f5"></rect><rect x="240.85" y="185.79" width="2.59" height="2.59" style="fill:#f5f5f5"></rect><rect x="240.85" y="190.13" width="2.59" height="2.59" style="fill:#f5f5f5"></rect><rect x="240.85" y="194.47" width="2.59" height="2.59" style="fill:#f5f5f5"></rect><rect x="240.85" y="198.81" width="2.59" height="2.59" style="fill:#f5f5f5"></rect><rect x="240.85" y="203.15" width="2.59" height="2.59" style="fill:#f5f5f5"></rect><rect x="240.85" y="207.49" width="2.59" height="2.59" style="fill:#f5f5f5"></rect><rect x="240.85" y="211.83" width="2.59" height="2.59" style="fill:#f5f5f5"></rect><rect x="240.85" y="216.17" width="2.59" height="2.59" style="fill:#f5f5f5"></rect><rect x="240.85" y="220.51" width="2.59" height="2.59" style="fill:#f5f5f5"></rect><rect x="240.85" y="224.85" width="2.59" height="2.59" style="fill:#f5f5f5"></rect><rect x="240.85" y="229.19" width="2.59" height="2.59" style="fill:#f5f5f5"></rect><rect x="240.85" y="233.53" width="2.59" height="2.59" style="fill:#f5f5f5"></rect><rect x="240.85" y="242.21" width="2.59" height="2.59" style="fill:#f5f5f5"></rect><rect x="240.85" y="250.9" width="2.59" height="2.59" style="fill:#f5f5f5"></rect><rect x="240.85" y="255.24" width="2.59" height="2.59" style="fill:#f5f5f5"></rect><rect x="240.85" y="259.58" width="2.59" height="2.59" style="fill:#f5f5f5"></rect><rect x="240.85" y="263.92" width="2.59" height="2.59" style="fill:#f5f5f5"></rect><rect x="240.85" y="268.26" width="2.59" height="2.59" style="fill:#f5f5f5"></rect><rect x="265.83" y="201.85" width="2.59" height="2.59" style="fill:#f5f5f5"></rect><rect x="265.83" y="206.2" width="2.59" height="2.59" style="fill:#f5f5f5"></rect><rect x="265.83" y="210.54" width="2.59" height="2.59" style="fill:#f5f5f5"></rect><rect x="265.83" y="214.88" width="2.59" height="2.59" style="fill:#f5f5f5"></rect><rect x="265.83" y="219.22" width="2.59" height="2.59" style="fill:#f5f5f5"></rect><rect x="265.83" y="223.56" width="2.59" height="2.59" style="fill:#f5f5f5"></rect><rect x="265.83" y="236.58" width="2.59" height="2.59" style="fill:#f5f5f5"></rect><rect x="265.83" y="240.92" width="2.59" height="2.59" style="fill:#f5f5f5"></rect><rect x="265.83" y="245.26" width="2.59" height="2.59" style="fill:#f5f5f5"></rect><rect x="265.83" y="249.6" width="2.59" height="2.59" style="fill:#f5f5f5"></rect><rect x="265.83" y="253.94" width="2.59" height="2.59" style="fill:#f5f5f5"></rect><rect x="265.83" y="258.28" width="2.59" height="2.59" style="fill:#f5f5f5"></rect><rect x="265.83" y="262.62" width="2.59" height="2.59" style="fill:#f5f5f5"></rect><rect x="261.72" y="201.85" width="2.59" height="2.59" style="fill:#f5f5f5"></rect><rect x="261.72" y="206.2" width="2.59" height="2.59" style="fill:#f5f5f5"></rect><rect x="261.72" y="210.54" width="2.59" height="2.59" style="fill:#f5f5f5"></rect><rect x="261.72" y="214.88" width="2.59" height="2.59" style="fill:#f5f5f5"></rect><rect x="261.72" y="219.22" width="2.59" height="2.59" style="fill:#f5f5f5"></rect><rect x="261.72" y="223.56" width="2.59" height="2.59" style="fill:#f5f5f5"></rect><rect x="261.72" y="236.58" width="2.59" height="2.59" style="fill:#f5f5f5"></rect><rect x="261.72" y="240.92" width="2.59" height="2.59" style="fill:#f5f5f5"></rect><rect x="261.72" y="245.26" width="2.59" height="2.59" style="fill:#f5f5f5"></rect><rect x="261.72" y="249.6" width="2.59" height="2.59" style="fill:#f5f5f5"></rect><rect x="261.72" y="253.94" width="2.59" height="2.59" style="fill:#f5f5f5"></rect><rect x="261.72" y="258.28" width="2.59" height="2.59" style="fill:#f5f5f5"></rect><rect x="261.72" y="266.96" width="2.59" height="2.59" style="fill:#f5f5f5"></rect><rect x="125.1" y="182.74" width="2.59" height="2.59" style="fill:#f5f5f5"></rect><rect x="125.1" y="187.08" width="2.59" height="2.59" style="fill:#f5f5f5"></rect><rect x="125.1" y="191.42" width="2.59" height="2.59" style="fill:#f5f5f5"></rect><rect x="125.1" y="195.76" width="2.59" height="2.59" style="fill:#f5f5f5"></rect><rect x="125.1" y="200.1" width="2.59" height="2.59" style="fill:#f5f5f5"></rect><rect x="125.1" y="204.44" width="2.59" height="2.59" style="fill:#f5f5f5"></rect><rect x="125.1" y="208.78" width="2.59" height="2.59" style="fill:#f5f5f5"></rect><rect x="125.1" y="213.12" width="2.59" height="2.59" style="fill:#f5f5f5"></rect><rect x="125.1" y="217.47" width="2.59" height="2.59" style="fill:#f5f5f5"></rect><rect x="125.1" y="221.81" width="2.59" height="2.59" style="fill:#f5f5f5"></rect><rect x="125.1" y="226.15" width="2.59" height="2.59" style="fill:#f5f5f5"></rect><rect x="125.1" y="234.83" width="2.59" height="2.59" style="fill:#f5f5f5"></rect><rect x="125.1" y="239.17" width="2.59" height="2.59" style="fill:#f5f5f5"></rect><rect x="125.1" y="243.51" width="2.59" height="2.59" style="fill:#f5f5f5"></rect><rect x="125.1" y="247.85" width="2.59" height="2.59" style="fill:#f5f5f5"></rect><rect x="125.1" y="252.19" width="2.59" height="2.59" style="fill:#f5f5f5"></rect><rect x="125.1" y="256.53" width="2.59" height="2.59" style="fill:#f5f5f5"></rect><rect x="125.1" y="260.87" width="2.59" height="2.59" style="fill:#f5f5f5"></rect><rect x="125.1" y="265.21" width="2.59" height="2.59" style="fill:#f5f5f5"></rect><rect x="120.99" y="182.74" width="2.59" height="2.59" style="fill:#f5f5f5"></rect><rect x="120.99" y="187.08" width="2.59" height="2.59" style="fill:#f5f5f5"></rect><rect x="120.99" y="191.42" width="2.59" height="2.59" style="fill:#f5f5f5"></rect><rect x="120.99" y="195.76" width="2.59" height="2.59" style="fill:#f5f5f5"></rect><rect x="120.99" y="200.1" width="2.59" height="2.59" style="fill:#f5f5f5"></rect><rect x="120.99" y="204.44" width="2.59" height="2.59" style="fill:#f5f5f5"></rect><rect x="120.99" y="208.78" width="2.59" height="2.59" style="fill:#f5f5f5"></rect><rect x="120.99" y="213.12" width="2.59" height="2.59" style="fill:#f5f5f5"></rect><rect x="120.99" y="217.47" width="2.59" height="2.59" style="fill:#f5f5f5"></rect><rect x="120.99" y="221.81" width="2.59" height="2.59" style="fill:#f5f5f5"></rect><rect x="120.99" y="226.15" width="2.59" height="2.59" style="fill:#f5f5f5"></rect><rect x="120.99" y="230.49" width="2.59" height="2.59" style="fill:#f5f5f5"></rect><rect x="120.99" y="234.83" width="2.59" height="2.59" style="fill:#f5f5f5"></rect><rect x="120.99" y="239.17" width="2.59" height="2.59" style="fill:#f5f5f5"></rect><rect x="120.99" y="243.51" width="2.59" height="2.59" style="fill:#f5f5f5"></rect><rect x="120.99" y="247.85" width="2.59" height="2.59" style="fill:#f5f5f5"></rect><rect x="120.99" y="252.19" width="2.59" height="2.59" style="fill:#f5f5f5"></rect><rect x="120.99" y="256.53" width="2.59" height="2.59" style="fill:#f5f5f5"></rect><rect x="120.99" y="260.87" width="2.59" height="2.59" style="fill:#f5f5f5"></rect><rect x="120.99" y="265.21" width="2.59" height="2.59" style="fill:#f5f5f5"></rect><rect x="145.36" y="199.65" width="2.59" height="2.59" style="fill:#f5f5f5"></rect><rect x="145.36" y="203.99" width="2.59" height="2.59" style="fill:#f5f5f5"></rect><rect x="145.36" y="208.33" width="2.59" height="2.59" style="fill:#f5f5f5"></rect><rect x="145.36" y="212.67" width="2.59" height="2.59" style="fill:#f5f5f5"></rect><rect x="145.36" y="217.01" width="2.59" height="2.59" style="fill:#f5f5f5"></rect><rect x="145.36" y="221.35" width="2.59" height="2.59" style="fill:#f5f5f5"></rect><rect x="145.36" y="225.69" width="2.59" height="2.59" style="fill:#f5f5f5"></rect><rect x="145.36" y="230.03" width="2.59" height="2.59" style="fill:#f5f5f5"></rect><rect x="145.36" y="234.37" width="2.59" height="2.59" style="fill:#f5f5f5"></rect><rect x="145.36" y="238.71" width="2.59" height="2.59" style="fill:#f5f5f5"></rect><rect x="141.25" y="199.65" width="2.59" height="2.59" style="fill:#f5f5f5"></rect><rect x="141.25" y="203.99" width="2.59" height="2.59" style="fill:#f5f5f5"></rect><rect x="141.25" y="208.33" width="2.59" height="2.59" style="fill:#f5f5f5"></rect><rect x="141.25" y="212.67" width="2.59" height="2.59" style="fill:#f5f5f5"></rect><rect x="141.25" y="217.01" width="2.59" height="2.59" style="fill:#f5f5f5"></rect><rect x="141.25" y="221.35" width="2.59" height="2.59" style="fill:#f5f5f5"></rect><rect x="141.25" y="225.69" width="2.59" height="2.59" style="fill:#f5f5f5"></rect><rect x="141.25" y="230.03" width="2.59" height="2.59" style="fill:#f5f5f5"></rect><rect x="141.25" y="234.37" width="2.59" height="2.59" style="fill:#f5f5f5"></rect><rect x="163.96" y="69.7" width="4.35" height="207.31" style="fill:#f5f5f5"></rect><rect x="245.71" y="69.7" width="4.35" height="207.31" style="fill:#f5f5f5"></rect><rect x="327.46" y="69.7" width="4.35" height="207.31" style="fill:#f5f5f5"></rect><path d="M264.07,292.43h13.25v-.88c0-1.73-1.94-3.11-4.25-3l-5.19.21c-2.14.09-3.81,1.41-3.81,3Z" style="fill:#f0f0f0"></path><path d="M290.31,292.88h17.54l2.79-24.48a1.72,1.72,0,0,0-1.72-1.64H297.17a1.72,1.72,0,0,0-1.72,1.64Z" style="fill:#e6e6e6"></path><path d="M263.54,230.75h4.38L272.84,277h-4.38a1.5,1.5,0,0,1-1.45-1.32l-4.64-43.62A1.16,1.16,0,0,1,263.54,230.75Z" style="fill:#e6e6e6"></path><path d="M270.32,277h65.61a1.16,1.16,0,0,0,1.17-1.32l-4.64-43.62a1.49,1.49,0,0,0-1.45-1.31H265.39a1.16,1.16,0,0,0-1.17,1.31l4.64,43.62A1.5,1.5,0,0,0,270.32,277Z" style="fill:#ebebeb"></path><path d="M271.54,272.72h61.88a1,1,0,0,0,1-1.14l-4.05-38.06a1.3,1.3,0,0,0-1.27-1.14H267.25a1,1,0,0,0-1,1.14l4,38.06A1.31,1.31,0,0,0,271.54,272.72Z" style="fill:#fafafa"></path><path d="M289.65,291h21.57a1,1,0,0,1,.95.95h0a.94.94,0,0,1-.95.95H289.65a1,1,0,0,1-.95-.95h0A1,1,0,0,1,289.65,291Z" style="fill:#e6e6e6"></path><rect x="236.53" y="292.33" width="53.42" height="8.06" transform="translate(526.47 592.72) rotate(180)" style="fill:#e6e6e6"></rect><path d="M385.38,382.33h1.33a.32.32,0,0,0,.31-.3l2.1-81.64H383L385.07,382A.3.3,0,0,0,385.38,382.33Z" style="fill:#e6e6e6"></path><polygon points="432.92 382.33 436 382.33 427.31 300.39 421.14 300.39 432.92 382.33" style="fill:#f0f0f0"></polygon><polygon points="234.44 382.33 234.44 382.33 246.25 300.39 240.09 300.39 231.39 382.33 234.44 382.33" style="fill:#e6e6e6"></polygon><rect x="274.71" y="292.33" width="156.16" height="8.06" transform="translate(705.58 592.72) rotate(180)" style="fill:#f5f5f5"></rect><polygon points="279.58 382.33 283.12 382.33 283.12 382.33 284.43 300.39 278.27 300.39 279.58 382.33" style="fill:#f0f0f0"></polygon><path d="M329.47,290.88h1.63a.31.31,0,0,0,.32-.31v-1.73a.31.31,0,0,0-.32-.31h-1.17a.3.3,0,0,0-.3.23l-.47,1.73A.31.31,0,0,0,329.47,290.88Z" style="fill:#f5f5f5"></path><path d="M327.21,290.88h1.63a.31.31,0,0,0,.31-.31v-1.73a.31.31,0,0,0-.31-.31h-1.17a.31.31,0,0,0-.31.23l-.46,1.73A.31.31,0,0,0,327.21,290.88Z" style="fill:#f5f5f5"></path><path d="M324.94,290.88h1.64a.31.31,0,0,0,.31-.31v-1.73a.31.31,0,0,0-.31-.31h-1.17a.31.31,0,0,0-.31.23l-.46,1.73A.31.31,0,0,0,324.94,290.88Z" style="fill:#f5f5f5"></path><path d="M322.68,290.88h1.64a.31.31,0,0,0,.31-.31v-1.73a.31.31,0,0,0-.31-.31h-1.18a.31.31,0,0,0-.3.23l-.46,1.73A.31.31,0,0,0,322.68,290.88Z" style="fill:#f5f5f5"></path><path d="M320.42,290.88h1.64a.31.31,0,0,0,.31-.31v-1.73a.31.31,0,0,0-.31-.31h-1.18a.31.31,0,0,0-.3.23l-.46,1.73A.31.31,0,0,0,320.42,290.88Z" style="fill:#f5f5f5"></path><path d="M318.16,290.88h1.64a.31.31,0,0,0,.31-.31v-1.73a.31.31,0,0,0-.31-.31h-1.18a.31.31,0,0,0-.3.23l-.46,1.73A.31.31,0,0,0,318.16,290.88Z" style="fill:#f5f5f5"></path><path d="M315.9,290.88h1.63a.31.31,0,0,0,.32-.31v-1.73a.31.31,0,0,0-.32-.31h-1.17a.3.3,0,0,0-.3.23l-.46,1.73A.3.3,0,0,0,315.9,290.88Z" style="fill:#f5f5f5"></path><path d="M313.64,290.88h1.63a.31.31,0,0,0,.32-.31v-1.73a.31.31,0,0,0-.32-.31H314.1a.3.3,0,0,0-.3.23l-.46,1.73A.3.3,0,0,0,313.64,290.88Z" style="fill:#f5f5f5"></path><path d="M311.38,290.88H313a.31.31,0,0,0,.31-.31v-1.73a.31.31,0,0,0-.31-.31h-1.17a.3.3,0,0,0-.3.23l-.47,1.73A.31.31,0,0,0,311.38,290.88Z" style="fill:#f5f5f5"></path><path d="M309.11,290.88h1.64a.31.31,0,0,0,.31-.31v-1.73a.31.31,0,0,0-.31-.31h-1.17a.31.31,0,0,0-.31.23l-.46,1.73A.31.31,0,0,0,309.11,290.88Z" style="fill:#f5f5f5"></path><path d="M306.85,290.88h1.64a.31.31,0,0,0,.31-.31v-1.73a.31.31,0,0,0-.31-.31h-1.18a.31.31,0,0,0-.3.23l-.46,1.73A.31.31,0,0,0,306.85,290.88Z" style="fill:#f5f5f5"></path><path d="M304.59,290.88h1.64a.31.31,0,0,0,.31-.31v-1.73a.31.31,0,0,0-.31-.31h-1.18a.31.31,0,0,0-.3.23l-.46,1.73A.31.31,0,0,0,304.59,290.88Z" style="fill:#f5f5f5"></path><path d="M302.33,290.88H304a.31.31,0,0,0,.31-.31v-1.73a.31.31,0,0,0-.31-.31h-1.18a.31.31,0,0,0-.3.23l-.46,1.73A.31.31,0,0,0,302.33,290.88Z" style="fill:#f5f5f5"></path><path d="M300.07,290.88h1.64a.31.31,0,0,0,.31-.31v-1.73a.31.31,0,0,0-.31-.31h-1.18a.31.31,0,0,0-.3.23l-.46,1.73A.3.3,0,0,0,300.07,290.88Z" style="fill:#f5f5f5"></path><path d="M297.81,290.88h1.63a.31.31,0,0,0,.32-.31v-1.73a.31.31,0,0,0-.32-.31h-1.17a.3.3,0,0,0-.3.23l-.46,1.73A.3.3,0,0,0,297.81,290.88Z" style="fill:#f5f5f5"></path><rect x="296.16" y="289.71" width="36.59" height="2.72" transform="translate(628.91 582.14) rotate(180)" style="fill:#ebebeb"></rect><path d="M360.67,317.44h57.78a0,0,0,0,1,0,0V320a5,5,0,0,1-5,5H365.67a5,5,0,0,1-5-5v-2.51A0,0,0,0,1,360.67,317.44Z" transform="translate(779.13 642.4) rotate(180)" style="fill:#e0e0e0"></path><path d="M416.58,367.72l-18.52-1.82v-26h-7.34v26l-18.59,1.83a3.6,3.6,0,0,0-3.25,3.59v2.78h50.95v-2.78A3.6,3.6,0,0,0,416.58,367.72Z" style="fill:#e0e0e0"></path><path d="M375.64,377.54a4.8,4.8,0,1,1-4.8-4.8A4.79,4.79,0,0,1,375.64,377.54Z" style="fill:#e0e0e0"></path><circle cx="417.87" cy="377.54" r="4.8" style="fill:#e0e0e0"></circle><path d="M389.46,322.3h9.87a0,0,0,0,1,0,0v19a4.13,4.13,0,0,1-4.13,4.13h-1.6a4.13,4.13,0,0,1-4.13-4.13v-19A0,0,0,0,1,389.46,322.3Z" style="fill:#e6e6e6"></path><path d="M384.64,317.93a319.6,319.6,0,0,0,9.54-67.82A9.52,9.52,0,0,1,403.7,241h17.08a9.54,9.54,0,0,1,9.54,9.48c.06,15.56-1,47.38-9.8,73.23L388,322.46A3.61,3.61,0,0,1,384.64,317.93Z" style="fill:#ebebeb"></path><path d="M389.24,321.93a335.9,335.9,0,0,0,10.22-70.71,8.78,8.78,0,0,1,8.78-8.45H424a8.79,8.79,0,0,1,8.79,8.75c.06,14.35-.94,46.56-9,70.41Z" style="fill:#e6e6e6"></path><path d="M396,299.24s-18.73-3.78-36.8-1.95,8.5,25.45,8.5,25.45h3.73s-14.08-15-13.3-18.7,36.26,1.19,36.26,1.19Z" style="fill:#e6e6e6"></path><path d="M423.75,321.93H393.09a336.41,336.41,0,0,0,10.23-70.71,8.78,8.78,0,0,1,8.78-8.45H424a8.79,8.79,0,0,1,8.79,8.75C432.85,265.87,431.85,298.08,423.75,321.93Z" style="fill:#e0e0e0"></path><path d="M360.49,321.2h62a1.88,1.88,0,0,1,1.87,1.88h0A1.87,1.87,0,0,1,422.5,325h-62a1.88,1.88,0,0,1-1.88-1.87h0A1.88,1.88,0,0,1,360.49,321.2Z" style="fill:#e0e0e0"></path><path d="M88.49,351c0-.34-1.16-34-6.63-39.33s-11.44-.19-11.7,0l-.54-.66c.06-.06,7-5.69,12.84,0,5.72,5.57,6.84,38.52,6.88,39.92Z" style="fill:#e0e0e0"></path><path d="M89,357.57c0-.4-3.75-40.41,10.87-57.18l.64.56c-14.37,16.49-10.7,56.14-10.66,56.54Z" style="fill:#e0e0e0"></path><path d="M88.42,353.34l-.86-.06c0-.45,2.86-45.48-7.86-55.34l.58-.63C91.3,307.44,88.54,351.47,88.42,353.34Z" style="fill:#e0e0e0"></path><path d="M89.81,353.31H89c0-1.24.36-30.42,8.65-35.17a5.84,5.84,0,0,1,5.36-.52c5,2.07,7.49,11,7.6,11.37l-.83.22c0-.09-2.48-8.89-7.1-10.8a5.08,5.08,0,0,0-4.61.47C90.16,323.39,89.81,353,89.81,353.31Z" style="fill:#e0e0e0"></path><path d="M86.58,353.33l-.85,0c0-.23,1.25-23.06-4.91-31.1-1.49-1.95-3.11-2.88-4.83-2.76-4,.28-7.42,6.19-7.45,6.25l-.75-.42c.15-.26,3.65-6.37,8.14-6.69,2-.14,3.89.9,5.57,3.1C87.85,330,86.64,352.38,86.58,353.33Z" style="fill:#e0e0e0"></path><path d="M87.93,356.44c-.16-2.22-4-54.34,2.77-63.52l.69.51c-6.61,8.93-2.64,62.4-2.6,62.94Z" style="fill:#e0e0e0"></path><path d="M104.8,322.9s-4.07,1.5-2.86,5.05,14.1,9.38,14.1,9.38,5.39-4.95.44-13S104.91,320.36,104.8,322.9Z" style="fill:#ebebeb"></path><path d="M87.1,316.15s4.33-.18,4.58,3.56-9.4,14.08-9.4,14.08S75.4,331.3,76.88,322,86,313.85,87.1,316.15Z" style="fill:#ebebeb"></path><path d="M83.42,298.25s2.89-.31,2.66-2.07-11.24-6.29-17.74,1c0,0,4.16,7.14,10.18,7.24S83.42,298.25,83.42,298.25Z" style="fill:#ebebeb"></path><path d="M88.81,294s-2.62,1.26-3.35-.36,6.21-11.29,15.6-8.5c0,0,.25,8.26-4.8,11.52S88.81,294,88.81,294Z" style="fill:#ebebeb"></path><path d="M75.12,321.47s2-1.61-.16-2.39-12.72-.57-12.83,9.9c0,0,12.31,2,13.83-1.94S75.12,321.47,75.12,321.47Z" style="fill:#ebebeb"></path><path d="M100.22,298s-2-1.61.16-2.4,12.72-.56,12.83,9.91c0,0-12.31,2.05-13.83-1.94S100.22,298,100.22,298Z" style="fill:#ebebeb"></path><path d="M93.71,306.43s-.17-2,1.41-1.2,7.09,6.72,1.38,12.36c0,0-7.69-5.7-6.3-8.66S93.71,306.43,93.71,306.43Z" style="fill:#ebebeb"></path><path d="M73.33,309.22s1.2-1.57-.55-1.76-9.58,1.9-7.76,9.71c0,0,9.55-.71,10-4S73.33,309.22,73.33,309.22Z" style="fill:#ebebeb"></path><polygon points="105.57 382.33 72.83 382.33 69.3 346.49 109.1 346.49 105.57 382.33" style="fill:#f0f0f0"></polygon><rect x="67.55" y="342.54" width="43.29" height="7.91" style="fill:#e6e6e6"></rect></g><g id="freepik--Shadow--inject-5"><ellipse id="freepik--path--inject-5" cx="250" cy="416.24" rx="193.89" ry="11.32" style="fill:#f5f5f5"></ellipse></g><g id="freepik--Elements--inject-5"><polygon points="310.91 418.43 251.99 418.43 246.85 372.23 305.77 372.23 310.91 418.43" style="fill:#B99B5F"></polygon><polygon points="254.59 415.4 250.25 375.26 303.17 375.26 307.5 415.4 254.59 415.4" style="fill:#fff;opacity:0.2"></polygon><polygon points="255.45 414.38 251.39 376.28 302.31 376.28 306.37 414.38 255.45 414.38" style="fill:#fff;opacity:0.7000000000000001"></polygon><polygon points="301.35 377.57 260.73 410.34 260.73 380.32 301.35 377.57" style="fill:#B99B5F"></polygon><polygon points="285.65 391.89 300.03 411.27 269.43 405.01 285.65 391.89" style="fill:#fff;opacity:0.4"></polygon><polygon points="269.43 372.2 283.15 418.43 251.99 418.43 246.85 372.23 269.43 372.2" style="opacity:0.1"></polygon><rect x="178.75" y="368.63" width="30.22" height="7.13" style="fill:#B99B5F"></rect><rect x="178.75" y="368.63" width="30.22" height="7.13" style="fill:#fff;isolation:isolate;opacity:0.7000000000000001"></rect><path d="M225.17,372.19a4.22,4.22,0,0,1-4.22,4.22H197.28v-1.54h3.59a2.68,2.68,0,1,0,0-5.35h-3.59V368H221A4.22,4.22,0,0,1,225.17,372.19Z" style="fill:#B99B5F"></path><g style="isolation:isolate;opacity:0.4"><path d="M225.17,372.19a4.22,4.22,0,0,1-4.22,4.22H197.28v-1.54h3.59a2.68,2.68,0,1,0,0-5.35h-3.59V368H221A4.22,4.22,0,0,1,225.17,372.19Z" style="fill:#fff"></path></g><path d="M205.1,372.19a4.2,4.2,0,0,1-2,3.57,4.07,4.07,0,0,1-2.23.65H177.2v-1.54h23.68a2.68,2.68,0,0,0,0-5.35H177.2V368h23.68a4.07,4.07,0,0,1,2.23.65A4.2,4.2,0,0,1,205.1,372.19Z" style="fill:#B99B5F"></path><g style="isolation:isolate;opacity:0.2"><path d="M205.1,372.19a4.2,4.2,0,0,1-2,3.57,4.07,4.07,0,0,1-2.23.65H177.2v-1.54h23.68a2.68,2.68,0,0,0,0-5.35H177.2V368h23.68a4.07,4.07,0,0,1,2.23.65A4.2,4.2,0,0,1,205.1,372.19Z" style="fill:#fff"></path></g><rect x="192.4" y="377.07" width="30.23" height="7.12" style="fill:#B99B5F"></rect><rect x="192.4" y="377.07" width="30.23" height="7.12" style="fill:#fff;isolation:isolate;opacity:0.7000000000000001"></rect><path d="M204.09,376.41V378H200.5a2.67,2.67,0,1,0,0,5.34h3.59v1.55H180.42a4.22,4.22,0,0,1,0-8.44Z" style="fill:#263238"></path><g style="opacity:0.2"><path d="M204.09,376.41V378H200.5a2.67,2.67,0,1,0,0,5.34h3.59v1.55H180.42a4.22,4.22,0,0,1,0-8.44Z" style="fill:#fff"></path></g><path d="M197.82,380.63a2.68,2.68,0,0,0,2.68,2.67h23.67v1.55H200.5a4.16,4.16,0,0,1-2.26-.66,4.21,4.21,0,0,1,0-7.12,4.16,4.16,0,0,1,2.26-.66h23.67V378H200.5A2.68,2.68,0,0,0,197.82,380.63Z" style="fill:#263238"></path><g style="isolation:isolate;opacity:0.4"><path d="M197.82,380.63a2.68,2.68,0,0,0,2.68,2.67h23.67v1.55H200.5a4.16,4.16,0,0,1-2.26-.66,4.21,4.21,0,0,1,0-7.12,4.16,4.16,0,0,1,2.26-.66h23.67V378H200.5A2.68,2.68,0,0,0,197.82,380.63Z" style="fill:#fff"></path></g><rect x="179.75" y="385.5" width="30.22" height="7.13" style="fill:#B99B5F"></rect><rect x="179.75" y="385.5" width="30.22" height="7.13" style="fill:#fff;isolation:isolate;opacity:0.7000000000000001"></rect><path d="M206.1,389.06a4.2,4.2,0,0,1-2,3.57,3.74,3.74,0,0,1-1.1.49,2.09,2.09,0,0,1-.34.08,4.15,4.15,0,0,1-.79.08H178.2v-1.54h23.68a2.68,2.68,0,0,0,0-5.35H178.2v-1.54h23.68a4.07,4.07,0,0,1,2.23.65A4.2,4.2,0,0,1,206.1,389.06Z" style="fill:#B99B5F"></path><path d="M226.17,389.06a4.21,4.21,0,0,1-3.43,4.14,4.07,4.07,0,0,1-.79.08H198.28v-1.54h3.59a2.68,2.68,0,1,0,0-5.35h-3.59v-1.54H222A4.22,4.22,0,0,1,226.17,389.06Z" style="fill:#B99B5F"></path><g style="isolation:isolate;opacity:0.4"><path d="M206.1,389.06a4.2,4.2,0,0,1-2,3.57,3.74,3.74,0,0,1-1.1.49,2.09,2.09,0,0,1-.34.08,4.15,4.15,0,0,1-.79.08H178.2v-1.54h23.68a2.68,2.68,0,0,0,0-5.35H178.2v-1.54h23.68a4.07,4.07,0,0,1,2.23.65A4.2,4.2,0,0,1,206.1,389.06Z" style="fill:#fff"></path></g><rect x="179.75" y="393.78" width="30.22" height="7.12" style="fill:#B99B5F"></rect><rect x="179.75" y="393.78" width="30.22" height="7.12" style="fill:#fff;isolation:isolate;opacity:0.7000000000000001"></rect><path d="M226.17,397.34a4.22,4.22,0,0,1-4.22,4.22H198.28V400h3.59a2.68,2.68,0,1,0,0-5.35h-3.59v-1.55H222a4.07,4.07,0,0,1,.79.08A4.23,4.23,0,0,1,226.17,397.34Z" style="fill:#B99B5F"></path><g style="isolation:isolate;opacity:0.4"><path d="M226.17,397.34a4.22,4.22,0,0,1-4.22,4.22H198.28V400h3.59a2.68,2.68,0,1,0,0-5.35h-3.59v-1.55H222a4.07,4.07,0,0,1,.79.08A4.23,4.23,0,0,1,226.17,397.34Z" style="fill:#fff"></path></g><path d="M206.1,397.34a4.2,4.2,0,0,1-2,3.56,4.12,4.12,0,0,1-2.25.66H178.2V400h23.68a2.68,2.68,0,0,0,0-5.35H178.2v-1.55h23.68a4.15,4.15,0,0,1,.79.08,2.09,2.09,0,0,1,.34.08,4,4,0,0,1,1.12.5A4.23,4.23,0,0,1,206.1,397.34Z" style="fill:#B99B5F"></path><g style="isolation:isolate;opacity:0.2"><path d="M206.1,397.34a4.2,4.2,0,0,1-2,3.56,4.12,4.12,0,0,1-2.25.66H178.2V400h23.68a2.68,2.68,0,0,0,0-5.35H178.2v-1.55h23.68a4.15,4.15,0,0,1,.79.08,2.09,2.09,0,0,1,.34.08,4,4,0,0,1,1.12.5A4.23,4.23,0,0,1,206.1,397.34Z" style="fill:#fff"></path></g><rect x="176.74" y="402.22" width="30.23" height="7.12" style="fill:#B99B5F"></rect><rect x="176.74" y="402.22" width="30.23" height="7.12" style="fill:#fff;isolation:isolate;opacity:0.7000000000000001"></rect><path d="M223.17,405.78A4.22,4.22,0,0,1,219,410H195.28v-1.54h3.59a2.68,2.68,0,1,0,0-5.35h-3.59v-1.54H219A4.22,4.22,0,0,1,223.17,405.78Z" style="fill:#263238"></path><g style="opacity:0.2"><path d="M223.17,405.78A4.22,4.22,0,0,1,219,410H195.28v-1.54h3.59a2.68,2.68,0,1,0,0-5.35h-3.59v-1.54H219A4.22,4.22,0,0,1,223.17,405.78Z" style="fill:#fff"></path></g><path d="M203.09,405.78a4.19,4.19,0,0,1-2,3.56,4.13,4.13,0,0,1-2.23.65H175.2v-1.54h23.68a2.68,2.68,0,0,0,0-5.35H175.2v-1.54h23.68a4.12,4.12,0,0,1,2.25.66A4.21,4.21,0,0,1,203.09,405.78Z" style="fill:#263238"></path><g style="isolation:isolate;opacity:0.4"><path d="M203.09,405.78a4.19,4.19,0,0,1-2,3.56,4.13,4.13,0,0,1-2.23.65H175.2v-1.54h23.68a2.68,2.68,0,0,0,0-5.35H175.2v-1.54h23.68a4.12,4.12,0,0,1,2.25.66A4.21,4.21,0,0,1,203.09,405.78Z" style="fill:#fff"></path></g><rect x="193.4" y="410.65" width="30.23" height="7.12" style="fill:#B99B5F"></rect><rect x="193.4" y="410.65" width="30.23" height="7.12" style="fill:#fff;isolation:isolate;opacity:0.7000000000000001"></rect><path d="M198.82,414.21a2.68,2.68,0,0,0,2.68,2.68h23.67v1.54H201.5a4.16,4.16,0,0,1-2.26-.66,4.21,4.21,0,0,1,0-7.12,4.15,4.15,0,0,1,2.25-.66h23.67v1.55H201.5A2.68,2.68,0,0,0,198.82,414.21Z" style="fill:#B99B5F"></path><path d="M205.1,410v1.55h-3.6a2.67,2.67,0,0,0-2.67,2.67,2.7,2.7,0,0,0,.61,1.71,2.66,2.66,0,0,0,2.06,1h3.6v1.54H181.42a4.22,4.22,0,1,1,0-8.44Z" style="fill:#B99B5F"></path><g style="isolation:isolate;opacity:0.4"><path d="M198.82,414.21a2.68,2.68,0,0,0,2.68,2.68h23.67v1.54H201.5a4.16,4.16,0,0,1-2.26-.66,4.21,4.21,0,0,1,0-7.12,4.15,4.15,0,0,1,2.25-.66h23.67v1.55H201.5A2.68,2.68,0,0,0,198.82,414.21Z" style="fill:#fff"></path></g><path d="M222,401.56h-3a4.22,4.22,0,1,1,0,8.43h6.22v1.55h-1.54v5.35h1.54v1.54H207.52V368H221a4.22,4.22,0,1,1,0,8.43h3.22V378h-1.54v5.34h1.54v1.55H222a4.21,4.21,0,0,1,.79,8.35,4.22,4.22,0,0,1-.79,8.36Z" style="opacity:0.2"></path><path d="M193.94,394.67a39.69,39.69,0,0,1-.21,5.35c0,.29,0,.58-.09.88s0,.43-.09.66-.05.44-.09.66-.09.58-.14.88a50.58,50.58,0,0,1-1.22,5.35c-.08.29-.16.59-.26.89s-.13.43-.2.65a65.16,65.16,0,0,1-3.32,8.44h-6.9a4.22,4.22,0,1,1,0-8.44H175.2v-1.54h1.54V403.1H175.2v-1.54h3V400h1.55v-5.35H178.2v-2.93h1.55v-5.35H178.2v-1.54h2.22a4.22,4.22,0,0,1,0-8.44H177.2v-1.54h1.55v-1.5a14.62,14.62,0,0,1,6.65,1.5,11,11,0,0,1,1.44.89,9.37,9.37,0,0,1,.79.65,7.12,7.12,0,0,1,.69.66,23.71,23.71,0,0,1,4,7.78c.07.21.14.43.2.65s.18.58.25.89a32.94,32.94,0,0,1,1,5.35c0,.29.06.59.08.89s0,.33,0,.49,0,.1,0,.16l0,.5C193.92,394.07,193.94,394.37,193.94,394.67Z" style="opacity:0.2"></path><polygon points="273.46 418.43 214.54 418.43 204.4 342.21 263.31 342.21 273.46 418.43" style="fill:#263238"></polygon><polygon points="217.13 415.4 207.8 345.25 260.72 345.25 270.05 415.4 217.13 415.4" style="fill:#fff;opacity:0.2"></polygon><polygon points="218 414.38 208.93 346.26 259.85 346.26 268.92 414.38 218 414.38" style="fill:#B99B5F"></polygon><path d="M214.56,346.26l4.28,32.15c2.29,17.17,17.88,31.09,34.84,31.09h0l-8.42-63.24Z" style="fill:#B99B5F"></path><path d="M214.56,346.26l4.28,32.15c2.29,17.17,17.88,31.09,34.84,31.09h0l-8.42-63.24Z" style="fill:#fff;opacity:0.6000000000000001"></path><polygon points="237.8 373.96 224.95 373.96 223.22 360.94 236.07 360.94 237.8 373.96" style="fill:#B99B5F"></polygon><polygon points="237.8 373.96 224.95 373.96 223.22 360.94 236.07 360.94 237.8 373.96" style="fill:#fff;opacity:0.2"></polygon><polygon points="240.21 363.79 222.73 392.58 243.62 400.3 240.21 363.79" style="fill:#B99B5F"></polygon><polygon points="240.21 363.79 222.73 392.58 243.62 400.3 240.21 363.79" style="fill:#fff;opacity:0.4"></polygon><path d="M256.55,391a7.11,7.11,0,0,1-7.13,8.35,9.79,9.79,0,0,1-9.36-8.35,7.11,7.11,0,0,1,7.14-8.35A9.78,9.78,0,0,1,256.55,391Z" style="fill:#B99B5F"></path><path d="M251.18,359.05c.22,1.66-2.46,3-6,3s-6.58-1.35-6.8-3,2.47-3,6-3S251,357.39,251.18,359.05Z" style="fill:#B99B5F"></path><path d="M256.55,391a7.11,7.11,0,0,1-7.13,8.35,9.79,9.79,0,0,1-9.36-8.35,7.11,7.11,0,0,1,7.14-8.35A9.78,9.78,0,0,1,256.55,391Z" style="fill:#fff;opacity:0.2"></path><path d="M251.18,359.05c.22,1.66-2.46,3-6,3s-6.58-1.35-6.8-3,2.47-3,6-3S251,357.39,251.18,359.05Z" style="fill:#B99B5F"></path><path d="M251.18,359.05c.22,1.66-2.46,3-6,3s-6.58-1.35-6.8-3,2.47-3,6-3S251,357.39,251.18,359.05Z" style="fill:#fff;opacity:0.4"></path><ellipse cx="162.08" cy="389.93" rx="31.22" ry="26.24" transform="translate(-216.56 202.99) rotate(-41.15)" style="fill:#263238"></ellipse><ellipse cx="162.08" cy="389.93" rx="13.15" ry="11.05" transform="translate(-216.56 202.99) rotate(-41.15)" style="fill:#fff;isolation:isolate;opacity:0.6000000000000001"></ellipse><path d="M167.79,389.93a7.06,7.06,0,0,1-6.7,5.66,4.65,4.65,0,0,1-4.72-5.66,7.06,7.06,0,0,1,6.7-5.66A4.65,4.65,0,0,1,167.79,389.93Z" style="isolation:isolate;opacity:0.2"></path><polygon points="163.88 358.96 153.49 418.43 93.53 418.43 93.54 418.38 97.97 393.03 103.92 358.96 163.88 358.96" style="fill:#B99B5F"></polygon><polygon points="139.7 363.33 126.57 363.33 126.79 362.06 139.92 362.06 139.7 363.33" style="isolation:isolate;opacity:0.2"></polygon><polygon points="130.52 415.9 117.38 415.9 117.6 414.63 130.74 414.63 130.52 415.9" style="isolation:isolate;opacity:0.2"></polygon><ellipse cx="128.19" cy="387.59" rx="16.43" ry="13.82" transform="translate(-237.29 205.69) rotate(-45.24)" style="fill:#fff;isolation:isolate;opacity:0.6000000000000001"></ellipse><path d="M134.78,380.65l-3.54-2.08-1.38-.81-1.09,6.34-1.5,8.75a4,4,0,0,0-1.86-.43c-1.91,0-3.64,1.11-3.88,2.5s1.11,2.5,3,2.5,3.63-1.12,3.87-2.5h0l2.09-12.13,3.59,1.85Z" style="fill:#B99B5F"></path><path d="M128.51,397.25a5.52,5.52,0,0,1-5.12,4.23h-3a3.31,3.31,0,0,1,3.32,4.22,5.5,5.5,0,0,1-5.12,4.22h6.22l-.33,1.55h-1.54l-1.14,5.36h1.54l-.33,1.55H93.54L98,393h27.22a3.79,3.79,0,0,1,.77.08A3.3,3.3,0,0,1,128.51,397.25Z" style="opacity:0.2"></path><rect x="72.58" y="393.78" width="30.23" height="7.12" transform="translate(175.39 794.69) rotate(180)" style="fill:#B99B5F"></rect><rect x="72.58" y="393.78" width="30.23" height="7.12" transform="translate(175.39 794.69) rotate(180)" style="fill:#fff;isolation:isolate;opacity:0.7000000000000001"></rect><path d="M119,397.34a4.22,4.22,0,0,1-4.22,4.22H91.12V400h3.59a2.68,2.68,0,1,0,0-5.35H91.12v-1.55h23.67a4.07,4.07,0,0,1,.79.08A4.23,4.23,0,0,1,119,397.34Z" style="fill:#B99B5F"></path><g style="isolation:isolate;opacity:0.4"><path d="M119,397.34a4.22,4.22,0,0,1-4.22,4.22H91.12V400h3.59a2.68,2.68,0,1,0,0-5.35H91.12v-1.55h23.67a4.07,4.07,0,0,1,.79.08A4.23,4.23,0,0,1,119,397.34Z" style="fill:#fff"></path></g><path d="M71,393.13H94.71a4.22,4.22,0,1,1,0,8.43H71V400H94.71a2.68,2.68,0,1,0,0-5.35H71Z" style="fill:#B99B5F"></path><g style="isolation:isolate;opacity:0.2"><path d="M71,393.13H94.71a4.22,4.22,0,1,1,0,8.43H71V400H94.71a2.68,2.68,0,1,0,0-5.35H71Z" style="fill:#fff"></path></g><rect x="69.58" y="402.22" width="30.23" height="7.12" transform="translate(169.38 811.56) rotate(180)" style="fill:#B99B5F"></rect><rect x="69.58" y="402.22" width="30.23" height="7.12" transform="translate(169.38 811.56) rotate(180)" style="fill:#fff;isolation:isolate;opacity:0.7000000000000001"></rect><path d="M116,405.78a4.22,4.22,0,0,1-4.22,4.21H88.12v-1.54h3.59a2.68,2.68,0,1,0,0-5.35H88.12v-1.54h23.67A4.22,4.22,0,0,1,116,405.78Z" style="fill:#263238"></path><g style="opacity:0.2"><path d="M116,405.78a4.22,4.22,0,0,1-4.22,4.21H88.12v-1.54h3.59a2.68,2.68,0,1,0,0-5.35H88.12v-1.54h23.67A4.22,4.22,0,0,1,116,405.78Z" style="fill:#fff"></path></g><path d="M68,401.56H91.71a4.22,4.22,0,1,1,0,8.44H68v-1.54H91.71a2.68,2.68,0,0,0,0-5.35H68Z" style="fill:#263238"></path><g style="isolation:isolate;opacity:0.4"><path d="M68,401.56H91.71a4.22,4.22,0,1,1,0,8.44H68v-1.54H91.71a2.68,2.68,0,0,0,0-5.35H68Z" style="fill:#fff"></path></g><rect x="86.24" y="410.65" width="30.23" height="7.12" style="fill:#B99B5F"></rect><rect x="86.24" y="410.65" width="30.23" height="7.12" style="fill:#fff;isolation:isolate;opacity:0.7000000000000001"></rect><path d="M91.66,414.21a2.68,2.68,0,0,0,2.68,2.68H118v1.54H94.34a4.16,4.16,0,0,1-2.26-.66,4.21,4.21,0,0,1,0-7.12,4.15,4.15,0,0,1,2.25-.66H118v1.55H94.34A2.68,2.68,0,0,0,91.66,414.21Z" style="fill:#B99B5F"></path><path d="M97.93,410H74.26a4.22,4.22,0,1,0,0,8.43H97.93v-1.54h-3.6a2.68,2.68,0,0,1,0-5.35h3.6Z" style="fill:#B99B5F"></path><g style="isolation:isolate;opacity:0.4"><path d="M91.66,414.21a2.68,2.68,0,0,0,2.68,2.68H118v1.54H94.34a4.16,4.16,0,0,1-2.26-.66,4.21,4.21,0,0,1,0-7.12,4.15,4.15,0,0,1,2.25-.66H118v1.55H94.34A2.68,2.68,0,0,0,91.66,414.21Z" style="fill:#fff"></path></g><path d="M149.58,417.82l.39-.14.4-.15c.19-.08.37-.16.54-.25l.49-.23h0l.45-.26.46-.28.45-.31.5-.38a11.48,11.48,0,0,0,1-.94l.33-.35a6.4,6.4,0,0,0,.42-.49,9.69,9.69,0,0,0,.75-1c.1-.15.2-.32.3-.49a12.09,12.09,0,0,0,1.19-2.79l.12-.52a5.05,5.05,0,0,0,.12-.56c0-.23.08-.45.1-.69a3.59,3.59,0,0,0,.05-.46,11.45,11.45,0,0,0-.06-2.48.68.68,0,0,0,0-.14,5.07,5.07,0,0,0-.09-.54,2,2,0,0,0-.07-.35q-.06-.32-.15-.63a7.2,7.2,0,0,0-.32-1c0-.06,0-.11,0-.16s-.11-.28-.17-.42-.19-.43-.3-.64a2.53,2.53,0,0,0-.2-.36,6.65,6.65,0,0,0-.43-.73,5.25,5.25,0,0,0-.33-.49c-.1-.15-.21-.29-.33-.44a11.79,11.79,0,0,0-2.3-2.22l-.43-.3c-.16-.11-.33-.22-.51-.32l-.43-.25-.44-.24c-.3-.14-.61-.27-.92-.39l-.34-.14-.33-.1-.53-.16-.45-.11-.25-.06a11.7,11.7,0,0,0-3.19-.22l-.62.06a10.32,10.32,0,0,0-1.09.18c-.23,0-.46.1-.7.16s-.7.22-1,.34l-.25.1a3,3,0,0,0-.41.18l-.33.15h0a10.69,10.69,0,0,0-1.54.9c-.25.17-.48.34-.71.53s-.46.39-.67.59-.43.41-.63.63-.38.44-.56.66a.39.39,0,0,0-.08.1c-.15.2-.29.39-.43.61,0,0,0,0,0,0-.11.18-.23.36-.33.54l-.16.26a8.56,8.56,0,0,0-.42.79c-.09.19-.17.39-.25.59a1.19,1.19,0,0,0-.08.2c-.1.24-.19.51-.27.76s-.16.56-.23.85a9.55,9.55,0,0,0-.23,1.42c0,.25,0,.48-.06.74a11.64,11.64,0,0,0,0,1.32s0,0,0,.05,0,.26,0,.39a2.22,2.22,0,0,0,.06.46,3.54,3.54,0,0,0,.07.47,2.71,2.71,0,0,0,.09.41c0,.2.09.4.14.6l.18.58.2.57v0c.07.18.15.36.23.53a11.8,11.8,0,0,0,1,1.88,10.24,10.24,0,0,0,.8,1c.14.15.27.3.43.46s.31.33.48.48a5,5,0,0,0,.42.37c.12.1.25.21.39.31l.45.34a10.51,10.51,0,0,0,1,.6l.44.24.14.08.43.2a12.14,12.14,0,0,0,3.48,1c.23,0,.46.05.7.05a12.18,12.18,0,0,0,1.48,0l.59-.06.42-.06a4.21,4.21,0,0,0,.49-.09,8.44,8.44,0,0,0,.87-.2Zm-6-9.79a2.44,2.44,0,0,1-.37-.8,2.54,2.54,0,0,1,0-1.31,2.62,2.62,0,0,1,.77-1.35,2.57,2.57,0,0,1,.66-.45,2.75,2.75,0,0,1,.46-.17l.15,0a2.65,2.65,0,0,1,3.13,1.89,2.45,2.45,0,0,1,.08.37,2.61,2.61,0,0,1-.68,2.12h0a2.14,2.14,0,0,1-.42.37,1.94,1.94,0,0,1-.42.25,1.82,1.82,0,0,1-.43.16,2.65,2.65,0,0,1-2.53-.61A2.33,2.33,0,0,1,143.62,408Z"></path><path d="M149.58,417.82l.39-.14.4-.15c.19-.08.37-.16.54-.25l.49-.23h0l.45-.26.46-.28.45-.31.5-.38a11.48,11.48,0,0,0,1-.94l.33-.35a6.4,6.4,0,0,0,.42-.49,9.69,9.69,0,0,0,.75-1c.1-.15.2-.32.3-.49a12.09,12.09,0,0,0,1.19-2.79l.12-.52a5.05,5.05,0,0,0,.12-.56c0-.23.08-.45.1-.69a3.59,3.59,0,0,0,.05-.46,11.45,11.45,0,0,0-.06-2.48.68.68,0,0,0,0-.14,5.07,5.07,0,0,0-.09-.54,2,2,0,0,0-.07-.35q-.06-.32-.15-.63a7.2,7.2,0,0,0-.32-1c0-.06,0-.11,0-.16s-.11-.28-.17-.42-.19-.43-.3-.64a2.53,2.53,0,0,0-.2-.36,6.65,6.65,0,0,0-.43-.73,5.25,5.25,0,0,0-.33-.49c-.1-.15-.21-.29-.33-.44a11.79,11.79,0,0,0-2.3-2.22l-.43-.3c-.16-.11-.33-.22-.51-.32l-.43-.25-.44-.24c-.3-.14-.61-.27-.92-.39l-.34-.14-.33-.1-.53-.16-.45-.11-.25-.06a11.72,11.72,0,0,0-3.19-.22l-.62.06a10.32,10.32,0,0,0-1.09.18c-.23,0-.46.1-.7.16s-.7.22-1,.34l-.25.1a3,3,0,0,0-.41.18l-.33.15h0a10.69,10.69,0,0,0-1.54.9c-.25.17-.48.34-.71.53s-.46.39-.67.59-.43.41-.63.63-.38.44-.56.66a.39.39,0,0,0-.08.1c-.15.2-.29.39-.43.61,0,0,0,0,0,0-.11.18-.23.36-.33.54l-.16.26a8.56,8.56,0,0,0-.42.79c-.09.19-.17.39-.25.59a1.19,1.19,0,0,0-.08.2c-.1.24-.19.51-.27.76s-.16.56-.23.85a9.55,9.55,0,0,0-.23,1.42c0,.25,0,.48-.06.74a11.64,11.64,0,0,0,0,1.32s0,0,0,.05,0,.26,0,.39a2.22,2.22,0,0,0,.06.46,3.54,3.54,0,0,0,.07.47,2.71,2.71,0,0,0,.09.41c0,.2.09.4.14.6l.18.58.2.57v0c.07.18.15.36.23.53a11.8,11.8,0,0,0,1,1.88,10.24,10.24,0,0,0,.8,1c.14.15.27.3.43.46s.31.33.48.48a5,5,0,0,0,.42.37c.12.1.25.21.39.31l.45.34a10.51,10.51,0,0,0,1,.6l.44.24.14.08.43.2a12.14,12.14,0,0,0,3.48,1c.23,0,.46.05.7.05a12.18,12.18,0,0,0,1.48,0l.59-.06.42-.06a4.21,4.21,0,0,0,.49-.09,8.44,8.44,0,0,0,.87-.2Zm-6-9.79a2.44,2.44,0,0,1-.37-.8,2.54,2.54,0,0,1,0-1.31,2.62,2.62,0,0,1,.77-1.35,2.57,2.57,0,0,1,.66-.45,2.75,2.75,0,0,1,.46-.17l.15,0a2.65,2.65,0,0,1,3.13,1.89,2.45,2.45,0,0,1,.08.37,2.61,2.61,0,0,1-.68,2.12h0a2.14,2.14,0,0,1-.42.37,1.94,1.94,0,0,1-.42.25,1.82,1.82,0,0,1-.43.16,2.65,2.65,0,0,1-2.53-.61A2.33,2.33,0,0,1,143.62,408Z" style="fill:#fff;opacity:0.7000000000000001"></path><path d="M154.64,414.52c-2.2-2-5-4.54-6.84-6.21h0a2.61,2.61,0,0,0,.68-2.12l9.16-1.17a11.45,11.45,0,0,1,.06,2.48,3.59,3.59,0,0,1-.05.46c0,.24-.06.46-.1.69a5.05,5.05,0,0,1-.12.56l-.12.52a12.09,12.09,0,0,1-1.19,2.79c-.1.17-.2.34-.3.49a9.69,9.69,0,0,1-.75,1A6.4,6.4,0,0,1,154.64,414.52Z" style="fill:#fff;opacity:0.30000000000000004"></path><path d="M143.22,405.92l-9-2.08c.07-.29.15-.57.23-.85s.17-.52.27-.76a1.19,1.19,0,0,1,.08-.2c.08-.2.16-.4.25-.59a8.56,8.56,0,0,1,.42-.79l.16-.26c.1-.18.22-.36.33-.54,0,0,0,0,0,0,.14-.22.28-.41.43-.61a.39.39,0,0,1,.08-.1c.18-.22.36-.45.56-.66s.42-.43.63-.63l6.32,6.73A2.62,2.62,0,0,0,143.22,405.92Z" style="fill:#fff;opacity:0.30000000000000004"></path><path d="M144.65,404.12l-4-8.31.33-.15a3,3,0,0,1,.41-.18l.25-.1c.34-.12.69-.24,1-.34s.47-.12.7-.16l1.92,9-.15,0A2.75,2.75,0,0,0,144.65,404.12Z" style="fill:#fff;opacity:0.5"></path><path d="M150.91,417.28,147,408.93a1.94,1.94,0,0,0,.42-.25l5.4,7.51-.45.31-.46.28-.45.26h0Z" style="fill:#fff;opacity:0.5"></path><path d="M137.72,415.26c-.17-.15-.33-.32-.48-.48s-.29-.31-.43-.46a10.24,10.24,0,0,1-.8-1l7.61-5.25a2.33,2.33,0,0,0,.38.45Z" style="fill:#fff;opacity:0.5"></path></g><g id="freepik--Lightbulb--inject-5"><path d="M273.49,196.2a9.48,9.48,0,0,1-4.78-1.29l-4.25-2.45a9.6,9.6,0,0,1-3.51-13.1h0a9.59,9.59,0,0,1,13.1-3.51l4.25,2.45A9.59,9.59,0,0,1,276,195.87,9.76,9.76,0,0,1,273.49,196.2Zm-4.23-16.83a4.8,4.8,0,0,0-4.15,2.39h0a4.8,4.8,0,0,0,1.75,6.53l4.26,2.46a4.8,4.8,0,0,0,6.53-1.75,4.8,4.8,0,0,0-1.75-6.53L271.64,180A4.78,4.78,0,0,0,269.26,179.37ZM263,180.56h0Z" style="fill:#263238"></path><g style="opacity:0.4"><path d="M273.49,196.2a9.48,9.48,0,0,1-4.78-1.29l-4.25-2.45a9.6,9.6,0,0,1-3.51-13.1h0a9.59,9.59,0,0,1,13.1-3.51l4.25,2.45A9.59,9.59,0,0,1,276,195.87,9.76,9.76,0,0,1,273.49,196.2Zm-4.23-16.83a4.8,4.8,0,0,0-4.15,2.39h0a4.8,4.8,0,0,0,1.75,6.53l4.26,2.46a4.8,4.8,0,0,0,6.53-1.75,4.8,4.8,0,0,0-1.75-6.53L271.64,180A4.78,4.78,0,0,0,269.26,179.37ZM263,180.56h0Z" style="fill:#fff"></path></g><path d="M276.07,208.47a10,10,0,0,1-1.43-.11h0a9.58,9.58,0,0,1-8.07-10.89l.72-4.86a9.59,9.59,0,1,1,19,2.82l-.72,4.86a9.61,9.61,0,0,1-9.47,8.18Zm.7-19.23a4.78,4.78,0,0,0-4.72,4.08l-.72,4.85a4.76,4.76,0,0,0,4,5.43h0a4.76,4.76,0,0,0,5.43-4l.72-4.86a4.76,4.76,0,0,0-4-5.43A5.78,5.78,0,0,0,276.77,189.24Z" style="fill:#263238"></path><g style="opacity:0.6000000000000001"><path d="M276.07,208.47a10,10,0,0,1-1.43-.11h0a9.58,9.58,0,0,1-8.07-10.89l.72-4.86a9.59,9.59,0,1,1,19,2.82l-.72,4.86a9.61,9.61,0,0,1-9.47,8.18Zm.7-19.23a4.78,4.78,0,0,0-4.72,4.08l-.72,4.85a4.76,4.76,0,0,0,4,5.43h0a4.76,4.76,0,0,0,5.43-4l.72-4.86a4.76,4.76,0,0,0-4-5.43A5.78,5.78,0,0,0,276.77,189.24Z" style="fill:#fff"></path></g><path d="M114.35,201a9.56,9.56,0,0,1-6.35-2.41h0a9.59,9.59,0,0,1-.81-13.54l3.26-3.68a9.59,9.59,0,0,1,14.34,12.73l-3.26,3.68A9.58,9.58,0,0,1,114.35,201Zm3.27-18a4.76,4.76,0,0,0-3.58,1.61l-3.26,3.67a4.78,4.78,0,0,0-1.19,3.46,4.72,4.72,0,0,0,1.6,3.29h0a4.78,4.78,0,0,0,6.74-.4l3.26-3.68a4.77,4.77,0,0,0-3.57-7.95Z" style="fill:#263238"></path><g style="opacity:0.6000000000000001"><path d="M114.35,201a9.56,9.56,0,0,1-6.35-2.41h0a9.59,9.59,0,0,1-.81-13.54l3.26-3.68a9.59,9.59,0,0,1,14.34,12.73l-3.26,3.68A9.58,9.58,0,0,1,114.35,201Zm3.27-18a4.76,4.76,0,0,0-3.58,1.61l-3.26,3.67a4.78,4.78,0,0,0-1.19,3.46,4.72,4.72,0,0,0,1.6,3.29h0a4.78,4.78,0,0,0,6.74-.4l3.26-3.68a4.77,4.77,0,0,0-3.57-7.95Z" style="fill:#fff"></path></g><path d="M191.35,104.46c-43.7,1-79,37.3-78.89,81a80.64,80.64,0,0,0,27.9,60.9A22.52,22.52,0,0,1,148,260.72h90.61a22.4,22.4,0,0,1,7.58-14.29,80.85,80.85,0,0,0-54.84-142Z" style="fill:#B99B5F"></path><path d="M191.35,104.46c-43.7,1-79,37.3-78.89,81a80.64,80.64,0,0,0,27.9,60.9A22.52,22.52,0,0,1,148,260.72h90.61a22.4,22.4,0,0,1,7.58-14.29,80.85,80.85,0,0,0-54.84-142Z" style="fill:#fff;opacity:0.1"></path><path d="M173.23,320.35h40.15a0,0,0,0,1,0,0v2.77a4.15,4.15,0,0,1-4.15,4.15H177.38a4.15,4.15,0,0,1-4.15-4.15v-2.77A0,0,0,0,1,173.23,320.35Z" style="fill:#263238"></path><polygon points="214.41 322.93 172.2 322.93 153.15 305.91 233.46 305.91 214.41 322.93" style="fill:#263238"></polygon><polygon points="214.41 322.93 172.2 322.93 153.15 305.91 233.46 305.91 214.41 322.93" style="fill:#fff;opacity:0.7000000000000001"></polygon><path d="M232.66,308.08H153a2.4,2.4,0,0,1-2.39-2.12l-5.39-46a1.58,1.58,0,0,1,1.57-1.76h92.11a1.57,1.57,0,0,1,1.57,1.76l-5.39,46A2.4,2.4,0,0,1,232.66,308.08Z" style="fill:#263238"></path><g style="opacity:0.5"><path d="M232.66,308.08H153a2.4,2.4,0,0,1-2.39-2.12l-5.39-46a1.58,1.58,0,0,1,1.57-1.76h92.11a1.57,1.57,0,0,1,1.57,1.76l-5.39,46A2.4,2.4,0,0,1,232.66,308.08Z" style="fill:#fff"></path></g><path d="M146.52,273.32a2,2,0,0,1-.18-4L239.91,261a2,2,0,1,1,.36,4l-93.57,8.34Z" style="fill:#263238"></path><path d="M147.84,284.62a2,2,0,0,1-.17-4l90.87-7.86a2,2,0,0,1,.34,4L148,284.61Z" style="fill:#263238"></path><path d="M149.09,295.29a2,2,0,0,1-.16-4l88.31-7.42a2,2,0,1,1,.33,4l-88.31,7.42Z" style="fill:#263238"></path><path d="M150.28,305.38a2,2,0,0,1-.16-4l85.89-7a2,2,0,1,1,.33,4l-85.9,7Z" style="fill:#263238"></path><g style="opacity:0.7000000000000001"><path d="M146.52,273.32a2,2,0,0,1-.18-4L239.91,261a2,2,0,1,1,.36,4l-93.57,8.34Z" style="fill:#fff"></path></g><g style="opacity:0.7000000000000001"><path d="M147.84,284.62a2,2,0,0,1-.17-4l90.87-7.86a2,2,0,0,1,.34,4L148,284.61Z" style="fill:#fff"></path></g><g style="opacity:0.7000000000000001"><path d="M149.09,295.29a2,2,0,0,1-.16-4l88.31-7.42a2,2,0,1,1,.33,4l-88.31,7.42Z" style="fill:#fff"></path></g><g style="opacity:0.7000000000000001"><path d="M150.28,305.38a2,2,0,0,1-.16-4l85.89-7a2,2,0,1,1,.33,4l-85.9,7Z" style="fill:#fff"></path></g><ellipse cx="193.3" cy="151.12" rx="60.21" ry="44" style="fill:#fff;opacity:0.2"></ellipse><path d="M116.35,212.49a6.42,6.42,0,0,1-1.5-.19,6,6,0,0,1-3.67-2.76L105,199.13A6,6,0,0,1,115.35,193l6.16,10.42a6,6,0,0,1-5.16,9.05Zm-6.17-17.6a1.26,1.26,0,0,0-.6.16,1.2,1.2,0,0,0-.42,1.63l6.16,10.41a1.19,1.19,0,0,0,1.63.42h0a1.15,1.15,0,0,0,.54-.73,1.19,1.19,0,0,0-.12-.9l-6.16-10.41a1.22,1.22,0,0,0-1-.58Z" style="fill:#263238"></path><path d="M139.34,228.76a6,6,0,0,1-3.05-.84l-10.4-6.18A6,6,0,1,1,132,211.43l10.4,6.18a6,6,0,0,1-3.08,11.15ZM129,215.4a2,2,0,0,0-.3,0,1.2,1.2,0,0,0-.86,1.45,1.17,1.17,0,0,0,.55.72l10.4,6.19a1.19,1.19,0,0,0,1.21-2l-10.4-6.18A1.26,1.26,0,0,0,129,215.4Z" style="fill:#263238"></path><path d="M166.6,237a5.78,5.78,0,0,1-1.48-.19l-11.73-3a6,6,0,0,1-4.34-7.28,6,6,0,0,1,7.28-4.35l11.73,3A6,6,0,0,1,166.6,237Zm-11.74-10.15a1.21,1.21,0,0,0-.61.16,1.2,1.2,0,0,0,.32,2.18l11.73,3a1.19,1.19,0,0,0,.9-.13,1.17,1.17,0,0,0,.54-.73h0a1.18,1.18,0,0,0-.86-1.44l-11.73-3Z" style="fill:#263238"></path><path d="M194.31,240.47a5.44,5.44,0,0,1-.57,0l-12-1.12a6,6,0,0,1-4.06-2.14,6,6,0,0,1-1.36-4.39,6,6,0,0,1,6.53-5.41l12.05,1.12a6,6,0,0,1-.55,12Zm-12.06-8.31a1.23,1.23,0,0,0-.75.27,1.21,1.21,0,0,0-.43.81,1.2,1.2,0,0,0,1.07,1.29l12.05,1.12a1.17,1.17,0,0,0,1.29-1.07h0a1.19,1.19,0,0,0-1.07-1.29l-12-1.12Z" style="fill:#263238"></path><g style="opacity:0.4"><path d="M116.35,212.49a6.42,6.42,0,0,1-1.5-.19,6,6,0,0,1-3.67-2.76L105,199.13A6,6,0,0,1,115.35,193l6.16,10.42a6,6,0,0,1-5.16,9.05Zm-6.17-17.6a1.26,1.26,0,0,0-.6.16,1.2,1.2,0,0,0-.42,1.63l6.16,10.41a1.19,1.19,0,0,0,1.63.42h0a1.15,1.15,0,0,0,.54-.73,1.19,1.19,0,0,0-.12-.9l-6.16-10.41a1.22,1.22,0,0,0-1-.58Z" style="fill:#fff"></path><path d="M139.34,228.76a6,6,0,0,1-3.05-.84l-10.4-6.18A6,6,0,1,1,132,211.43l10.4,6.18a6,6,0,0,1-3.08,11.15ZM129,215.4a2,2,0,0,0-.3,0,1.2,1.2,0,0,0-.86,1.45,1.17,1.17,0,0,0,.55.72l10.4,6.19a1.19,1.19,0,0,0,1.21-2l-10.4-6.18A1.26,1.26,0,0,0,129,215.4Z" style="fill:#fff"></path><path d="M166.6,237a5.78,5.78,0,0,1-1.48-.19l-11.73-3a6,6,0,0,1-4.34-7.28,6,6,0,0,1,7.28-4.35l11.73,3A6,6,0,0,1,166.6,237Zm-11.74-10.15a1.21,1.21,0,0,0-.61.16,1.2,1.2,0,0,0,.32,2.18l11.73,3a1.19,1.19,0,0,0,.9-.13,1.17,1.17,0,0,0,.54-.73h0a1.18,1.18,0,0,0-.86-1.44l-11.73-3Z" style="fill:#fff"></path><path d="M194.31,240.47a5.44,5.44,0,0,1-.57,0l-12-1.12a6,6,0,0,1-4.06-2.14,6,6,0,0,1-1.36-4.39,6,6,0,0,1,6.53-5.41l12.05,1.12a6,6,0,0,1-.55,12Zm-12.06-8.31a1.23,1.23,0,0,0-.75.27,1.21,1.21,0,0,0-.43.81,1.2,1.2,0,0,0,1.07,1.29l12.05,1.12a1.17,1.17,0,0,0,1.29-1.07h0a1.19,1.19,0,0,0-1.07-1.29l-12-1.12Z" style="fill:#fff"></path></g><path d="M123.69,223.58a9.52,9.52,0,0,1-6.36-2.41l-3.68-3.26a9.59,9.59,0,1,1,12.73-14.35l3.68,3.26a9.61,9.61,0,0,1,.81,13.54h0A9.59,9.59,0,0,1,123.69,223.58ZM120,206h-.29a4.77,4.77,0,0,0-4.48,5.06,4.72,4.72,0,0,0,1.6,3.29l3.67,3.26a4.79,4.79,0,0,0,6.75-.4h0a4.78,4.78,0,0,0,1.19-3.46,4.72,4.72,0,0,0-1.6-3.29l-3.67-3.26A4.76,4.76,0,0,0,120,206Zm9,12.8h0Z" style="fill:#263238"></path><path d="M149.47,235.48a9.57,9.57,0,0,1-3.18-.54l-4.63-1.63A9.59,9.59,0,1,1,148,215.22l4.63,1.63a9.59,9.59,0,0,1,5.86,12.23h0A9.6,9.6,0,0,1,149.47,235.48Zm-4.63-16a4.81,4.81,0,0,0-2.06.47,4.79,4.79,0,0,0-2.25,6.38,4.79,4.79,0,0,0,2.73,2.44l4.63,1.63a4.79,4.79,0,0,0,6.1-2.92h0a4.8,4.8,0,0,0-2.92-6.1l-4.64-1.63A4.83,4.83,0,0,0,144.84,219.48Z" style="fill:#263238"></path><path d="M176.75,241.88a10.22,10.22,0,0,1-1.73-.16l-4.83-.88a9.61,9.61,0,0,1-7.71-11.16A9.6,9.6,0,0,1,173.63,222l4.84.88A9.6,9.6,0,0,1,186.18,234h0A9.61,9.61,0,0,1,176.75,241.88Zm-4.85-15.26a4.78,4.78,0,0,0-.85,9.49l4.84.88a4.78,4.78,0,0,0,1.71-9.41l-4.83-.88A5.12,5.12,0,0,0,171.9,226.62Zm11.91,7h0Z" style="fill:#263238"></path><g style="opacity:0.6000000000000001"><path d="M123.69,223.58a9.52,9.52,0,0,1-6.36-2.41l-3.68-3.26a9.59,9.59,0,1,1,12.73-14.35l3.68,3.26a9.61,9.61,0,0,1,.81,13.54h0A9.59,9.59,0,0,1,123.69,223.58ZM120,206h-.29a4.77,4.77,0,0,0-4.48,5.06,4.72,4.72,0,0,0,1.6,3.29l3.67,3.26a4.79,4.79,0,0,0,6.75-.4h0a4.78,4.78,0,0,0,1.19-3.46,4.72,4.72,0,0,0-1.6-3.29l-3.67-3.26A4.76,4.76,0,0,0,120,206Zm9,12.8h0Z" style="fill:#fff"></path><path d="M149.47,235.48a9.57,9.57,0,0,1-3.18-.54l-4.63-1.63A9.59,9.59,0,1,1,148,215.22l4.63,1.63a9.59,9.59,0,0,1,5.86,12.23h0A9.6,9.6,0,0,1,149.47,235.48Zm-4.63-16a4.81,4.81,0,0,0-2.06.47,4.79,4.79,0,0,0-2.25,6.38,4.79,4.79,0,0,0,2.73,2.44l4.63,1.63a4.79,4.79,0,0,0,6.1-2.92h0a4.8,4.8,0,0,0-2.92-6.1l-4.64-1.63A4.83,4.83,0,0,0,144.84,219.48Z" style="fill:#fff"></path><path d="M176.75,241.88a10.22,10.22,0,0,1-1.73-.16l-4.83-.88a9.61,9.61,0,0,1-7.71-11.16A9.6,9.6,0,0,1,173.63,222l4.84.88A9.6,9.6,0,0,1,186.18,234h0A9.61,9.61,0,0,1,176.75,241.88Zm-4.85-15.26a4.78,4.78,0,0,0-.85,9.49l4.84.88a4.78,4.78,0,0,0,1.71-9.41l-4.83-.88A5.12,5.12,0,0,0,171.9,226.62Zm11.91,7h0Z" style="fill:#fff"></path></g><path d="M220.48,241.44a6,6,0,0,1-4.53-9.91,5.92,5.92,0,0,1,4.11-2.06l12.06-.89a6,6,0,1,1,.88,12l-12.07.89Zm12.08-8.06h-.09l-12.06.88a1.18,1.18,0,0,0-1.1,1.27,1.16,1.16,0,0,0,.41.81,1.18,1.18,0,0,0,.86.29l12.07-.88a1.18,1.18,0,0,0,1.09-1.27h0A1.18,1.18,0,0,0,232.56,233.38Z" style="fill:#263238"></path><path d="M246.36,235.48a6,6,0,0,1-3.26-11l10.16-6.56A6,6,0,0,1,259.77,228l-10.16,6.56A6,6,0,0,1,246.36,235.48Zm10.15-13.74a1.16,1.16,0,0,0-.64.19l-10.16,6.56a1.19,1.19,0,0,0,1.29,2l10.16-6.57a1.18,1.18,0,0,0,.35-1.64,1.2,1.2,0,0,0-.74-.52Z" style="fill:#263238"></path><path d="M268.14,217.38a6,6,0,0,1-4.55-9.9l7.88-9.18a6,6,0,0,1,8.45-.65h0a6,6,0,0,1,.65,8.45l-7.87,9.19A6,6,0,0,1,268.14,217.38ZM276,201a1.15,1.15,0,0,0-.9.42l-7.88,9.18a1.19,1.19,0,0,0,1.81,1.55l7.87-9.19a1.18,1.18,0,0,0-.13-1.67A1.19,1.19,0,0,0,276,201Z" style="fill:#263238"></path><g style="opacity:0.4"><path d="M220.48,241.44a6,6,0,0,1-4.53-9.91,5.92,5.92,0,0,1,4.11-2.06l12.06-.89a6,6,0,1,1,.88,12l-12.07.89Zm12.08-8.06h-.09l-12.06.88a1.18,1.18,0,0,0-1.1,1.27,1.16,1.16,0,0,0,.41.81,1.18,1.18,0,0,0,.86.29l12.07-.88a1.18,1.18,0,0,0,1.09-1.27h0A1.18,1.18,0,0,0,232.56,233.38Z" style="fill:#fff"></path><path d="M246.36,235.48a6,6,0,0,1-3.26-11l10.16-6.56A6,6,0,0,1,259.77,228l-10.16,6.56A6,6,0,0,1,246.36,235.48Zm10.15-13.74a1.16,1.16,0,0,0-.64.19l-10.16,6.56a1.19,1.19,0,0,0,1.29,2l10.16-6.57a1.18,1.18,0,0,0,.35-1.64,1.2,1.2,0,0,0-.74-.52Z" style="fill:#fff"></path><path d="M268.14,217.38a6,6,0,0,1-4.55-9.9l7.88-9.18a6,6,0,0,1,8.45-.65h0a6,6,0,0,1,.65,8.45l-7.87,9.19A6,6,0,0,1,268.14,217.38ZM276,201a1.15,1.15,0,0,0-.9.42l-7.88,9.18a1.19,1.19,0,0,0,1.81,1.55l7.87-9.19a1.18,1.18,0,0,0-.13-1.67A1.19,1.19,0,0,0,276,201Z" style="fill:#fff"></path></g><path d="M237.57,243.62a9.64,9.64,0,0,1-3.75-.77,9.59,9.59,0,0,1,.16-17.72l4.55-1.84a9.6,9.6,0,0,1,12.48,5.3h0a9.6,9.6,0,0,1-5.3,12.49l-4.55,1.84A9.76,9.76,0,0,1,237.57,243.62Zm4.55-16.22a4.87,4.87,0,0,0-1.79.35l-4.55,1.84a4.78,4.78,0,0,0-2.64,6.22,4.69,4.69,0,0,0,2.56,2.61,4.78,4.78,0,0,0,3.66,0l4.55-1.84a4.78,4.78,0,0,0,2.64-6.23h0a4.82,4.82,0,0,0-4.43-3Z" style="fill:#263238"></path><path d="M260.3,228.26a9.59,9.59,0,0,1-6.68-16.47l3.52-3.42a9.59,9.59,0,0,1,13.37,13.75L267,225.55A9.54,9.54,0,0,1,260.3,228.26Zm3.52-17.79a4.77,4.77,0,0,0-3.33,1.35L257,215.24a4.78,4.78,0,0,0,6.66,6.86l3.52-3.43a4.77,4.77,0,0,0-3.33-8.2Z" style="fill:#263238"></path><g style="opacity:0.6000000000000001"><path d="M237.57,243.62a9.64,9.64,0,0,1-3.75-.77,9.59,9.59,0,0,1,.16-17.72l4.55-1.84a9.6,9.6,0,0,1,12.48,5.3h0a9.6,9.6,0,0,1-5.3,12.49l-4.55,1.84A9.76,9.76,0,0,1,237.57,243.62Zm4.55-16.22a4.87,4.87,0,0,0-1.79.35l-4.55,1.84a4.78,4.78,0,0,0-2.64,6.22,4.69,4.69,0,0,0,2.56,2.61,4.78,4.78,0,0,0,3.66,0l4.55-1.84a4.78,4.78,0,0,0,2.64-6.23h0a4.82,4.82,0,0,0-4.43-3Z" style="fill:#fff"></path><path d="M260.3,228.26a9.59,9.59,0,0,1-6.68-16.47l3.52-3.42a9.59,9.59,0,0,1,13.37,13.75L267,225.55A9.54,9.54,0,0,1,260.3,228.26Zm3.52-17.79a4.77,4.77,0,0,0-3.33,1.35L257,215.24a4.78,4.78,0,0,0,6.66,6.86l3.52-3.43a4.77,4.77,0,0,0-3.33-8.2Z" style="fill:#fff"></path></g><path d="M223.36,258.89l-5.92-1,3.06-18.18a12.78,12.78,0,1,0-25.2-4.25l-3.06,18.17-5.93-1,3.07-18.17a18.79,18.79,0,1,1,37.05,6.25Z" style="fill:#263238"></path><g style="opacity:0.30000000000000004"><path d="M223.36,258.89l-5.92-1,3.06-18.18a12.78,12.78,0,1,0-25.2-4.25l-3.06,18.17-5.93-1,3.07-18.17a18.79,18.79,0,1,1,37.05,6.25Z" style="fill:#fff"></path></g><path d="M230.36,255.31l-5,29.74a3.48,3.48,0,0,1-4,2.86l-43.73-7.38a3.49,3.49,0,0,1-2.86-4l5-29.74a3.5,3.5,0,0,1,4-2.86l43.73,7.38A3.49,3.49,0,0,1,230.36,255.31Z" style="fill:#263238"></path><path d="M230.36,255.31l-5,29.74a3.48,3.48,0,0,1-4,2.86l-31.88-5.38a3.5,3.5,0,0,1-2.86-4l5-29.74a3.5,3.5,0,0,1,4-2.86l31.87,5.38A3.49,3.49,0,0,1,230.36,255.31Z" style="fill:#fff;opacity:0.2"></path><path d="M214.63,264.11c.61-3.67-1.36-7.06-4.41-7.57s-6,2-6.66,5.7a6.78,6.78,0,0,0,2.56,6.81l-1.62,7.85,4.43.75.65-7.87A6.67,6.67,0,0,0,214.63,264.11Z" style="fill:#263238"></path><path d="M275,208.39l-.36,0a9.58,9.58,0,0,1-8.07-10.89l.72-4.86a9.59,9.59,0,0,1,10.9-8.08,2.41,2.41,0,0,1-.71,4.76,4.78,4.78,0,0,0-3.55.89,4.73,4.73,0,0,0-1.88,3.14l-.72,4.85a4.76,4.76,0,0,0,4,5.43,2.41,2.41,0,0,1-.35,4.79Z" style="fill:#263238"></path><g style="opacity:0.6000000000000001"><path d="M275,208.39l-.36,0a9.58,9.58,0,0,1-8.07-10.89l.72-4.86a9.59,9.59,0,0,1,10.9-8.08,2.41,2.41,0,0,1-.71,4.76,4.78,4.78,0,0,0-3.55.89,4.73,4.73,0,0,0-1.88,3.14l-.72,4.85a4.76,4.76,0,0,0,4,5.43,2.41,2.41,0,0,1-.35,4.79Z" style="fill:#fff"></path></g><path d="M230.91,239.12a2.4,2.4,0,0,1-2.23-1.5,9.59,9.59,0,0,1,5.3-12.49l4.55-1.84a9.6,9.6,0,0,1,12.48,5.3,2.4,2.4,0,1,1-4.46,1.8,4.79,4.79,0,0,0-6.22-2.64l-4.55,1.84a4.78,4.78,0,0,0-2.64,6.22,2.42,2.42,0,0,1-1.33,3.14A2.39,2.39,0,0,1,230.91,239.12Z" style="fill:#263238"></path><path d="M255.15,226.08a2.38,2.38,0,0,1-1.73-.73,9.59,9.59,0,0,1,.2-13.56l3.52-3.42a9.61,9.61,0,0,1,13.56.19,2.41,2.41,0,0,1-3.45,3.36,4.77,4.77,0,0,0-6.76-.1L257,215.24a4.78,4.78,0,0,0-.1,6.76,2.39,2.39,0,0,1-.05,3.4A2.35,2.35,0,0,1,255.15,226.08Z" style="fill:#263238"></path><g style="opacity:0.6000000000000001"><path d="M230.91,239.12a2.4,2.4,0,0,1-2.23-1.5,9.59,9.59,0,0,1,5.3-12.49l4.55-1.84a9.6,9.6,0,0,1,12.48,5.3,2.4,2.4,0,1,1-4.46,1.8,4.79,4.79,0,0,0-6.22-2.64l-4.55,1.84a4.78,4.78,0,0,0-2.64,6.22,2.42,2.42,0,0,1-1.33,3.14A2.39,2.39,0,0,1,230.91,239.12Z" style="fill:#fff"></path><path d="M255.15,226.08a2.38,2.38,0,0,1-1.73-.73,9.59,9.59,0,0,1,.2-13.56l3.52-3.42a9.61,9.61,0,0,1,13.56.19,2.41,2.41,0,0,1-3.45,3.36,4.77,4.77,0,0,0-6.76-.1L257,215.24a4.78,4.78,0,0,0-.1,6.76,2.39,2.39,0,0,1-.05,3.4A2.35,2.35,0,0,1,255.15,226.08Z" style="fill:#fff"></path></g><path d="M246.36,235.48a6,6,0,0,1-5-2.74,2.4,2.4,0,0,1,4-2.61,1.18,1.18,0,0,0,.74.52,1.24,1.24,0,0,0,.9-.16l10.16-6.57a1.18,1.18,0,0,0,.35-1.64,2.4,2.4,0,1,1,4-2.61,6,6,0,0,1-1.78,8.29l-10.16,6.56A6,6,0,0,1,246.36,235.48Z" style="fill:#263238"></path><path d="M268.14,217.38a6,6,0,0,1-3.9-1.44,2.4,2.4,0,1,1,3.13-3.65,1.21,1.21,0,0,0,1.68-.13l7.87-9.19a1.18,1.18,0,0,0-.13-1.67,2.4,2.4,0,1,1,3.13-3.65,6,6,0,0,1,.65,8.45l-7.87,9.19A6,6,0,0,1,268.14,217.38Z" style="fill:#263238"></path><path d="M220.48,241.44a6,6,0,0,1-6-5.56,2.41,2.41,0,0,1,4.8-.35,1.16,1.16,0,0,0,.41.81,1.18,1.18,0,0,0,.86.29l12.07-.88a1.18,1.18,0,0,0,1.09-1.27,2.41,2.41,0,0,1,4.8-.36,6,6,0,0,1-5.54,6.42l-12.07.89Z" style="fill:#263238"></path><g style="opacity:0.5"><path d="M246.36,235.48a6,6,0,0,1-5-2.74,2.4,2.4,0,0,1,4-2.61,1.18,1.18,0,0,0,.74.52,1.24,1.24,0,0,0,.9-.16l10.16-6.57a1.18,1.18,0,0,0,.35-1.64,2.4,2.4,0,1,1,4-2.61,6,6,0,0,1-1.78,8.29l-10.16,6.56A6,6,0,0,1,246.36,235.48Z" style="fill:#fff"></path><path d="M268.14,217.38a6,6,0,0,1-3.9-1.44,2.4,2.4,0,1,1,3.13-3.65,1.21,1.21,0,0,0,1.68-.13l7.87-9.19a1.18,1.18,0,0,0-.13-1.67,2.4,2.4,0,1,1,3.13-3.65,6,6,0,0,1,.65,8.45l-7.87,9.19A6,6,0,0,1,268.14,217.38Z" style="fill:#fff"></path><path d="M220.48,241.44a6,6,0,0,1-6-5.56,2.41,2.41,0,0,1,4.8-.35,1.16,1.16,0,0,0,.41.81,1.18,1.18,0,0,0,.86.29l12.07-.88a1.18,1.18,0,0,0,1.09-1.27,2.41,2.41,0,0,1,4.8-.36,6,6,0,0,1-5.54,6.42l-12.07.89Z" style="fill:#fff"></path></g><path d="M279.73,192.61a2.42,2.42,0,0,1-2.08-3.61,4.8,4.8,0,0,0-1.75-6.53,2.41,2.41,0,0,1,2.4-4.17,9.59,9.59,0,0,1,3.51,13.1A2.4,2.4,0,0,1,279.73,192.61Z" style="fill:#263238"></path><g style="opacity:0.5"><path d="M279.73,192.61a2.42,2.42,0,0,1-2.08-3.61,4.8,4.8,0,0,0-1.75-6.53,2.41,2.41,0,0,1,2.4-4.17,9.59,9.59,0,0,1,3.51,13.1A2.4,2.4,0,0,1,279.73,192.61Z" style="fill:#fff"></path></g><path d="M123.69,223.58a9.52,9.52,0,0,1-6.36-2.41l-3.68-3.26a9.61,9.61,0,0,1-.81-13.54,2.41,2.41,0,0,1,3.6,3.19,4.79,4.79,0,0,0,.41,6.75l3.67,3.26a4.79,4.79,0,0,0,6.75-.4,2.41,2.41,0,0,1,3.6,3.19A9.59,9.59,0,0,1,123.69,223.58Z" style="fill:#263238"></path><path d="M149.47,235.48a9.57,9.57,0,0,1-3.18-.54l-4.63-1.63a9.6,9.6,0,0,1-5.86-12.23,2.41,2.41,0,0,1,4.54,1.59,4.76,4.76,0,0,0,2.92,6.1l4.63,1.63a4.79,4.79,0,0,0,6.1-2.92,2.4,2.4,0,1,1,4.53,1.6A9.6,9.6,0,0,1,149.47,235.48Z" style="fill:#263238"></path><path d="M176.75,241.88a10.22,10.22,0,0,1-1.73-.16l-4.83-.88a9.61,9.61,0,0,1-7.71-11.16,2.4,2.4,0,0,1,4.73.86,4.8,4.8,0,0,0,3.84,5.57l4.84.88a4.79,4.79,0,0,0,5.56-3.85,2.4,2.4,0,0,1,4.73.87A9.61,9.61,0,0,1,176.75,241.88Z" style="fill:#263238"></path><path d="M123.69,223.58a9.52,9.52,0,0,1-6.36-2.41l-3.68-3.26a9.61,9.61,0,0,1-.81-13.54,2.41,2.41,0,0,1,3.6,3.19,4.79,4.79,0,0,0,.41,6.75l3.67,3.26a4.79,4.79,0,0,0,6.75-.4,2.41,2.41,0,0,1,3.6,3.19A9.59,9.59,0,0,1,123.69,223.58Z" style="fill:#263238"></path><path d="M149.47,235.48a9.57,9.57,0,0,1-3.18-.54l-4.63-1.63a9.6,9.6,0,0,1-5.86-12.23,2.41,2.41,0,0,1,4.54,1.59,4.76,4.76,0,0,0,2.92,6.1l4.63,1.63a4.79,4.79,0,0,0,6.1-2.92,2.4,2.4,0,1,1,4.53,1.6A9.6,9.6,0,0,1,149.47,235.48Z" style="fill:#263238"></path><path d="M176.75,241.88a10.22,10.22,0,0,1-1.73-.16l-4.83-.88a9.61,9.61,0,0,1-7.71-11.16,2.4,2.4,0,0,1,4.73.86,4.8,4.8,0,0,0,3.84,5.57l4.84.88a4.79,4.79,0,0,0,5.56-3.85,2.4,2.4,0,0,1,4.73.87A9.61,9.61,0,0,1,176.75,241.88Z" style="fill:#263238"></path><g style="opacity:0.6000000000000001"><path d="M123.69,223.58a9.52,9.52,0,0,1-6.36-2.41l-3.68-3.26a9.61,9.61,0,0,1-.81-13.54,2.41,2.41,0,0,1,3.6,3.19,4.79,4.79,0,0,0,.41,6.75l3.67,3.26a4.79,4.79,0,0,0,6.75-.4,2.41,2.41,0,0,1,3.6,3.19A9.59,9.59,0,0,1,123.69,223.58Z" style="fill:#fff"></path><path d="M149.47,235.48a9.57,9.57,0,0,1-3.18-.54l-4.63-1.63a9.6,9.6,0,0,1-5.86-12.23,2.41,2.41,0,0,1,4.54,1.59,4.76,4.76,0,0,0,2.92,6.1l4.63,1.63a4.79,4.79,0,0,0,6.1-2.92,2.4,2.4,0,1,1,4.53,1.6A9.6,9.6,0,0,1,149.47,235.48Z" style="fill:#fff"></path><path d="M176.75,241.88a10.22,10.22,0,0,1-1.73-.16l-4.83-.88a9.61,9.61,0,0,1-7.71-11.16,2.4,2.4,0,0,1,4.73.86,4.8,4.8,0,0,0,3.84,5.57l4.84.88a4.79,4.79,0,0,0,5.56-3.85,2.4,2.4,0,0,1,4.73.87A9.61,9.61,0,0,1,176.75,241.88Z" style="fill:#fff"></path></g><path d="M118.18,212a2.41,2.41,0,0,1-1.23-4.48,1.15,1.15,0,0,0,.54-.73,1.19,1.19,0,0,0-.12-.9l-6.16-10.41a1.15,1.15,0,0,0-.73-.54,1.19,1.19,0,0,0-.9.12,2.41,2.41,0,0,1-2.45-4.14,6,6,0,0,1,8.22,2.11l6.16,10.42a6,6,0,0,1-2.11,8.21A2.4,2.4,0,0,1,118.18,212Z" style="fill:#263238"></path><path d="M142.44,227a2.39,2.39,0,0,1-1.23-.33,2.42,2.42,0,0,1-.84-3.3,1.19,1.19,0,0,0-.41-1.63l-10.4-6.18a1.25,1.25,0,0,0-.9-.13,1.21,1.21,0,0,0-.73.55,2.4,2.4,0,1,1-4.13-2.46,6,6,0,0,1,8.22-2.09l10.4,6.18a6,6,0,0,1,2.09,8.22A2.41,2.41,0,0,1,142.44,227Z" style="fill:#263238"></path><path d="M170.07,234.3a2.46,2.46,0,0,1-.59-.08,2.39,2.39,0,0,1-1.74-2.92,1.18,1.18,0,0,0-.86-1.44l-11.73-3a1.24,1.24,0,0,0-.9.13,1.19,1.19,0,0,0-.54.73l-4.66-1.18a6,6,0,0,1,7.28-4.34l11.73,3a6,6,0,0,1,4.34,7.28A2.4,2.4,0,0,1,170.07,234.3Z" style="fill:#263238"></path><path d="M197.88,237.21h-.23a2.41,2.41,0,0,1-2.17-2.62,1.19,1.19,0,0,0-1.07-1.29l-12-1.12a1.18,1.18,0,0,0-1.3,1.07,2.41,2.41,0,0,1-4.79-.45,6,6,0,0,1,6.53-5.41l12.05,1.12a6,6,0,0,1,5.41,6.53A2.41,2.41,0,0,1,197.88,237.21Z" style="fill:#263238"></path><g style="opacity:0.5"><path d="M118.18,212a2.41,2.41,0,0,1-1.23-4.48,1.15,1.15,0,0,0,.54-.73,1.19,1.19,0,0,0-.12-.9l-6.16-10.41a1.15,1.15,0,0,0-.73-.54,1.19,1.19,0,0,0-.9.12,2.41,2.41,0,0,1-2.45-4.14,6,6,0,0,1,8.22,2.11l6.16,10.42a6,6,0,0,1-2.11,8.21A2.4,2.4,0,0,1,118.18,212Z" style="fill:#fff"></path><path d="M142.44,227a2.39,2.39,0,0,1-1.23-.33,2.42,2.42,0,0,1-.84-3.3,1.19,1.19,0,0,0-.41-1.63l-10.4-6.18a1.25,1.25,0,0,0-.9-.13,1.21,1.21,0,0,0-.73.55,2.4,2.4,0,1,1-4.13-2.46,6,6,0,0,1,8.22-2.09l10.4,6.18a6,6,0,0,1,2.09,8.22A2.41,2.41,0,0,1,142.44,227Z" style="fill:#fff"></path><path d="M170.07,234.3a2.46,2.46,0,0,1-.59-.08,2.39,2.39,0,0,1-1.74-2.92,1.18,1.18,0,0,0-.86-1.44l-11.73-3a1.24,1.24,0,0,0-.9.13,1.19,1.19,0,0,0-.54.73l-4.66-1.18a6,6,0,0,1,7.28-4.34l11.73,3a6,6,0,0,1,4.34,7.28A2.4,2.4,0,0,1,170.07,234.3Z" style="fill:#fff"></path><path d="M197.88,237.21h-.23a2.41,2.41,0,0,1-2.17-2.62,1.19,1.19,0,0,0-1.07-1.29l-12-1.12a1.18,1.18,0,0,0-1.3,1.07,2.41,2.41,0,0,1-4.79-.45,6,6,0,0,1,6.53-5.41l12.05,1.12a6,6,0,0,1,5.41,6.53A2.41,2.41,0,0,1,197.88,237.21Z" style="fill:#fff"></path></g><path d="M109.59,199.23a2.39,2.39,0,0,1-1.59-.6,9.59,9.59,0,0,1-.81-13.54,2.4,2.4,0,1,1,3.59,3.19,4.78,4.78,0,0,0-1.19,3.46,4.72,4.72,0,0,0,1.6,3.29,2.4,2.4,0,0,1-1.6,4.2Z" style="fill:#263238"></path><g style="opacity:0.6000000000000001"><path d="M109.59,199.23a2.39,2.39,0,0,1-1.59-.6,9.59,9.59,0,0,1-.81-13.54,2.4,2.4,0,1,1,3.59,3.19,4.78,4.78,0,0,0-1.19,3.46,4.72,4.72,0,0,0,1.6,3.29,2.4,2.4,0,0,1-1.6,4.2Z" style="fill:#fff"></path></g></g><g id="freepik--Symbol--inject-5"><path d="M175.09,175.36c0-10.91,8.42-18.65,20.2-18.65,7.61,0,13.6,3.3,16.23,9.22l-8.15,4.38a9,9,0,0,0-8.15-5c-5.32,0-9.49,3.7-9.49,10s4.17,10,9.49,10a8.91,8.91,0,0,0,8.15-5l8.15,4.45c-2.63,5.79-8.62,9.15-16.23,9.15C183.51,194,175.09,186.27,175.09,175.36Z" style="fill:#B99B5F"></path><path d="M193.3,211.4a36,36,0,1,1,36-36A36.08,36.08,0,0,1,193.3,211.4Zm0-65.07a29,29,0,1,0,29,29A29.07,29.07,0,0,0,193.3,146.33Z" style="fill:#B99B5F"></path><g style="opacity:0.5"><path d="M175.09,175.36c0-10.91,8.42-18.65,20.2-18.65,7.61,0,13.6,3.3,16.23,9.22l-8.15,4.38a9,9,0,0,0-8.15-5c-5.32,0-9.49,3.7-9.49,10s4.17,10,9.49,10a8.91,8.91,0,0,0,8.15-5l8.15,4.45c-2.63,5.79-8.62,9.15-16.23,9.15C183.51,194,175.09,186.27,175.09,175.36Z"></path><path d="M193.3,211.4a36,36,0,1,1,36-36A36.08,36.08,0,0,1,193.3,211.4Zm0-65.07a29,29,0,1,0,29,29A29.07,29.07,0,0,0,193.3,146.33Z"></path></g></g><g id="freepik--speech-bubble--inject-5"><path d="M385.32,103.11h28a9.63,9.63,0,0,1,9.63,9.63V140a9.64,9.64,0,0,1-9.63,9.64H394.19L387.67,158l0-8.39h-2.39a9.65,9.65,0,0,1-9.64-9.64V112.74A9.64,9.64,0,0,1,385.32,103.11Z" style="fill:#B99B5F"></path><path d="M385.32,103.11h28a9.63,9.63,0,0,1,9.63,9.63V140a9.64,9.64,0,0,1-9.63,9.64H394.19L387.67,158l0-8.39h-2.39a9.65,9.65,0,0,1-9.64-9.64V112.74A9.64,9.64,0,0,1,385.32,103.11Z" style="fill:#fff;opacity:0.6000000000000001"></path><path d="M399.32,111l-15.62,6.29s.22,20.18,15.62,24.73c15.41-4.55,15.62-24.73,15.62-24.73Z" style="fill:#fff"></path><path d="M412.75,118.62s-.19,17.33-13.42,21.25c-13.24-3.92-13.43-21.25-13.43-21.25l13.43-5.41Z" style="fill:#B99B5F"></path><path d="M412.75,118.62s-.19,17.33-13.42,21.25V113.21Z" style="opacity:0.2"></path><path d="M398.1,132.25a1.5,1.5,0,0,1-1.06-.44l-5.44-5.44a1.49,1.49,0,0,1,0-2.12,1.51,1.51,0,0,1,2.12,0l4.34,4.34,6.83-7.28a1.5,1.5,0,0,1,2.19,2l-7.89,8.42a1.53,1.53,0,0,1-1.07.47Z" style="fill:#fff"></path></g></svg>
