<svg xmlns="http://www.w3.org/2000/svg" viewBox="0 0 500 500"><g id="freepik--background-simple--inject-9"><path d="M213.41,130.37c-27.5-11.48-61-4.09-83.28,15.75s-33.31,50.59-32,80.35,14.22,58.37,33.24,81.31c.7.84,1.41,1.68,2.13,2.51C171,353.74,234,364.48,284.65,337.41l2.27-1.23c29.05-15.95,56.71-35.33,78-60.73s35.91-57.3,36.45-90.45S387,117.82,359.57,99.25c-17.75-12-39.57-17.06-61-17.08-17.21,0-34.6,3.15-50,10.75S221,114.9,213.41,130.37Z" style="fill:#B99B5F"></path><path d="M213.41,130.37c-27.5-11.48-61-4.09-83.28,15.75s-33.31,50.59-32,80.35,14.22,58.37,33.24,81.31c.7.84,1.41,1.68,2.13,2.51C171,353.74,234,364.48,284.65,337.41l2.27-1.23c29.05-15.95,56.71-35.33,78-60.73s35.91-57.3,36.45-90.45S387,117.82,359.57,99.25c-17.75-12-39.57-17.06-61-17.08-17.21,0-34.6,3.15-50,10.75S221,114.9,213.41,130.37Z" style="fill:#fff;opacity:0.9"></path></g><g id="freepik--Shadow--inject-9"><ellipse id="freepik--path--inject-9" cx="250" cy="415.69" rx="193.89" ry="11.32" style="fill:#f5f5f5"></ellipse></g><g id="freepik--Plant--inject-9"><path d="M335.89,400.49c-1.6,10.39-4.78,17.52-17.53,17.52s-15.92-7.13-17.52-17.52c-2-12.73,5-33.95,17.52-33.95S337.85,387.76,335.89,400.49Z" style="fill:#B99B5F"></path><path d="M335.89,400.49c-1.6,10.39-4.78,17.52-17.53,17.52s-15.92-7.13-17.52-17.52c-2-12.73,5-33.95,17.52-33.95S337.85,387.76,335.89,400.49Z" style="fill:#fff;opacity:0.7000000000000001"></path><path d="M318,369.3A16.65,16.65,0,0,1,306.46,362a21.75,21.75,0,0,1-3.67-14.48c5-1.74,10.24-1.53,13.79,3.55A19.26,19.26,0,0,1,318,369.3Z" style="fill:#B99B5F"></path><path d="M318,369.3A16.65,16.65,0,0,1,306.46,362a21.75,21.75,0,0,1-3.67-14.48c5-1.74,10.24-1.53,13.79,3.55A19.26,19.26,0,0,1,318,369.3Z" style="opacity:0.30000000000000004"></path><path d="M308.88,363.41c-.93-6.32-7.65-10.62-14-10.54a22.64,22.64,0,0,0-11.55,3.7,6,6,0,0,0-.72,9.63,16.33,16.33,0,0,0,9.07,3.92C297.68,370.71,304.61,367.74,308.88,363.41Z" style="fill:#B99B5F"></path><path d="M308.88,363.41c-.93-6.32-7.65-10.62-14-10.54a22.64,22.64,0,0,0-11.55,3.7,6,6,0,0,0-.72,9.63,16.33,16.33,0,0,0,9.07,3.92C297.68,370.71,304.61,367.74,308.88,363.41Z" style="opacity:0.2"></path><path d="M313.32,368.27a6.57,6.57,0,0,0-8.8-5.95,19.23,19.23,0,0,0-12.83,18.24,7.45,7.45,0,0,0,8.58,7.41,13.85,13.85,0,0,0,5.3-2,18,18,0,0,0,7.15-10.42A25.88,25.88,0,0,0,313.32,368.27Z" style="fill:#B99B5F"></path><path d="M313.32,368.27a6.57,6.57,0,0,0-8.8-5.95,19.23,19.23,0,0,0-12.83,18.24,7.45,7.45,0,0,0,8.58,7.41,13.85,13.85,0,0,0,5.3-2,18,18,0,0,0,7.15-10.42A25.88,25.88,0,0,0,313.32,368.27Z" style="fill:#B99B5F"></path><path d="M337.41,350.44a16.44,16.44,0,0,0-12.33.19,16.23,16.23,0,0,0-4,2.45,7.4,7.4,0,0,0,2.18,12.72,11.59,11.59,0,0,0,9-.33C338,362.66,340.68,355.92,337.41,350.44Z" style="fill:#B99B5F"></path><path d="M337.41,350.44a16.44,16.44,0,0,0-12.33.19,16.23,16.23,0,0,0-4,2.45,7.4,7.4,0,0,0,2.18,12.72,11.59,11.59,0,0,0,9-.33C338,362.66,340.68,355.92,337.41,350.44Z" style="opacity:0.30000000000000004"></path><path d="M332.17,356.55c-1.67,1.45-3.39,2.95-4.19,5.29a6.17,6.17,0,0,0-.3,2.82c.41,2.87,2.65,3.79,4.7,4.34a36.75,36.75,0,0,0,21-.62,4,4,0,0,0,1.86-6.36,22,22,0,0,0-8.19-6.42C342.75,353.78,335.87,353.35,332.17,356.55Z" style="fill:#B99B5F"></path><path d="M332.17,356.55c-1.67,1.45-3.39,2.95-4.19,5.29a6.17,6.17,0,0,0-.3,2.82c.41,2.87,2.65,3.79,4.7,4.34a36.75,36.75,0,0,0,21-.62,4,4,0,0,0,1.86-6.36,22,22,0,0,0-8.19-6.42C342.75,353.78,335.87,353.35,332.17,356.55Z" style="opacity:0.2"></path><path d="M334.81,363.79a5.71,5.71,0,0,0-6.85,4.09,10.83,10.83,0,0,0,.21,6.05,14.51,14.51,0,0,0,8.16,8.33,21.79,21.79,0,0,0,6.25,1.6,5,5,0,0,0,5.57-5.5,18.78,18.78,0,0,0-3.34-9.05C342.55,366.24,338.7,364.73,334.81,363.79Z" style="fill:#B99B5F"></path><path d="M334.81,363.79a5.71,5.71,0,0,0-6.85,4.09,10.83,10.83,0,0,0,.21,6.05,14.51,14.51,0,0,0,8.16,8.33,21.79,21.79,0,0,0,6.25,1.6,5,5,0,0,0,5.57-5.5,18.78,18.78,0,0,0-3.34-9.05C342.55,366.24,338.7,364.73,334.81,363.79Z" style="fill:#B99B5F"></path><path d="M322.8,363.71c-2.62-3-7.85-2.79-10.78,0s-3.71,7.26-2.75,11.16,3.39,7.27,6.12,10.21c1.16,1.26,2.39,2.46,3.67,3.6a7.57,7.57,0,0,0,12.32-3.73l0-.1c1.12-4.06,2.26-8.28,1.57-12.44S327,364.15,322.8,363.71Z" style="fill:#B99B5F"></path><path d="M322.8,363.71c-2.62-3-7.85-2.79-10.78,0s-3.71,7.26-2.75,11.16,3.39,7.27,6.12,10.21c1.16,1.26,2.39,2.46,3.67,3.6a7.57,7.57,0,0,0,12.32-3.73l0-.1c1.12-4.06,2.26-8.28,1.57-12.44S327,364.15,322.8,363.71Z" style="fill:#fff;opacity:0.1"></path><path d="M323.74,366.6a41.34,41.34,0,0,1,2.7,20.59,75.49,75.49,0,0,0-4.56-21.77A2.19,2.19,0,0,1,323.74,366.6Z" style="fill:#fff;opacity:0.2"></path><path d="M307,366a39.68,39.68,0,0,0-9.23,16.41A29.55,29.55,0,0,1,305.39,366C305.81,365.5,306.46,365.7,307,366Z" style="fill:#fff;opacity:0.2"></path><path d="M302.44,360.23a22.24,22.24,0,0,0-7.15-2.61c-3.68-.43-7.32,1.24-10.75,2.65a34.48,34.48,0,0,1,8.95-3.45,11.65,11.65,0,0,1,9.18,1.77C302.61,359.16,302.5,359.66,302.44,360.23Z" style="fill:#fff;opacity:0.2"></path><path d="M344.42,377.43a39.75,39.75,0,0,0-4.7-7.24,13.26,13.26,0,0,0-7.2-4.49c.83,0,1.83-.25,2.67-.25a20.92,20.92,0,0,1,9.31,12.19C344.58,377.45,344.34,377.62,344.42,377.43Z" style="fill:#fff;opacity:0.2"></path><path d="M314.82,360.47a22.23,22.23,0,0,0-9.51-11.68,20.6,20.6,0,0,1,7.15,9.91c.22.66.22,1.46.45,2.11A1.76,1.76,0,0,0,314.82,360.47Z" style="fill:#fff;opacity:0.2"></path><path d="M334.87,351.67a16.88,16.88,0,0,0-10.56,9.68c.36.17.36.35.72.53.44-2.43,2.38-4.33,4.31-5.87S333,353.31,334.87,351.67Z" style="fill:#fff;opacity:0.2"></path><path d="M353.22,363.44c-2.3-3.51-6.6-5.37-10.79-5.49a25,25,0,0,0-12.06,3.22v1.42a18.15,18.15,0,0,1,11.38-3.32A19.21,19.21,0,0,1,353.22,363.44Z" style="fill:#fff;opacity:0.2"></path></g><g id="freepik--Certificate--inject-9"><path d="M314.86,318.4h-145a8.41,8.41,0,0,1-8.5-9.13L177,86.59a10,10,0,0,1,9.78-9.14h145a8.41,8.41,0,0,1,8.5,9.14L324.64,309.27A10,10,0,0,1,314.86,318.4Z" style="fill:#B99B5F"></path><path d="M309.27,307.7H177.65a8.4,8.4,0,0,1-8.49-9.13l14.19-203a10,10,0,0,1,9.77-9.14H324.74a8.42,8.42,0,0,1,8.5,9.14l-14.2,203A10,10,0,0,1,309.27,307.7Z" style="fill:#fff;opacity:0.7000000000000001"></path><polyline points="265.38 77.45 174.15 318.4 208.12 318.4 297.58 77.45" style="fill:#fff;opacity:0.2"></polyline><polyline points="310.73 77.45 219.5 318.4 242.45 318.4 331.91 77.45" style="fill:#fff;opacity:0.2"></polyline><path d="M218,96.53h2.42l-.91,13.06h-2.43Z" style="fill:#263238"></path><path d="M222,108.21l1-1.88a6.77,6.77,0,0,0,4.21,1.43c2,0,2.94-.72,3-1.69.19-2.82-7.7-1-7.36-5.83.15-2.1,1.95-3.9,5.54-3.9a7.79,7.79,0,0,1,4.26,1.16l-.89,1.89a6.89,6.89,0,0,0-3.53-1c-2,0-2.89.78-3,1.77-.2,2.78,7.67,1,7.34,5.77-.15,2.09-2,3.88-5.55,3.88A7.92,7.92,0,0,1,222,108.21Z" style="fill:#263238"></path><path d="M234.3,103.06a7.28,7.28,0,0,1,7.51-6.72c4.05,0,6.84,2.84,6.57,6.72a7.28,7.28,0,0,1-7.51,6.72C236.82,109.78,234,106.92,234.3,103.06Zm11.63,0a4.1,4.1,0,0,0-4.27-4.59,4.84,4.84,0,0,0-4.91,4.59,4.1,4.1,0,0,0,4.27,4.59A4.84,4.84,0,0,0,245.93,103.06Z" style="fill:#263238"></path><path d="M265.25,102.84c-.31,4.48-3.1,6.94-6.89,6.94a6.24,6.24,0,0,1-3.37-.84l1-1.83a4.21,4.21,0,0,0,2.44.64c2.46,0,4.12-1.53,4.33-4.5v0a4.79,4.79,0,0,1-3.59,1.36c-2.57,0-4.39-1.57-4.22-4,.19-2.59,2.41-4.24,5.08-4.24C263.61,96.34,265.54,98.64,265.25,102.84Zm-2.65-2.39c.08-1.23-.82-2.2-2.55-2.2a2.47,2.47,0,0,0-2.72,2.22c-.09,1.36.88,2.22,2.46,2.22A2.58,2.58,0,0,0,262.6,100.45Z" style="fill:#263238"></path><path d="M266.88,103.06c.3-4.29,2.82-6.72,5.92-6.72s5.3,2.43,5,6.72-2.82,6.72-5.94,6.72S266.58,107.35,266.88,103.06Zm8.47,0c.22-3.15-.91-4.61-2.7-4.61s-3.11,1.46-3.33,4.61.91,4.61,2.69,4.61S275.13,106.22,275.35,103.06Z" style="fill:#263238"></path><path d="M279.44,103.06c.3-4.29,2.82-6.72,5.92-6.72s5.3,2.43,5,6.72-2.82,6.72-5.94,6.72S279.14,107.35,279.44,103.06Zm8.47,0c.23-3.15-.9-4.61-2.7-4.61s-3.1,1.46-3.32,4.61.91,4.61,2.68,4.61S287.69,106.22,287.91,103.06Z" style="fill:#263238"></path><path d="M296.89,96.53,296,109.59h-2.42l.77-11h-2.76l.14-2Z" style="fill:#263238"></path><path d="M215.11,120.42A4.75,4.75,0,0,1,220,116a4,4,0,0,1,3.29,1.43l-1.1,1a2.78,2.78,0,0,0-2.21-1,3.18,3.18,0,0,0-3.28,3,2.7,2.7,0,0,0,2.85,3,3.18,3.18,0,0,0,2.36-1l1,1a4.65,4.65,0,0,1-3.5,1.43A4,4,0,0,1,215.11,120.42Z" style="fill:#B99B5F"></path><path d="M230.84,123.37l-.1,1.33h-6.42l.6-8.57h6.25l-.09,1.34h-4.66l-.16,2.22h4.14l-.1,1.31h-4.13l-.17,2.37Z" style="fill:#B99B5F"></path><path d="M238.12,124.7l-1.57-2.51h-2.27l-.17,2.5h-1.59l.6-8.57h3.52c2.25,0,3.57,1.15,3.43,3.05a3,3,0,0,1-2,2.71l1.78,2.81Zm-1.65-7.22h-1.86l-.24,3.41h1.86c1.4,0,2.17-.63,2.24-1.71S237.87,117.48,236.47,117.48Z" style="fill:#B99B5F"></path><path d="M243.58,117.48h-2.84l.1-1.35h7.27l-.1,1.35h-2.84l-.5,7.22h-1.59Z" style="fill:#B99B5F"></path><path d="M249.3,116.13h1.59l-.59,8.57h-1.6Z" style="fill:#B99B5F"></path><path d="M254.7,117.47l-.18,2.6h4.14l-.1,1.35h-4.13l-.23,3.28h-1.59l.6-8.57h6.25l-.09,1.34Z" style="fill:#B99B5F"></path><path d="M261,116.13h1.59l-.6,8.57H260.4Z" style="fill:#B99B5F"></path><path d="M264,120.42a4.75,4.75,0,0,1,4.9-4.41,4,4,0,0,1,3.29,1.43l-1.1,1a2.78,2.78,0,0,0-2.21-1,3.17,3.17,0,0,0-3.27,3,2.69,2.69,0,0,0,2.84,3,3.18,3.18,0,0,0,2.36-1l1,1a4.65,4.65,0,0,1-3.5,1.43A4,4,0,0,1,264,120.42Z" style="fill:#B99B5F"></path><path d="M278.71,122.72h-4.28l-1,2H271.8l4.46-8.57h1.56l3.27,8.57h-1.66Zm-.44-1.25-1.35-3.75-1.87,3.75Z" style="fill:#B99B5F"></path><path d="M284,117.48h-2.84l.09-1.35h7.27l-.1,1.35h-2.83l-.51,7.22h-1.59Z" style="fill:#B99B5F"></path><path d="M295.64,123.37l-.1,1.33h-6.42l.6-8.57H296l-.09,1.34h-4.67l-.15,2.22h4.14l-.1,1.31H291l-.17,2.37Z" style="fill:#B99B5F"></path><path d="M299,156.53a8.13,8.13,0,0,1-8.21-8.83,9.55,9.55,0,0,1,9.37-8.76,8.13,8.13,0,0,1,8.22,8.83A9.56,9.56,0,0,1,299,156.53Zm1.16-16.59a8.54,8.54,0,0,0-8.38,7.83,7.14,7.14,0,0,0,7.22,7.76,8.54,8.54,0,0,0,8.38-7.83,7.12,7.12,0,0,0-7.22-7.76Z" style="fill:#B99B5F"></path><path d="M293.83,145.88s5.27,6.41,5.19,5.7l.53-.59a59.44,59.44,0,0,1,14.67-12.1l1-.62c-7.59,1.32-16,9.69-16,9.69l-2.3-3Z" style="fill:#263238"></path><path d="M296.48,192.64a8.13,8.13,0,0,1-8.22-8.83h0a9.56,9.56,0,0,1,9.38-8.76,8.13,8.13,0,0,1,8.21,8.83A9.55,9.55,0,0,1,296.48,192.64Zm-7.22-8.76a7.12,7.12,0,0,0,7.22,7.76,8.53,8.53,0,0,0,8.37-7.83,7.12,7.12,0,0,0-7.21-7.76,8.54,8.54,0,0,0-8.38,7.83Z" style="fill:#B99B5F"></path><path d="M291.31,182s5.26,6.42,5.19,5.7l.52-.59A59.49,59.49,0,0,1,311.7,175l1.05-.61c-7.6,1.31-16,9.68-16,9.68l-2.29-3Z" style="fill:#263238"></path><path d="M294,228.76a8.13,8.13,0,0,1-8.21-8.84,9.55,9.55,0,0,1,9.37-8.76,8.15,8.15,0,0,1,8.22,8.83A9.56,9.56,0,0,1,294,228.76Zm1.16-16.6a8.55,8.55,0,0,0-8.38,7.83h0a7.15,7.15,0,0,0,7.22,7.76,8.54,8.54,0,0,0,8.38-7.83,7.15,7.15,0,0,0-7.22-7.77Z" style="fill:#B99B5F"></path><path d="M288.78,218.1s5.27,6.42,5.19,5.71l.53-.6a59.66,59.66,0,0,1,14.67-12.1l1.05-.61c-7.59,1.32-16,9.68-16,9.68l-2.3-3Z" style="fill:#263238"></path><rect x="208.37" y="137.96" width="38.5" height="1" style="fill:#B99B5F"></rect><rect x="255.85" y="137.96" width="23.23" height="1" style="fill:#B99B5F"></rect><rect x="197.19" y="146.61" width="21.09" height="1" style="fill:#B99B5F"></rect><rect x="225.8" y="146.61" width="50.87" height="1" style="fill:#B99B5F"></rect><rect x="196.12" y="155.26" width="53.59" height="1" style="fill:#B99B5F"></rect><rect x="258.08" y="155.26" width="17.51" height="1" style="fill:#B99B5F"></rect><rect x="195.37" y="163.91" width="13.91" height="1" style="fill:#B99B5F"></rect><rect x="205.85" y="173.96" width="38.5" height="1" style="fill:#B99B5F"></rect><rect x="253.34" y="173.96" width="23.23" height="1" style="fill:#B99B5F"></rect><rect x="194.67" y="182.61" width="21.09" height="1" style="fill:#B99B5F"></rect><rect x="223.28" y="182.61" width="50.87" height="1" style="fill:#B99B5F"></rect><rect x="193.6" y="191.26" width="53.59" height="1" style="fill:#B99B5F"></rect><rect x="255.56" y="191.26" width="17.51" height="1" style="fill:#B99B5F"></rect><rect x="192.85" y="199.91" width="13.91" height="1" style="fill:#B99B5F"></rect><rect x="205.14" y="209.95" width="38.5" height="1" style="fill:#B99B5F"></rect><rect x="252.62" y="209.95" width="23.23" height="1" style="fill:#B99B5F"></rect><rect x="193.96" y="218.6" width="21.09" height="1" style="fill:#B99B5F"></rect><rect x="222.56" y="218.6" width="50.87" height="1" style="fill:#B99B5F"></rect><rect x="192.88" y="227.25" width="53.59" height="1" style="fill:#B99B5F"></rect><rect x="254.85" y="227.25" width="17.51" height="1" style="fill:#B99B5F"></rect><rect x="192.14" y="235.9" width="13.91" height="1" style="fill:#B99B5F"></rect><path d="M267.89,285.29a2.15,2.15,0,0,1-.95-.21c-1.26-.61-1.45-2.27-1.09-3.65a10.43,10.43,0,0,1,3.12-4.89,21,21,0,0,1,4.8-3.14c1.82-.9,4.19-1.87,6.41-1.29l.4.13a4.18,4.18,0,0,0-1.37-4.37,6.84,6.84,0,0,0-6.13-.7,11.71,11.71,0,0,0-6.92,5.75.5.5,0,0,1-.68.21.49.49,0,0,1-.21-.67,12.79,12.79,0,0,1,7.53-6.25,7.8,7.8,0,0,1,7,.87,5.15,5.15,0,0,1,1.66,5.59,4.87,4.87,0,0,1,1.95,2.21,5.13,5.13,0,0,1,.42,2.13,1.6,1.6,0,0,1,1.82-.08.39.39,0,0,1,.1.08,4.21,4.21,0,0,1,.68-1,2.46,2.46,0,0,1,3-.62,1.86,1.86,0,0,1,.71.92c2.11-3.6,4.5-5,8.34-5.14a.5.5,0,1,1,0,1c-3.43.1-5.9,1.16-8.37,6.28a.5.5,0,0,1-.92-.38,1.69,1.69,0,0,0-.34-1.84,1.51,1.51,0,0,0-1.71.46,5.77,5.77,0,0,0-1.05,2.17.49.49,0,0,1-.62.32.5.5,0,0,1-.33-.62c.09-.31.09-.69-.1-.83s-.57,0-.83.24a5.05,5.05,0,0,0-.79,1l-.12.29a.5.5,0,0,1-.64.25.49.49,0,0,1-.29-.62,3.45,3.45,0,0,1,.14-.34,4.4,4.4,0,0,0,0-3.27,4,4,0,0,0-1.47-1.71,3.88,3.88,0,0,1-.23.33c-2.88,3.75-6.12,7.6-10.36,10.4A5,5,0,0,1,267.89,285.29Zm10.87-12.35a10.72,10.72,0,0,0-4.54,1.36,19.53,19.53,0,0,0-4.57,3,9.47,9.47,0,0,0-2.84,4.41c-.24.95-.17,2.13.57,2.49.56.27,1.39,0,2.53-.71,4.11-2.72,7.29-6.5,10.12-10.18l.11-.15-.22-.06A4.55,4.55,0,0,0,278.76,272.94Z" style="fill:#263238"></path><path d="M298.74,293H263.58a.51.51,0,0,1-.5-.5.5.5,0,0,1,.5-.5h35.16a.5.5,0,0,1,.5.5A.5.5,0,0,1,298.74,293Z" style="fill:#263238"></path></g><g id="freepik--Badge--inject-9"><circle cx="210.77" cy="276.82" r="30.08" transform="translate(-134 230.12) rotate(-45)" style="fill:#B99B5F"></circle><circle cx="210.77" cy="276.82" r="30.08" transform="translate(-134 230.12) rotate(-45)" style="opacity:0.30000000000000004"></circle><polygon points="197.72 286.94 197.72 335.96 210.96 322.72 224.13 335.89 224.13 286.7 197.72 286.94" style="fill:#263238"></polygon><circle cx="210.77" cy="276.93" r="27.13" style="fill:#B99B5F"></circle><g style="opacity:0.2"><path d="M207.44,255.18h0a4.49,4.49,0,0,1,6.63-.05h0a4.49,4.49,0,0,0,4.69,1.22h0a4.48,4.48,0,0,1,5.77,3.27h0A4.5,4.5,0,0,0,228,263h0a4.48,4.48,0,0,1,3.36,5.72h0a4.5,4.5,0,0,0,1.29,4.67h0a4.48,4.48,0,0,1,.05,6.63h0a4.49,4.49,0,0,0-1.21,4.69h0a4.49,4.49,0,0,1-3.28,5.77h0A4.5,4.5,0,0,0,224.8,294h0a4.48,4.48,0,0,1-5.72,3.36h0a4.49,4.49,0,0,0-4.67,1.29h0a4.5,4.5,0,0,1-6.64.06h0a4.46,4.46,0,0,0-4.68-1.22h0a4.49,4.49,0,0,1-5.77-3.27h0a4.49,4.49,0,0,0-3.46-3.4h0a4.5,4.5,0,0,1-3.36-5.72h0a4.47,4.47,0,0,0-1.29-4.67h0a4.48,4.48,0,0,1-.05-6.63h0a4.48,4.48,0,0,0,1.22-4.68h0a4.48,4.48,0,0,1,3.27-5.77h0a4.49,4.49,0,0,0,3.4-3.46h0a4.49,4.49,0,0,1,5.72-3.36h0A4.48,4.48,0,0,0,207.44,255.18Z"></path></g><polygon points="210.92 256.59 217.49 252.38 221.07 259.31 228.87 258.95 228.5 266.74 235.44 270.32 231.22 276.89 235.44 283.46 228.5 287.04 228.87 294.84 221.07 294.48 217.49 301.41 210.92 297.19 204.35 301.41 200.77 294.48 192.98 294.84 193.34 287.04 186.41 283.46 190.62 276.89 186.41 270.32 193.34 266.74 192.98 258.95 200.77 259.31 204.35 252.38 210.92 256.59" style="fill:#B99B5F"></polygon><g style="opacity:0.1"><polygon points="210.92 256.59 217.49 252.38 221.07 259.31 228.87 258.95 228.5 266.74 235.44 270.32 231.22 276.89 235.44 283.46 228.5 287.04 228.87 294.84 221.07 294.48 217.49 301.41 210.92 297.19 204.35 301.41 200.77 294.48 192.98 294.84 193.34 287.04 186.41 283.46 190.62 276.89 186.41 270.32 193.34 266.74 192.98 258.95 200.77 259.31 204.35 252.38 210.92 256.59" style="fill:#fff"></polygon></g><circle cx="210.77" cy="276.89" r="15.9" style="opacity:0.30000000000000004"></circle><path d="M220.07,274h-3.45a1.32,1.32,0,0,1-1.22-1.84l.59-1.37a2.29,2.29,0,0,0,.16-1.09l-.16-1.35a3.33,3.33,0,0,0-3.31-3h0a1.31,1.31,0,0,0-1.32,1.25l-.12,2.25a1.31,1.31,0,0,1-.28.75l-3.68,4.64a3,3,0,0,0-.66,1.72l-.4,7.62a3.39,3.39,0,0,0,3.41,3.6h7.16a2.7,2.7,0,0,0,2-.91l.57-.63a4,4,0,0,0,.94-1.83l1.66-7.41a1.28,1.28,0,0,0-.22-1.07l-.61-.83A1.31,1.31,0,0,0,220.07,274Z" style="fill:#fff"></path><path d="M204.23,274h-2.09a1.9,1.9,0,0,0-1.88,1.79l-.51,9.64a1.68,1.68,0,0,0,1.7,1.79h2.09a1.92,1.92,0,0,0,1.88-1.79l.5-9.64A1.68,1.68,0,0,0,204.23,274Z" style="fill:#263238"></path></g><g id="freepik--Sparkles--inject-9"><path d="M284.33,346.37A33.27,33.27,0,0,0,285,342c.61-4.94,3.55-8.77,7.24-9.52l2.67-.55s-4.19,0-5.93-1.22c-3.71-2.59-4.56-10.24-4.56-10.24s-1,7.65-4.73,10.24c-1.75,1.22-5.94,1.22-5.94,1.22l2.67.55c3.7.75,6.63,4.58,7.24,9.52A35.36,35.36,0,0,0,284.33,346.37Z" style="fill:#B99B5F"></path><g style="opacity:0.7000000000000001"><path d="M284.33,346.37A33.27,33.27,0,0,0,285,342c.61-4.94,3.55-8.77,7.24-9.52l2.67-.55s-4.19,0-5.93-1.22c-3.71-2.59-4.56-10.24-4.56-10.24s-1,7.65-4.73,10.24c-1.75,1.22-5.94,1.22-5.94,1.22l2.67.55c3.7.75,6.63,4.58,7.24,9.52A35.36,35.36,0,0,0,284.33,346.37Z" style="fill:#fff"></path></g><path d="M360.48,102a44.23,44.23,0,0,0,.87-5.7c.8-6.44,4.62-11.42,9.43-12.4l3.47-.71s-5.45,0-7.72-1.59c-4.82-3.38-5.93-13.34-5.93-13.34s-1.35,10-6.17,13.34c-2.27,1.59-7.72,1.59-7.72,1.59l3.47.71c4.81,1,8.63,6,9.43,12.4A44.23,44.23,0,0,0,360.48,102Z" style="fill:#B99B5F"></path><g style="opacity:0.7000000000000001"><path d="M360.48,102a44.23,44.23,0,0,0,.87-5.7c.8-6.44,4.62-11.42,9.43-12.4l3.47-.71s-5.45,0-7.72-1.59c-4.82-3.38-5.93-13.34-5.93-13.34s-1.35,10-6.17,13.34c-2.27,1.59-7.72,1.59-7.72,1.59l3.47.71c4.81,1,8.63,6,9.43,12.4A44.23,44.23,0,0,0,360.48,102Z" style="fill:#fff"></path></g><path d="M158.37,125.93a35.36,35.36,0,0,0,.67-4.38c.61-5,3.54-8.77,7.24-9.53l2.67-.54s-4.19,0-5.94-1.22c-3.7-2.59-4.55-10.25-4.55-10.25s-1,7.66-4.74,10.25c-1.74,1.22-5.93,1.22-5.93,1.22l2.67.54c3.69.76,6.63,4.58,7.24,9.53A33.27,33.27,0,0,0,158.37,125.93Z" style="fill:#B99B5F"></path><g style="opacity:0.7000000000000001"><path d="M158.37,125.93a35.36,35.36,0,0,0,.67-4.38c.61-5,3.54-8.77,7.24-9.53l2.67-.54s-4.19,0-5.94-1.22c-3.7-2.59-4.55-10.25-4.55-10.25s-1,7.66-4.74,10.25c-1.74,1.22-5.93,1.22-5.93,1.22l2.67.54c3.69.76,6.63,4.58,7.24,9.53A33.27,33.27,0,0,0,158.37,125.93Z" style="fill:#fff"></path></g></g><g id="freepik--character-2--inject-9"><path d="M359.1,176,353,199.4,331.7,184.63s-2.83,4-3.31,5.77c0,0,20.74,21,28,17.51S368.56,176,368.56,176Z" style="fill:#ff887b"></path><path d="M326.74,192.16a13.92,13.92,0,0,1-5.1-1l-1.82-.71a2,2,0,0,1-1.06-1.75v-5.28c0-1.23.8-2.5,2-2.28l8.08-.3,5.13,5.34-3.47,5.95Z" style="fill:#ff887b"></path><path d="M329.18,181.5a15,15,0,0,1-1.34-4.58,1,1,0,0,0-1.16-1h0a1,1,0,0,0-.84,1l-.1,4.93a1,1,0,0,0,.76,1l2.41.6.33-1.29A1.07,1.07,0,0,0,329.18,181.5Z" style="fill:#ff887b"></path><path d="M390.07,160.54c-1-1.64-1.36-3.32-2.35-5-.15,0,6.34-1.06,10.53-11.38,6.24-3.33-2.24,9.82-5.26,13.46,3.8.45,7,4.08,7.38,7.89.33,2.94-2.47,5.67-4.78,7.54A17.92,17.92,0,0,1,390.07,160.54Z" style="fill:#263238"></path><g id="freepik--freepik--character-1--inject-22--inject-9"><polygon points="388.17 407.99 379.65 408.47 379.33 399.24 387.85 398.77 388.17 407.99" style="fill:#ff887b"></polygon><polygon points="379.33 397.88 379.48 402.17 388 401.66 387.85 397.4 379.33 397.88" style="opacity:0.2"></polygon><path d="M379.17,406.77l9.64-.17a.74.74,0,0,1,.74.57l1.8,7.61a1.27,1.27,0,0,1-1,1.52l-.27,0c-3.38,0-5-.17-9.26-.1-2.61,0-9.37.44-13,.5s-4.13-3.5-2.66-3.85c6.62-1.56,10.45-3.62,12.55-5.57A2.06,2.06,0,0,1,379.17,406.77Z" style="fill:#263238"></path><polygon points="409.16 407.99 400.64 408.47 400.32 399.24 408.84 398.77 409.16 407.99" style="fill:#ff887b"></polygon><polygon points="400.32 397.88 400.47 402.17 408.99 401.66 408.84 397.4 400.32 397.88" style="opacity:0.2"></polygon><path d="M400.16,406.77l9.64-.17a.74.74,0,0,1,.74.57l1.8,7.61a1.26,1.26,0,0,1-1,1.52l-.27,0c-3.37,0-5-.17-9.26-.1-2.61,0-9.37.44-13,.5s-4.13-3.5-2.66-3.85c6.62-1.56,10.45-3.62,12.55-5.57A2.06,2.06,0,0,1,400.16,406.77Z" style="fill:#263238"></path><path d="M377.92,400.56l11.38-.87s6.05-43.11-1.3-81.94c.8-30.35,3.36-94.42,3.36-94.42l-27.53-.11c-1.73,10.27-.75,70,2.93,99.7Z" style="fill:#263238"></path><path d="M387.48,255.54l-7.84.49c-1.23,9.25,2.94,28.66,6.89,40C386.91,284.15,387,267.24,387.48,255.54Z" style="opacity:0.2"></path><path d="M398.82,400.56l11.39-.87s5.57-46.82-1.22-79.23c.45-16.94,1.5-54.73,2.24-72.63a23.62,23.62,0,0,0-23.53-24.59l-3,0c-1.72,10.27-2.06,77.3,1.22,99.34Z" style="fill:#263238"></path><path d="M360.87,166.7c-1.3.66-7.79,19.94-7.79,19.94L367,193.29s3.77-16.21,5.37-21.55C374,166.18,365.29,163,360.87,166.7Z" style="fill:#B99B5F"></path><path d="M360.87,166.7c-2,1.87-7.79,19.94-7.79,19.94L367,193.29s3.77-16.21,5.37-21.55C374,166.18,365.29,163,360.87,166.7Z" style="fill:#fff;opacity:0.6000000000000001"></path><path d="M362.14,172.25A76.19,76.19,0,0,0,359.62,183a10.88,10.88,0,0,0,0,2.55c.52,4.38,2.6,21.6,3.56,29.38.18,1.49.47,6.44-1,16.75a250.61,250.61,0,0,0-1.69,25.51l53.82-3.4c-1.77-23.08-13.11-37-13.1-40.23,0-9.57,1-19.36,5.21-38.1a8,8,0,0,0-6.09-9.56c-.24,0-.48-.09-.73-.12-2.25-.3-4.75-.57-7.29-.7a120.49,120.49,0,0,0-17.1-.06c-4,.35-4.57-.31-7.64.21-2.63.48-3.65,2.82-5.1,6.09A8.88,8.88,0,0,0,362.14,172.25Z" style="fill:#B99B5F"></path><path d="M361.58,173.86a63.18,63.18,0,0,0-2,9.12,10.36,10.36,0,0,0,0,2.55c.53,4.38,2.6,21.6,3.56,29.38.18,1.49.47,6.44-1,16.75a250.61,250.61,0,0,0-1.69,25.51l53.82-3.4c-1.77-23.08-13.11-37-13.1-40.23,0-9.57,1-19.36,5.21-38.1a8,8,0,0,0-6.09-9.56c-.24,0-.48-.09-.73-.12-2.25-.3-4.75-.57-7.29-.7a120.49,120.49,0,0,0-17.1-.06c-4,.35-4.57-.31-7.64.21S363,169.39,361.58,173.86Z" style="fill:#fff;opacity:0.7000000000000001"></path><polygon points="364.26 221.11 401.71 220.85 401.71 224.43 364.26 224.43 364.26 221.11" style="fill:#263238"></polygon><path d="M396.89,225.4l1,0c.2,0,.36-.11.35-.23l-.46-4.38c0-.13-.2-.24-.4-.24l-1,0c-.2,0-.35.1-.34.24l.46,4.37C396.51,225.3,396.68,225.4,396.89,225.4Z" style="fill:#B99B5F"></path><path d="M366.5,225.29l1,0c.2,0,.36-.1.34-.23l-.46-4.38c0-.13-.19-.23-.39-.23h-1c-.2,0-.36.1-.34.24l.46,4.37C366.13,225.18,366.3,225.28,366.5,225.29Z" style="fill:#B99B5F"></path><path d="M381.69,225.34l1,0c.2,0,.36-.1.34-.23l-.46-4.37c0-.13-.19-.23-.39-.23l-1,0c-.2,0-.35.11-.34.23l.46,4.38A.38.38,0,0,0,381.69,225.34Z" style="fill:#B99B5F"></path><g style="opacity:0.7000000000000001"><path d="M396.89,225.4l1,0c.2,0,.36-.11.35-.23l-.46-4.38c0-.13-.2-.24-.4-.24l-1,0c-.2,0-.35.1-.34.24l.46,4.37C396.51,225.3,396.68,225.4,396.89,225.4Z" style="fill:#fff"></path><path d="M366.5,225.29l1,0c.2,0,.36-.1.34-.23l-.46-4.38c0-.13-.19-.23-.39-.23h-1c-.2,0-.36.1-.34.24l.46,4.37C366.13,225.18,366.3,225.28,366.5,225.29Z" style="fill:#fff"></path><path d="M381.69,225.34l1,0c.2,0,.36-.1.34-.23l-.46-4.37c0-.13-.19-.23-.39-.23l-1,0c-.2,0-.35.11-.34.23l.46,4.38A.38.38,0,0,0,381.69,225.34Z" style="fill:#fff"></path></g><path d="M377.21,183.41a1.23,1.23,0,1,1-1.22-1.23A1.22,1.22,0,0,1,377.21,183.41Z" style="fill:#B99B5F"></path><path d="M377.21,197.6a1.23,1.23,0,1,1-1.22-1.23A1.22,1.22,0,0,1,377.21,197.6Z" style="fill:#B99B5F"></path><path d="M378.56,210.38a1.23,1.23,0,1,1-1.23-1.22A1.23,1.23,0,0,1,378.56,210.38Z" style="fill:#B99B5F"></path><path d="M376.34,230.93,355,232.55a1.66,1.66,0,0,1-1.73-1.34l-5.93-32.44a1.31,1.31,0,0,1,1.21-1.57l21.32-1.63a1.69,1.69,0,0,1,1.74,1.35l5.92,32.44A1.3,1.3,0,0,1,376.34,230.93Z" style="fill:#263238"></path><path d="M362.24,198.76l-5.1.39a2.11,2.11,0,0,1-2.18-1.68l-.54-3,8.78-.67.55,3A1.62,1.62,0,0,1,362.24,198.76Z" style="fill:#263238"></path><path d="M362.24,198.76l-5.1.39a2.11,2.11,0,0,1-2.18-1.68l-.54-3,8.78-.67.55,3A1.62,1.62,0,0,1,362.24,198.76Z" style="fill:#fff;opacity:0.7000000000000001"></path><path d="M370.87,195.61l-1,.07A1.67,1.67,0,0,1,371.6,197l5.93,32.44a1.31,1.31,0,0,1-1.21,1.57l1-.07a1.31,1.31,0,0,0,1.21-1.58L372.61,197A1.68,1.68,0,0,0,370.87,195.61Z" style="fill:#fff"></path><path d="M409.36,171.75c.78,5,1.38,9.86,1.83,14.85.23,2.48.44,5,.51,7.54a64.07,64.07,0,0,1-.05,8,22.21,22.21,0,0,1-.34,2.45,10.26,10.26,0,0,1-.56,1.81,7.12,7.12,0,0,1-.36.67l-.22.42c-.12.17-.24.33-.37.49l-.22.25-.07.13h0l-.05.1-.18.17c-1,.87-1.95,1.8-3,2.59a47.85,47.85,0,0,1-6.68,4.49,36.34,36.34,0,0,1-7.59,3,25.82,25.82,0,0,1-4.09.75c-.7.06-1.41.11-2.12.12l-1.1,0c-.41,0-.7-.05-1.27-.13l.49-5.12a3.63,3.63,0,0,1,.57-.13l.74-.17c.5-.12,1-.28,1.51-.45a27.29,27.29,0,0,0,3-1.23,37.29,37.29,0,0,0,5.59-3.44c.87-.72,1.75-1.35,2.59-2.16s1.66-1.47,2.45-2.23,1.55-1.65,2.34-2.45l.09-.18.05-.09h0l0,.08-.1.19a3.58,3.58,0,0,1-.23.31,1.43,1.43,0,0,0-.12.21l-.14.26c-.11.22-.08.15,0,.06a7.31,7.31,0,0,0,.07-1.21c0-2-.15-4.42-.38-6.76s-.48-4.75-.77-7.14c-.58-4.77-1.21-9.63-1.83-14.39Z" style="fill:#ff887b"></path><path d="M386.4,219.6l-9.75,1.23.68-8.93s5.53,0,8.09,3.34Z" style="fill:#ff887b"></path><path d="M371.4,218.8l-.45-3.42a2.53,2.53,0,0,1,2.13-2.82l4.25-.66-.68,8.93-2.59.16A2.53,2.53,0,0,1,371.4,218.8Z" style="fill:#ff887b"></path><rect x="385.19" y="181.76" width="14.35" height="3.39" style="fill:#fff"></rect><path d="M397.61,167.89c-5.25,6.48-1,28.49-1,28.49l17.7-3.08s.63-15.69-4.45-22.7C406.33,165.71,400.57,164.5,397.61,167.89Z" style="fill:#B99B5F"></path><path d="M397.61,167.89c-5.25,6.48-1,28.49-1,28.49l17.7-3.08s.63-15.69-4.45-22.7C406.33,165.71,400.57,164.5,397.61,167.89Z" style="fill:#fff;opacity:0.6000000000000001"></path><path d="M390.75,145.83c-1.1,5.49-2.22,15.56,1.61,19.23-2.76,3-7.2,8-14.88,10.23-4.3-7.58-2.21-10.3-2.21-10.3,6.13-1.43,6-6,4.94-10.25Z" style="fill:#ff887b"></path><path d="M389.6,146.8a22.84,22.84,0,0,1-2.32,9.42c-1,2-3.75,2.92-6.52,3.12a15.21,15.21,0,0,0-.53-4.6Z" style="opacity:0.2"></path><path d="M399.53,139c-2.7,8.81-3.59,12.58-9.23,16.1-8.41,5.28-18.63.09-18.66-9.32,0-8.48,4.39-21.44,13.93-22.92a12.53,12.53,0,0,1,14,16.14Z" style="fill:#ff887b"></path><path d="M393.75,121c-5.89-5.41-12.39-3.24-15.8-1.46a13.82,13.82,0,0,0-6.93,8.82c-.36,1.48,0,4.88,2.87,5.84a14.79,14.79,0,0,1,3.28-4.56c2.14-1.69,6.12-1.87,7.71-1.39a38.35,38.35,0,0,0,6.19,10c2.52,2.79,6.24,4.77,10,4.25,3.41-4.37,4.55-10.44,2.25-15.49S393.75,121,393.75,121Z" style="fill:#263238"></path><path d="M388,135.94a.86.86,0,0,1-.14-.18c-1.1-1.51-3.64-2.14-4.72-2.41a.45.45,0,0,1-.37-.5.44.44,0,0,1,.51-.36h0c1.38.31,4.4,1.25,5.39,2.92a.44.44,0,0,1-.25.57A.45.45,0,0,1,388,135.94Z" style="fill:#263238"></path><path d="M375.28,134l0-.06a.42.42,0,0,1,0-.61,4.38,4.38,0,0,1,3.77-1.18.44.44,0,0,1,.33.53h0a.44.44,0,0,1-.53.32,3.47,3.47,0,0,0-3,.95A.44.44,0,0,1,375.28,134Z" style="fill:#263238"></path><path d="M397.16,140.65a6.59,6.59,0,0,0-4.45-2.44l-3.92-.42a4.21,4.21,0,0,0-8.32-1.09,1.26,1.26,0,0,0-.93-.1,4.15,4.15,0,1,0,0,.61.7.7,0,0,1,.86.09,4.22,4.22,0,0,0,8.37,1l3.91.42a6.08,6.08,0,0,1,4.09,2.24l1.12,1.39.43-.34Zm-22.23-.37A3.69,3.69,0,1,1,379,137,3.69,3.69,0,0,1,374.93,140.28Zm9.26,1a3.69,3.69,0,1,1,4.06-3.28A3.7,3.7,0,0,1,384.19,141.28Z" style="fill:#263238"></path><path d="M401.53,144a6.74,6.74,0,0,1-3.28,4c-2.09,1.06-3.62-.68-3.44-2.9.17-2,1.46-5,3.75-5.14a3,3,0,0,1,3,4Z" style="fill:#ff887b"></path><path d="M379.48,138.3a19.9,19.9,0,0,1-3.69,4,3.21,3.21,0,0,0,2.47,1.1Z" style="fill:#ba4d3c"></path><path d="M379.12,146.68a.23.23,0,0,1-.1-.22.22.22,0,0,1,.26-.17h0a6,6,0,0,0,5.17-1.41.22.22,0,1,1,.31.3,6.24,6.24,0,0,1-5.57,1.53Z" style="fill:#263238"></path><path d="M385.91,138.24c-.14.73-.64,1.26-1.12,1.17s-.76-.76-.62-1.5.64-1.26,1.12-1.16S386.05,137.51,385.91,138.24Z" style="fill:#263238"></path><path d="M377.43,137.09c-.14.74-.64,1.26-1.12,1.17s-.76-.75-.62-1.5.64-1.25,1.12-1.16S377.57,136.36,377.43,137.09Z" style="fill:#263238"></path><path d="M377,135.68l-1.67-.84S376,136.39,377,135.68Z" style="fill:#263238"></path><path d="M385.5,136.83l-1.67-.84S384.47,137.54,385.5,136.83Z" style="fill:#263238"></path></g><path d="M373.47,171c0,.11,4,5,4,5l8-3.67-3.32-1.85-3.58,1.81a8.63,8.63,0,0,1-.6-5.5C378.59,163.55,373.47,171,373.47,171Z" style="fill:#B99B5F"></path><path d="M378.18,171.4a48,48,0,0,0-5,4.09c-1.13-3.93.09-11,3.84-12.61,1.48-.65,1.83-.95,3.32-1.6C378.81,163.92,376.88,167.43,378.18,171.4Z" style="fill:#B99B5F"></path><path d="M390.13,160.62c-1.22,7.79-11,11.26-11,11.26,1.56,1.41,2.29,2.71,3.85,4.12a35.41,35.41,0,0,0,11.59-10.62c-1.38-1.66-3-3.23-4.36-4.88C390.13,160.62,390.15,160.47,390.13,160.62Z" style="fill:#B99B5F"></path></g><g id="freepik--character-1--inject-9"><path d="M162.3,179.49l13.13-.62,3.8-2.71a3,3,0,0,1,2-.14l6.06.45a3,3,0,0,1,2,1.83l.21,5.77a3,3,0,0,1-2.56,2.14l-7.37.86a3,3,0,0,1-1.69-.29l-4.85-1.31-16,1.62Z" style="fill:#ff887b"></path><path d="M179.43,176.12a15,15,0,0,0,2.86-3.81,1,1,0,0,1,1.43-.49h0a1,1,0,0,1,.44,1.2l-1.65,4.65a1,1,0,0,1-1,.66L179,178l.15-1.32A1,1,0,0,1,179.43,176.12Z" style="fill:#ff887b"></path><path d="M145.83,189.6a7.83,7.83,0,0,1-6.74-3.49,127,127,0,0,1-7.66-13.23c-3.32-6.62-4.25-20-8.14-26.31,6.8,2.91,14.25,7.91,17.44,14.58,2.44,5.11,5.61,10.06,8.24,15.08l20.29-.35a4.67,4.67,0,0,1,4.59,3.41c1,3.48,1.66,8.4-1.7,9C168.24,188.92,153.28,189.4,145.83,189.6Z" style="fill:#263238"></path><polygon points="126.78 409.69 135.44 409.46 135.27 389.4 126.61 389.63 126.78 409.69" style="fill:#ff887b"></polygon><path d="M135.78,405.44l-9.47.25a.78.78,0,0,0-.7.71l-1.28,9.07a1.54,1.54,0,0,0,1.09,1.77l.24,0c3.41-.17,8.33-.54,12.62-.65,5-.13,5.43.18,11.3,0,3.55-.1,4.34-4.34,2.83-4.69-6.85-1.56-8.47-1.7-14.52-5.8A3.61,3.61,0,0,0,135.78,405.44Z" style="fill:#263238"></path><polygon points="135.27 389.41 135.13 400.73 126.47 400.96 126.61 389.64 135.27 389.41" style="opacity:0.2"></polygon><path d="M136.91,406.23a.18.18,0,0,1-.15-.1.2.2,0,0,1,.08-.27c.38-.21,3.73-2.05,4.78-1.48a.62.62,0,0,1,.36.52,1.06,1.06,0,0,1-.33,1,3.12,3.12,0,0,1-2.05.58A13.53,13.53,0,0,1,136.91,406.23Zm.62-.3c1.9.27,3.3.15,3.8-.33a.71.71,0,0,0,.21-.66.32.32,0,0,0-.13-.22,1.32,1.32,0,0,0-.39-.06A10.84,10.84,0,0,0,137.53,405.93Z" style="fill:#B99B5F"></path><path d="M136.46,405.94a.25.25,0,0,1-.09-.19c0-.09.14-2.4,1.16-3.32a1.41,1.41,0,0,1,1.1-.37c.56,0,.77.32.78.54.2,1-1.72,2.86-2.74,3.35h-.09A.25.25,0,0,1,136.46,405.94Zm1.34-3.19a4.64,4.64,0,0,0-1,2.66c1-.66,2.33-2.15,2.21-2.72,0-.05-.05-.22-.41-.21h-.13A1.05,1.05,0,0,0,137.8,402.75Z" style="fill:#B99B5F"></path><polygon points="94.96 410.3 103.62 410.2 103.75 390.14 95.09 390.25 94.96 410.3" style="fill:#ff887b"></polygon><path d="M104,406.18l-9.47.12a.76.76,0,0,0-.71.7l-1.42,9.05a1.55,1.55,0,0,0,1.07,1.78,1,1,0,0,0,.24,0c3.41-.11,8.33-.41,12.63-.46,5-.06,5.42.26,11.29.19,3.56,0,4.41-4.28,2.91-4.64-6.83-1.67-8.45-1.83-14.43-6A3.76,3.76,0,0,0,104,406.18Z" style="fill:#263238"></path><polygon points="103.75 390.15 103.45 401.46 94.78 401.57 95.09 390.26 103.75 390.15" style="opacity:0.2"></polygon><path d="M105.15,407a.21.21,0,0,1-.16-.11.19.19,0,0,1,.09-.26c.38-.21,3.76-2,4.8-1.42a.63.63,0,0,1,.35.53,1.06,1.06,0,0,1-.34,1,3.21,3.21,0,0,1-2.07.55A14.07,14.07,0,0,1,105.15,407Zm.61-.3c1.91.3,3.3.2,3.81-.27a.74.74,0,0,0,.22-.66.23.23,0,0,0-.13-.21.83.83,0,0,0-.38-.07A11,11,0,0,0,105.76,406.7Z" style="fill:#B99B5F"></path><path d="M104.7,406.69a.21.21,0,0,1-.09-.18c0-.1.18-2.4,1.21-3.3a1.43,1.43,0,0,1,1.1-.36c.56,0,.77.33.78.55.18,1-1.77,2.83-2.8,3.31h-.08A.17.17,0,0,1,104.7,406.69Zm1.39-3.17a4.76,4.76,0,0,0-1,2.65c1-.64,2.36-2.11,2.25-2.68,0-.05,0-.23-.4-.22h-.13A1,1,0,0,0,106.09,403.52Z" style="fill:#B99B5F"></path><path d="M135.46,226.49l2.6,106.4.68,62a3.11,3.11,0,0,1-2.85,3.27l-10.3.2a3.06,3.06,0,0,1-3-2.91c-1.5-13.88-6.85-35.84-5.16-61.86,0,0-8.72-68.06-9.57-88.87l1.31-18.55Z" style="fill:#263238"></path><path d="M114.57,255.51s1.48,17.12-.87,45c0,0-2.91-20.43-4.51-31.6Z" style="opacity:0.30000000000000004"></path><path d="M117,225.46l-7.46,108.26-3,61.91a3.11,3.11,0,0,1-3,3.1l-10.3-.41a3.07,3.07,0,0,1-2.77-3.08c-.68-13.95-4.72-36.18-1.49-62.06,0,0-4.68-68.46-4.3-89.28l2.4-18.44Z" style="fill:#263238"></path><path d="M103.73,143.06c1.77-5.47,1.39-13.31.8-18.22l11.85,11.71a14.38,14.38,0,0,0-.74,6.52,2.36,2.36,0,0,0,2,2l5,1.58.59,3.9-3,.79-3.88,5.06-10.08-5.06-10.57-4.92a19.45,19.45,0,0,1,4.92-.92A4.29,4.29,0,0,0,103.73,143.06Z" style="fill:#ff887b"></path><path d="M135.46,226.49l-50.09,1,9.54-81.6A11.1,11.1,0,0,1,96,145.6l3.83-.69,0,0c.76.53,8.39,7.37,15.79,7.66,6.26.23,3.69-7.68,3.69-7.68l2.69.84,1.07.16,3.25,2.43s6.9,15,8.56,52.3Z" style="fill:#B99B5F"></path><path d="M135.46,226.49l-50.09,1,9.54-81.6A11.1,11.1,0,0,1,96,145.6l3.83-.69,0,0c.76.53,8.39,7.37,15.79,7.66,6.26.23,3.69-7.68,3.69-7.68l2.69.84,1.07.16,3.25,2.43s6.9,15,8.56,52.3Z" style="fill:#fff;opacity:0.8"></path><path d="M109.35,130.52l6.83,6.69a16.18,16.18,0,0,0-.65,3.8c-2.78-.63-6.2-3.26-7.07-6.41C107.88,132.65,108.61,130.69,109.35,130.52Z" style="opacity:0.2;isolation:isolate"></path><path d="M102.74,116c.51,9,.36,14.3,4.89,18.93,6.8,7,17.94,2.88,20.11-6.07,2-8.12.78-21.44-8-25.06a12.29,12.29,0,0,0-17,12.2Z" style="fill:#ff887b"></path><path d="M100.3,107.37a11.94,11.94,0,0,0-4.09,19c1.86,2,4.46,3.49,5.71,6,.64,1.27-.18,2.53-1.4,3.26a4.33,4.33,0,0,0,3.2-3.36,4.76,4.76,0,0,1-.85,3.76,7.94,7.94,0,0,0,2.72-7.69,9.61,9.61,0,0,1-3.43-7.62,8.72,8.72,0,0,1,4-6.9l-.74.33A14.55,14.55,0,0,0,100.3,107.37Z" style="fill:#263238"></path><path d="M105.75,120.8a3.29,3.29,0,0,0-1.34-.35,1.65,1.65,0,0,0-1.5.62,2.41,2.41,0,0,0-.07,1.92q1.05,4.28,2.31,8.5a27.61,27.61,0,0,1-7.83-17c2.67-.23,5.81-.39,8.48-.62Z" style="fill:#263238"></path><path d="M117,118.35c.07.73.51,1.29,1,1.24s.8-.67.74-1.4-.51-1.28-1-1.24S117,117.62,117,118.35Z" style="fill:#263238"></path><path d="M125.28,117.74c.07.72.51,1.28,1,1.23s.81-.67.74-1.39-.51-1.29-1-1.25S125.22,117,125.28,117.74Z" style="fill:#263238"></path><path d="M113.82,115a.72.72,0,0,1-.2-.09.45.45,0,0,1,0-.61,4.32,4.32,0,0,1,3.8-1,.42.42,0,0,1,.29.53.43.43,0,0,1-.53.3h0a3.41,3.41,0,0,0-3,.84A.46.46,0,0,1,113.82,115Z" style="fill:#263238"></path><path d="M128.4,114.36a.4.4,0,0,1-.41,0,3.43,3.43,0,0,0-3.07-.25.44.44,0,0,1-.58-.19.43.43,0,0,1,.19-.58,4.27,4.27,0,0,1,3.93.28.41.41,0,0,1,.16.56h0A.39.39,0,0,1,128.4,114.36Z" style="fill:#263238"></path><path d="M98.31,124.35a8.63,8.63,0,0,0,5.32,3.8c2.94.65,4.25-2,3.3-4.69-.85-2.41-3.4-5.67-6.28-5.13S96.86,122,98.31,124.35Z" style="fill:#ff887b"></path><path d="M122.14,118.18a24.89,24.89,0,0,0,4.31,5.51c-1.08,1.43-3.33,1.29-3.33,1.29Z" style="fill:#ba4d3c"></path><path d="M117.34,144.91s7.51,3.17,10.26,23.44a324.29,324.29,0,0,1,3,57.1c-.76,17.77-.12,29.28,5.39,28.53,0,0,.5-9.55,0-41.33-.44-28.12,1.77-59.05-11.64-66.21A18.17,18.17,0,0,0,117.34,144.91Z" style="fill:#263238"></path><g style="opacity:0.1"><path d="M117.34,144.91s7.51,3.17,10.26,23.44a324.29,324.29,0,0,1,3,57.1c-.76,17.77-.12,29.28,5.39,28.53,0,0,.5-9.55,0-41.33-.44-28.12,1.77-59.05-11.64-66.21A18.17,18.17,0,0,0,117.34,144.91Z" style="fill:#fff"></path></g><path d="M100.77,144.91s9,5,10,36.71,2.5,73.15-8.18,74.15-22.35-5-22.35-5,5.4-33.92,6.5-45.45C88,192,79.23,149.71,85,148.12A128.35,128.35,0,0,1,100.77,144.91Z" style="fill:#263238"></path><g style="opacity:0.1"><path d="M100.77,144.91s9,5,10,36.71,2.5,73.15-8.18,74.15-22.35-5-22.35-5,5.4-33.92,6.5-45.45C88,192,79.23,149.71,85,148.12A128.35,128.35,0,0,1,100.77,144.91Z" style="fill:#fff"></path></g><g style="opacity:0.2"><path d="M93.67,229.33h8.47a3.27,3.27,0,0,1,3.27,3.27v1.9a0,0,0,0,1,0,0h-15a0,0,0,0,1,0,0v-1.9A3.27,3.27,0,0,1,93.67,229.33Z" transform="matrix(-0.99, -0.14, 0.14, -0.99, 161.81, 475.41)" style="fill:#fff"></path></g><path d="M77.16,191.07,87,198.18l6-.81a3.09,3.09,0,0,1,2,.42L98.72,200a3.07,3.07,0,0,1,1.44,2.31l.18,2a3,3,0,0,1-.47,1.92L98.78,208a3,3,0,0,1-3,1.36l-7.33-1.19a3.11,3.11,0,0,1-1.54-.73l-3.93-3.52-12.54-7.17Z" style="fill:#ff887b"></path><path d="M84.29,205.67a2.93,2.93,0,0,1-3.7.64c-3.28-1.87-19.81-12.93-22.34-19.81-3.61-9.8,17.75-31.94,24.24-36.9,7.27-5.55,10.93,10.87,6.18,15.86-5.75,6-12.27,12.88-15.11,15.72a1.72,1.72,0,0,0,.38,2.71s12.31,10.44,14.5,12.39C89.84,197.53,85.82,203.86,84.29,205.67Z" style="fill:#263238"></path><path d="M84.29,205.67a2.93,2.93,0,0,1-3.7.64c-3.28-1.87-19.81-12.93-22.34-19.81-3.61-9.8,17.75-31.94,24.24-36.9,7.27-5.55,10.93,10.87,6.18,15.86-5.75,6-12.27,12.88-15.11,15.72a1.72,1.72,0,0,0,.38,2.71s12.31,10.44,14.5,12.39C89.84,197.53,85.82,203.86,84.29,205.67Z" style="fill:#263238"></path><path d="M121,128.91a6.07,6.07,0,0,1-3.9-2.82.2.2,0,0,1,.08-.28.22.22,0,0,1,.29.09,5.84,5.84,0,0,0,4.39,2.74.22.22,0,1,1,0,.43h0A5.64,5.64,0,0,1,121,128.91Z" style="fill:#263238"></path><path d="M113.92,113.85c3.51-.5,6.13-3.92,6.58-7.43,3.14.77,5.18,3.59,6.82,6.39a1.52,1.52,0,0,0,2.35.38,2.41,2.41,0,0,0,.55-2.17,7,7,0,0,0-1-2.21c-.62-1-1.26-2.08-2-3.07a10.21,10.21,0,0,0-8.64-4.38h-.18a13.76,13.76,0,0,0-8.26-1.37c-3.23.38-5.29,1.87-7.74,4s-3.43,6.28-6.88,9.91a2,2,0,0,0,1.38,3.37h0a40.84,40.84,0,0,0,17-3.44Z" style="fill:#263238"></path><polygon points="115.03 150.73 112.11 154.25 115.03 158.27 118.77 158.27 118.77 153.3 115.03 150.73" style="fill:#B99B5F"></polygon><path d="M115,158.27l1,8.65c2.24,15.77-1.29,35.12-1.29,35.12l6.8,6.19s5.37-6.82,5-6.74c-.21,0-.17-12.52-2.18-24.15a102.53,102.53,0,0,0-5.53-19.07Z" style="fill:#B99B5F"></path><path d="M115.77,141.89c.76.91,1.68,1,2.39,1.9a16.42,16.42,0,0,1,3.08,12.83l-.1.55a6.87,6.87,0,0,0-5.73-4.56,17.65,17.65,0,0,1-6.54,5.66,37.64,37.64,0,0,1-9.31-13.89q2.16-1.75,4.31-3.52a19.53,19.53,0,0,0,11.07,7C115.09,146,115.62,143.73,115.77,141.89Z" style="fill:#B99B5F"></path><path d="M115.77,141.89c.76.91,1.68,1,2.39,1.9a16.42,16.42,0,0,1,3.08,12.83l-.1.55a6.87,6.87,0,0,0-5.73-4.56,17.65,17.65,0,0,1-6.54,5.66,37.64,37.64,0,0,1-9.31-13.89q2.16-1.75,4.31-3.52a19.53,19.53,0,0,0,11.07,7C115.09,146,115.62,143.73,115.77,141.89Z" style="fill:#fff;opacity:0.9"></path></g></svg>